<svg version="1.1" viewBox="0 0 180.61224489795916 117.19800000000001" xmlns:xlink="http://www.w3.org/1999/xlink" xmlns="http://www.w3.org/2000/svg" style="max-height: 500px" width="180.61224489795916" height="117.19800000000001">
<g id="surface1">
<path d="M 87.207031 88.96875 L 21.746094 88.96875 L 72.515625 0.0351562 L 58.847656 0.0351562 L 0.808594 101.472656 L 94.1875 101.472656 Z M 87.207031 88.96875" style="stroke:none;fill-rule:nonzero;fill:rgb(93.725491%,10.588235%,16.470589%);fill-opacity:1;"/>
<path d="M 27.183594 86.394531 L 41.65625 86.394531 L 74.425781 23.722656 L 124.238281 116.847656 L 131.582031 104.046875 L 75.527344 0.0351562 Z M 27.183594 86.394531" style="stroke:none;fill-rule:nonzero;fill:rgb(0.392157%,47.058824%,29.411766%);fill-opacity:1;"/>
<path d="M 67.222656 42.996094 L 74.277344 30.046875 L 120.710938 116.847656 L 7.273438 116.847656 L 0 104.5625 L 98.667969 104.5625 Z M 67.222656 42.996094" style="stroke:none;fill-rule:nonzero;fill:rgb(9.803922%,3.921569%,35.294119%);fill-opacity:1;"/>
<path d="M 81.476562 79.183594 L 66.929688 79.183594 L 64.875 86.027344 L 51.796875 86.027344 L 67.371094 44.464844 L 81.332031 44.464844 L 96.90625 86.027344 L 83.460938 86.027344 Z M 78.757812 70.210938 L 74.203125 55.277344 L 69.648438 70.210938 Z M 78.757812 70.210938" style="stroke:none;fill-rule:nonzero;fill:rgb(100%,81.176472%,5.490196%);fill-opacity:1;"/>
<path d="M 94.628906 44.539062 L 133.640625 44.539062 L 133.640625 54.765625 L 120.5625 54.765625 L 120.5625 86.097656 L 107.707031 86.097656 L 107.707031 54.835938 L 94.628906 54.835938 Z M 94.628906 44.539062" style="stroke:none;fill-rule:nonzero;fill:rgb(100%,81.176472%,5.490196%);fill-opacity:1;"/>
<path d="M 140.03125 44.539062 L 152.007812 44.539062 L 167.65625 67.5625 L 167.65625 44.539062 L 179.78125 44.539062 L 179.78125 86.097656 L 167.65625 86.097656 L 152.082031 63.296875 L 152.082031 86.097656 L 140.03125 86.097656 Z M 140.03125 44.539062" style="stroke:none;fill-rule:nonzero;fill:rgb(100%,81.176472%,5.490196%);fill-opacity:1;"/>
<path d="M 51.503906 94.558594 L 62.964844 94.558594 C 64.875 94.558594 66.34375 95.074219 67.371094 96.03125 C 68.398438 96.984375 68.914062 98.164062 68.914062 99.632812 C 68.914062 100.8125 68.546875 101.839844 67.8125 102.722656 C 67.296875 103.3125 66.636719 103.753906 65.679688 104.046875 C 67.078125 104.414062 68.179688 105.003906 68.839844 105.8125 C 69.503906 106.695312 69.871094 107.726562 69.871094 108.976562 C 69.871094 110.003906 69.648438 110.960938 69.132812 111.769531 C 68.621094 112.578125 68.03125 113.242188 67.152344 113.757812 C 66.636719 114.050781 65.828125 114.273438 64.800781 114.417969 C 63.402344 114.566406 62.523438 114.714844 62.082031 114.714844 L 51.503906 114.714844 Z M 57.671875 102.429688 L 60.320312 102.429688 C 61.273438 102.429688 61.933594 102.28125 62.300781 101.914062 C 62.667969 101.546875 62.890625 101.105469 62.890625 100.441406 C 62.890625 99.855469 62.667969 99.414062 62.300781 99.046875 C 61.933594 98.75 61.273438 98.53125 60.320312 98.53125 L 57.671875 98.53125 Z M 57.671875 110.375 L 60.832031 110.375 C 61.859375 110.375 62.667969 110.152344 63.035156 109.785156 C 63.476562 109.417969 63.699219 108.902344 63.699219 108.238281 C 63.699219 107.652344 63.476562 107.136719 63.035156 106.769531 C 62.597656 106.402344 61.859375 106.253906 60.757812 106.253906 L 57.671875 106.253906 Z M 57.671875 110.375" style="stroke:none;fill-rule:nonzero;fill:rgb(100%,81.176472%,5.490196%);fill-opacity:1;"/>
<path d="M 85.003906 111.402344 L 78.023438 111.402344 L 77.070312 114.714844 L 70.824219 114.714844 L 78.320312 94.558594 L 85.003906 94.558594 L 92.496094 114.714844 L 86.105469 114.714844 Z M 83.753906 106.988281 L 81.550781 99.78125 L 79.347656 106.988281 Z M 83.753906 106.988281" style="stroke:none;fill-rule:nonzero;fill:rgb(100%,81.176472%,5.490196%);fill-opacity:1;"/>
<path d="M 94.703125 94.558594 L 100.433594 94.558594 L 107.925781 105.738281 L 107.925781 94.558594 L 113.730469 94.558594 L 113.730469 114.714844 L 107.925781 114.714844 L 100.507812 103.679688 L 100.507812 114.714844 L 94.703125 114.714844 Z M 94.703125 94.558594" style="stroke:none;fill-rule:nonzero;fill:rgb(100%,81.176472%,5.490196%);fill-opacity:1;"/>
<path d="M 127.984375 107.429688 L 127.984375 103.238281 L 137.460938 103.238281 L 137.460938 111.84375 C 135.625 113.09375 134.007812 113.976562 132.613281 114.417969 C 131.214844 114.859375 129.601562 115.082031 127.617188 115.082031 C 125.265625 115.082031 123.355469 114.640625 121.886719 113.832031 C 120.417969 113.019531 119.242188 111.769531 118.433594 110.152344 C 117.625 108.535156 117.183594 106.695312 117.183594 104.636719 C 117.183594 102.429688 117.625 100.515625 118.507812 98.898438 C 119.386719 97.28125 120.710938 96.03125 122.398438 95.21875 C 123.722656 94.558594 125.558594 94.265625 127.835938 94.265625 C 130.039062 94.265625 131.65625 94.484375 132.757812 94.851562 C 133.859375 95.21875 134.742188 95.882812 135.476562 96.765625 C 136.210938 97.648438 136.726562 98.675781 137.09375 100 L 131.144531 101.105469 C 130.921875 100.371094 130.480469 99.78125 129.894531 99.339844 C 129.304688 98.972656 128.570312 98.75 127.691406 98.75 C 126.367188 98.75 125.265625 99.191406 124.457031 100.148438 C 123.648438 101.105469 123.28125 102.578125 123.28125 104.636719 C 123.28125 106.84375 123.648438 108.386719 124.457031 109.34375 C 125.265625 110.300781 126.367188 110.742188 127.835938 110.742188 C 128.496094 110.742188 129.160156 110.667969 129.820312 110.445312 C 130.40625 110.226562 131.144531 109.933594 131.949219 109.417969 L 131.949219 107.429688 Z M 127.984375 107.429688" style="stroke:none;fill-rule:nonzero;fill:rgb(100%,81.176472%,5.490196%);fill-opacity:1;"/>
<path d="M 141.355469 94.558594 L 147.453125 94.558594 L 147.453125 109.710938 L 157.003906 109.710938 L 157.003906 114.640625 L 141.28125 114.640625 L 141.28125 94.558594 Z M 141.355469 94.558594" style="stroke:none;fill-rule:nonzero;fill:rgb(100%,81.176472%,5.490196%);fill-opacity:1;"/>
<path d="M 172.285156 111.402344 L 165.304688 111.402344 L 164.351562 114.714844 L 158.105469 114.714844 L 165.601562 94.558594 L 172.285156 94.558594 L 179.78125 114.714844 L 173.386719 114.714844 Z M 171.035156 106.988281 L 168.832031 99.78125 L 166.628906 106.988281 Z M 171.035156 106.988281" style="stroke:none;fill-rule:nonzero;fill:rgb(100%,81.176472%,5.490196%);fill-opacity:1;"/>
<path d="M 97.347656 86.320312 L 83.386719 86.320312 L 81.332031 79.480469 L 67.152344 79.480469 L 65.09375 86.320312 L 51.429688 86.320312 L 67.222656 44.246094 L 81.550781 44.246094 L 81.625 44.390625 Z M 83.679688 85.804688 L 96.539062 85.804688 L 81.109375 44.761719 L 67.445312 44.761719 L 52.015625 85.804688 L 64.578125 85.804688 L 66.636719 78.964844 L 81.550781 78.964844 Z M 79.125 70.503906 L 69.28125 70.503906 L 74.128906 54.394531 Z M 70.015625 69.988281 L 78.464844 69.988281 L 74.203125 56.234375 Z M 70.015625 69.988281" style="stroke:none;fill-rule:nonzero;fill:rgb(0%,0%,0%);fill-opacity:1;"/>
<path d="M 120.785156 86.320312 L 107.414062 86.320312 L 107.414062 55.058594 L 94.40625 55.058594 L 94.40625 44.246094 L 133.933594 44.246094 L 133.933594 55.058594 L 120.855469 55.058594 L 120.855469 86.320312 Z M 108 85.804688 L 120.34375 85.804688 L 120.34375 54.542969 L 133.347656 54.542969 L 133.347656 44.832031 L 94.847656 44.832031 L 94.847656 54.542969 L 107.925781 54.542969 L 107.925781 85.804688 Z M 108 85.804688" style="stroke:none;fill-rule:nonzero;fill:rgb(0%,0%,0%);fill-opacity:1;"/>
<path d="M 180 86.320312 L 167.511719 86.320312 L 167.4375 86.171875 L 152.375 64.03125 L 152.375 86.246094 L 139.8125 86.246094 L 139.8125 44.171875 L 152.15625 44.171875 L 152.230469 44.320312 L 167.363281 66.605469 L 167.363281 44.171875 L 180 44.171875 Z M 167.804688 85.804688 L 179.484375 85.804688 L 179.484375 44.761719 L 167.878906 44.761719 L 167.878906 68.296875 L 151.859375 44.761719 L 140.253906 44.761719 L 140.253906 85.804688 L 151.789062 85.804688 L 151.789062 62.414062 Z M 167.804688 85.804688" style="stroke:none;fill-rule:nonzero;fill:rgb(0%,0%,0%);fill-opacity:1;"/>
<path d="M 62.082031 114.859375 L 51.28125 114.859375 L 51.28125 94.335938 L 62.964844 94.335938 C 64.945312 94.335938 66.417969 94.851562 67.519531 95.808594 C 68.546875 96.839844 69.132812 98.089844 69.132812 99.558594 C 69.132812 100.8125 68.765625 101.839844 67.960938 102.722656 C 67.519531 103.164062 67.003906 103.605469 66.269531 103.898438 C 67.445312 104.269531 68.328125 104.855469 68.988281 105.59375 C 69.648438 106.476562 70.015625 107.578125 70.015625 108.902344 C 70.015625 110.003906 69.796875 110.960938 69.28125 111.84375 C 68.765625 112.726562 68.105469 113.390625 67.222656 113.902344 C 66.710938 114.199219 65.902344 114.417969 64.800781 114.566406 C 63.476562 114.785156 62.523438 114.859375 62.082031 114.859375 Z M 51.722656 114.492188 L 62.082031 114.492188 C 62.523438 114.492188 63.476562 114.417969 64.800781 114.199219 C 65.828125 114.050781 66.5625 113.832031 67.078125 113.535156 C 67.886719 113.09375 68.546875 112.433594 68.988281 111.625 C 69.429688 110.816406 69.648438 109.933594 69.648438 108.902344 C 69.648438 107.652344 69.355469 106.621094 68.695312 105.8125 C 68.03125 105.003906 67.003906 104.414062 65.679688 104.121094 L 65.019531 103.972656 L 65.609375 103.753906 C 66.488281 103.457031 67.222656 103.015625 67.664062 102.429688 C 68.328125 101.621094 68.695312 100.664062 68.695312 99.488281 C 68.695312 98.164062 68.179688 96.984375 67.222656 96.03125 C 66.269531 95.074219 64.800781 94.632812 62.964844 94.632812 L 51.648438 94.632812 L 51.648438 114.492188 Z M 60.832031 110.59375 L 57.527344 110.59375 L 57.527344 106.105469 L 60.832031 106.105469 C 61.933594 106.105469 62.742188 106.328125 63.183594 106.695312 C 63.625 107.0625 63.917969 107.652344 63.917969 108.3125 C 63.917969 108.976562 63.699219 109.5625 63.183594 110.003906 C 62.667969 110.375 61.933594 110.59375 60.832031 110.59375 Z M 57.894531 110.152344 L 60.832031 110.152344 C 61.859375 110.152344 62.523438 110.003906 62.964844 109.636719 C 63.332031 109.269531 63.550781 108.828125 63.550781 108.238281 C 63.550781 107.726562 63.332031 107.285156 62.964844 106.917969 C 62.597656 106.621094 61.859375 106.402344 60.832031 106.402344 L 57.894531 106.402344 Z M 60.320312 102.648438 L 57.453125 102.648438 L 57.453125 98.457031 L 60.390625 98.457031 C 61.347656 98.457031 62.082031 98.605469 62.449219 98.972656 C 62.890625 99.339844 63.109375 99.855469 63.109375 100.515625 C 63.109375 101.179688 62.890625 101.765625 62.449219 102.136719 C 62.082031 102.429688 61.347656 102.648438 60.320312 102.648438 Z M 57.894531 102.28125 L 60.390625 102.28125 C 61.273438 102.28125 61.933594 102.136719 62.230469 101.839844 C 62.597656 101.546875 62.742188 101.105469 62.742188 100.515625 C 62.742188 100 62.597656 99.558594 62.230469 99.265625 C 61.859375 98.972656 61.273438 98.824219 60.390625 98.824219 L 57.894531 98.824219 Z M 57.894531 102.28125" style="stroke:none;fill-rule:nonzero;fill:rgb(0%,0%,0%);fill-opacity:1;"/>
<path d="M 92.71875 114.859375 L 85.886719 114.859375 L 84.855469 111.550781 L 78.246094 111.550781 L 77.289062 114.859375 L 70.605469 114.859375 L 78.246094 94.335938 L 85.222656 94.335938 Z M 86.179688 114.492188 L 92.203125 114.492188 L 84.855469 94.707031 L 78.464844 94.707031 L 71.117188 114.492188 L 76.921875 114.492188 L 77.878906 111.183594 L 85.152344 111.183594 Z M 84.050781 107.210938 L 79.199219 107.210938 L 81.625 99.117188 Z M 79.640625 106.84375 L 83.460938 106.84375 L 81.550781 100.441406 Z M 79.640625 106.84375" style="stroke:none;fill-rule:nonzero;fill:rgb(0%,0%,0%);fill-opacity:1;"/>
<path d="M 113.878906 114.859375 L 107.78125 114.859375 L 107.707031 114.785156 L 100.652344 104.269531 L 100.652344 114.859375 L 94.480469 114.859375 L 94.480469 94.335938 L 100.507812 94.335938 L 107.707031 105.078125 L 107.707031 94.335938 L 113.878906 94.335938 Z M 108 114.492188 L 113.511719 114.492188 L 113.511719 94.707031 L 108.148438 94.707031 L 108.148438 106.328125 L 100.285156 94.707031 L 94.847656 94.707031 L 94.847656 114.492188 L 100.210938 114.492188 L 100.210938 103.015625 Z M 108 114.492188" style="stroke:none;fill-rule:nonzero;fill:rgb(0%,0%,0%);fill-opacity:1;"/>
<path d="M 127.691406 115.226562 C 125.339844 115.226562 123.355469 114.785156 121.8125 113.976562 C 120.269531 113.167969 119.09375 111.917969 118.285156 110.226562 C 117.476562 108.609375 117.035156 106.695312 117.035156 104.5625 C 117.035156 102.355469 117.476562 100.371094 118.433594 98.75 C 119.3125 97.132812 120.710938 95.808594 122.472656 95 C 123.871094 94.335938 125.707031 93.96875 127.984375 93.96875 C 130.1875 93.96875 131.878906 94.191406 132.980469 94.558594 C 134.082031 95 135.035156 95.589844 135.769531 96.472656 C 136.507812 97.355469 137.09375 98.457031 137.460938 99.78125 L 137.535156 100 L 131.214844 101.179688 L 131.144531 101.03125 C 130.921875 100.296875 130.554688 99.78125 129.96875 99.414062 C 129.453125 99.046875 128.71875 98.824219 127.835938 98.824219 C 126.515625 98.824219 125.558594 99.265625 124.75 100.148438 C 124.015625 101.03125 123.574219 102.503906 123.574219 104.488281 C 123.574219 106.621094 123.941406 108.167969 124.75 109.050781 C 125.484375 109.933594 126.585938 110.375 127.984375 110.375 C 128.644531 110.375 129.304688 110.300781 129.894531 110.078125 C 130.480469 109.859375 131.144531 109.5625 131.878906 109.121094 L 131.878906 107.503906 L 127.761719 107.503906 L 127.761719 103.015625 L 137.609375 103.015625 L 137.609375 111.917969 L 137.535156 111.992188 C 135.699219 113.242188 134.082031 114.125 132.6875 114.566406 C 131.289062 115.007812 129.601562 115.226562 127.691406 115.226562 Z M 127.910156 94.410156 C 125.707031 94.410156 123.871094 94.707031 122.546875 95.367188 C 120.855469 96.175781 119.609375 97.425781 118.726562 98.972656 C 117.84375 100.589844 117.402344 102.429688 117.402344 104.636719 C 117.402344 106.695312 117.84375 108.535156 118.578125 110.078125 C 119.386719 111.625 120.488281 112.875 121.960938 113.609375 C 123.429688 114.417969 125.339844 114.785156 127.617188 114.785156 C 129.527344 114.785156 131.144531 114.566406 132.539062 114.125 C 133.859375 113.683594 135.476562 112.875 137.242188 111.625 L 137.242188 103.3125 L 128.203125 103.3125 L 128.203125 107.136719 L 132.320312 107.136719 L 132.320312 109.34375 L 132.246094 109.417969 C 131.4375 109.933594 130.703125 110.226562 130.039062 110.445312 C 129.378906 110.667969 128.71875 110.742188 127.984375 110.742188 C 126.515625 110.742188 125.265625 110.226562 124.457031 109.269531 C 123.648438 108.3125 123.207031 106.695312 123.207031 104.488281 C 123.207031 102.429688 123.648438 100.8125 124.457031 99.855469 C 125.265625 98.898438 126.441406 98.382812 127.835938 98.382812 C 128.792969 98.382812 129.527344 98.605469 130.1875 99.046875 C 130.777344 99.414062 131.214844 100 131.4375 100.738281 L 136.945312 99.707031 C 136.578125 98.53125 136.066406 97.574219 135.402344 96.765625 C 134.742188 95.957031 133.859375 95.367188 132.757812 94.925781 C 131.730469 94.558594 130.113281 94.410156 127.910156 94.410156 Z M 127.910156 94.410156" style="stroke:none;fill-rule:nonzero;fill:rgb(0%,0%,0%);fill-opacity:1;"/>
<path d="M 157.222656 114.859375 L 141.132812 114.859375 L 141.132812 94.335938 L 147.671875 94.335938 L 147.671875 109.492188 L 157.222656 109.492188 Z M 141.574219 114.492188 L 156.855469 114.492188 L 156.855469 109.933594 L 147.304688 109.933594 L 147.304688 94.777344 L 141.574219 94.777344 Z M 141.574219 114.492188" style="stroke:none;fill-rule:nonzero;fill:rgb(0%,0%,0%);fill-opacity:1;"/>
<path d="M 180 114.859375 L 173.167969 114.859375 L 172.140625 111.550781 L 165.453125 111.550781 L 164.496094 114.859375 L 157.8125 114.859375 L 165.453125 94.335938 L 172.433594 94.335938 Z M 173.460938 114.492188 L 179.484375 114.492188 L 172.140625 94.707031 L 165.671875 94.707031 L 158.328125 114.492188 L 164.128906 114.492188 L 165.085938 111.183594 L 172.359375 111.183594 Z M 171.257812 107.210938 L 166.40625 107.210938 L 168.832031 99.117188 Z M 166.921875 106.84375 L 170.742188 106.84375 L 168.832031 100.441406 Z M 166.921875 106.84375" style="stroke:none;fill-rule:nonzero;fill:rgb(0%,0%,0%);fill-opacity:1;"/>
</g>
</svg>