<?xml version="1.0" encoding="UTF-8" standalone="no"?>
<!-- Created with Inkscape (http://www.inkscape.org/) -->

<svg
   version="1.1"
   id="svg1"
   width="421.33334"
   height="421.33334"
   viewBox="0 0 421.33334 421.33334"
   sodipodi:docname="Channel 1 Logo Bangladesh.svg"
   inkscape:version="1.4.3 (0d15f75, 2025-12-25)"
   xmlns:inkscape="http://www.inkscape.org/namespaces/inkscape"
   xmlns:sodipodi="http://sodipodi.sourceforge.net/DTD/sodipodi-0.dtd"
   xmlns="http://www.w3.org/2000/svg"
   xmlns:svg="http://www.w3.org/2000/svg">
  <defs
     id="defs1" />
  <sodipodi:namedview
     id="namedview1"
     pagecolor="#ffffff"
     bordercolor="#000000"
     borderopacity="0.25"
     inkscape:showpageshadow="2"
     inkscape:pageopacity="0.0"
     inkscape:pagecheckerboard="0"
     inkscape:deskcolor="#d1d1d1"
     inkscape:zoom="1"
     inkscape:cx="177.5"
     inkscape:cy="68.5"
     inkscape:window-width="1920"
     inkscape:window-height="991"
     inkscape:window-x="-9"
     inkscape:window-y="-9"
     inkscape:window-maximized="1"
     inkscape:current-layer="svg1" />
  <g
     inkscape:groupmode="layer"
     id="layer5"
     inkscape:label="Image 1">
    <rect
       style="opacity:1;fill:#1b4596;fill-opacity:1;stroke:#d78827;stroke-width:0;stroke-opacity:0.988235;paint-order:markers fill stroke"
       id="rect9"
       width="421.33539"
       height="421.34109"
       x="0"
       y="0" />
    <path
       style="opacity:1;fill:#ffffff;stroke:#d78827;stroke-width:0;stroke-opacity:0.988235;paint-order:markers fill stroke"
       d="m 208.17358,77.468901 15.27863,26.463359 30.95573,-23.39927 v 340.80036 h 82.4228 V 33.434961 L 303.22715,10.117207 Z"
       id="path2"
       inkscape:label="path1" />
    <path
       style="opacity:1;fill:#ffffff;stroke:#d78827;stroke-width:0;stroke-opacity:0.988235;paint-order:markers fill stroke"
       d="m 28.761775,375.5411 11.225282,3.22787 c 0,0 -6.47997,12.59501 -0.09635,21.67973 2.726429,3.88006 8.077471,6.63402 12.815129,6.84116 5.866655,0.2565 13.360396,-1.98992 16.669303,-6.84116 5.281431,-7.7432 0.192709,-21.39067 0.192709,-21.39067 l 11.562523,-2.69792 c 0,0 3.960588,11.82405 3.276048,17.92191 -0.78664,7.00736 -3.088533,14.8915 -8.286475,19.65629 -5.692465,5.21811 -14.30397,7.4301 -22.022483,7.19064 -7.3262,-0.22729 -15.196569,-2.986 -20.439845,-8.10781 -5.576284,-5.4471 -7.801305,-10.08969 -8.500071,-21.43362 -0.497581,-8.07785 3.60423,-16.04642 3.60423,-16.04642 z"
       id="path3"
       sodipodi:nodetypes="ccsssccsssssc"
       inkscape:label="path2" />
    <path
       style="opacity:1;fill:#ffffff;stroke:#d78827;stroke-width:0;stroke-opacity:0.988235;paint-order:markers fill stroke"
       d="m 25.209143,357.90169 v -13.96723 h 22.0069 V 325.67487 H 25.210937 V 311.625 H 83.6875 v 14.04687 H 59.75 v 18.25391 h 23.9375 v 13.97266 z"
       id="path4"
       inkscape:label="path3" />
    <path
       id="path5"
       style="opacity:1;fill:#ffffff;stroke:#d78827;stroke-width:0;stroke-opacity:0.988235;paint-order:markers fill stroke"
       d="M 83.261719 242.00781 L 25.203125 261.375 L 25.203125 277.19141 L 25.199219 277.19531 L 25.203125 277.19531 L 83.242188 296.00781 L 83.240234 295.99805 L 83.242188 296 L 83.242188 281.28516 L 68.226562 276.56641 L 68.226562 262.03516 L 83.261719 258.00586 L 83.261719 242.00781 z M 56.875 265 L 56.875 273.9707 L 56.179688 273.75 L 56.1875 273.75 L 55.849609 273.64648 L 55.732422 273.60938 L 55.728516 273.60938 L 42.9375 269.6875 L 56.875 265 z "
       inkscape:label="path4" />
    <path
       style="opacity:1;fill:#ffffff;stroke:#d78827;stroke-width:0;stroke-opacity:0.988235;paint-order:markers fill stroke"
       d="M 83.257812,226.69531 V 213.09326 H 47.818096 l 35.183225,-20.31305 0.271418,-0.1567 v -12.97419 h -58.07352 v 13.34664 H 57.5 l -32.718898,18.89026 v 14.8169 z"
       id="path6"
       inkscape:label="path5" />
    <path
       style="opacity:1;fill:#ffffff;stroke:#d78827;stroke-width:0;stroke-opacity:0.988235;paint-order:markers fill stroke"
       d="M 83.257812,158.69531 V 145.09326 H 47.818096 l 35.183225,-20.31305 0.271418,-0.1567 v -12.97419 h -58.07352 v 13.34664 H 57.5 l -32.718898,18.89026 v 14.8169 z"
       id="path7"
       inkscape:label="path6" />
    <path
       style="opacity:1;fill:#ffffff;stroke:#d78827;stroke-width:0;stroke-opacity:0.988235;paint-order:markers fill stroke"
       d="m 25.1875,90.796875 v -35.68674 h 13.217237 v 22.008698 h 9.324971 V 56.391766 H 59.750523 V 77.125 H 71.5625 V 55.105469 h 11.710937 v 35.691406 z"
       id="path8" />
    <path
       style="opacity:1;fill:#ffffff;stroke:#d78827;stroke-width:0;stroke-opacity:0.988235;paint-order:markers fill stroke"
       d="M 25.195312,35.15625 V 21.0625 H 70.887455 V 0 h 12.382076 v 35.152344 z"
       id="path9" />
  </g>
</svg>
