<?xml version="1.0" encoding="UTF-8"?>
<svg id="a" data-name="Слой 1" xmlns="http://www.w3.org/2000/svg" width="500" height="410" viewBox="0 0 500 410">
  <defs>
    <style>
      .b {
        fill: #182a47;
      }

      .c {
        fill: #fff;
      }

      .d {
        fill: #fbbb1a;
      }
    </style>
  </defs>
  <path class="d" d="M396.89,409.49h-119.24c-6.53,0-11.81-5.3-11.81-11.84v-55.28c0-6.54,5.29-11.84,11.81-11.84h119.24c6.53,0,11.81,5.3,11.81,11.84v55.28c0,6.54-5.29,11.84-11.81,11.84"/>
  <polygon class="b" points="321.92 400.13 321.92 374.66 296.16 374.66 296.16 400.13 283.02 400.13 283.02 340.55 296.16 340.55 296.16 362.7 321.92 362.7 321.92 340.55 335.05 340.55 335.05 400.13 321.92 400.13"/>
  <path class="b" d="M365.89,400.14h-22.56v-59.58h22.48c9.99,0,17.74,2.76,23.25,8.29s8.26,12.74,8.26,21.62-2.73,16.27-8.17,21.63c-5.34,5.35-13.09,8.04-23.25,8.04M364.99,352.52h-8.53v35.64h8.61c3.47,0,6.42-.41,8.87-1.24,2.45-.82,4.42-1.99,5.93-3.5,1.5-1.51,2.6-3.37,3.28-5.56.68-2.19,1.02-4.66,1.02-7.39,0-5.58-1.45-9.97-4.35-13.16-2.84-3.19-7.79-4.79-14.84-4.79"/>
  <path d="M94.65,394.35l11.3-6.44c1.33,2.89,3.36,5.18,6.09,6.88,2.73,1.71,5.76,2.55,9.08,2.55,4.21,0,7.9-1.41,11.08-4.23,3.1-2.75,4.65-6.23,4.65-10.47,0-2.15-.39-4.12-1.16-5.91-.78-1.78-1.83-3.32-3.16-4.62-1.33-1.3-2.92-2.32-4.76-3.06-1.85-.75-3.8-1.12-5.87-1.12-4.95,0-8.79,1.33-11.52,4l-9.97-2.67,7.2-38.07h37.43v12.54h-27.02l-2.77,13.99c2.14-.96,4.84-1.44,8.08-1.44,7.75,0,14.25,2.63,19.49,7.88,5.17,5.18,7.75,11.29,7.75,18.32,0,7.84-2.84,14.39-8.53,19.64-5.61,5.18-12.59,7.77-20.93,7.77-5.76,0-11-1.41-15.73-4.23-4.73-2.83-8.31-6.59-10.74-11.31"/>
  <path d="M210.83,353.51c.22,2.44.33,7.88.33,16.31s-.11,13.99-.33,16.43c-.82,6.81-3.81,12.47-8.97,16.98-5.17,4.51-11.34,6.77-18.5,6.77s-13.43-2.26-18.6-6.77c-5.09-4.51-8.05-10.17-8.86-16.98-.22-2.44-.33-7.91-.33-16.43s.11-13.87.33-16.31c.81-6.8,3.77-12.47,8.86-16.98,5.17-4.51,11.37-6.77,18.6-6.77s13.33,2.26,18.5,6.77c5.16,4.59,8.16,10.25,8.97,16.98M197.31,384.87c.08-.97.15-2.69.22-5.18.07-2.49.11-5.78.11-9.87s-.02-7.22-.06-9.64c-.04-2.41-.09-4.11-.17-5.07-.3-3.64-1.85-6.68-4.65-9.14-2.81-2.45-5.94-3.67-9.42-3.67s-6.79,1.22-9.52,3.67c-2.66,2.38-4.17,5.42-4.54,9.14-.07.97-.13,2.66-.17,5.07-.04,2.42-.05,5.63-.05,9.64s.03,7.38.11,9.87c.08,2.49.15,4.21.22,5.18.37,3.64,1.84,6.65,4.43,9.03,2.58,2.38,5.76,3.56,9.52,3.56s6.94-1.19,9.53-3.56c2.58-2.38,4.06-5.39,4.43-9.03"/>
  <polygon points="214.25 337.86 235.08 331.2 244.6 331.2 244.6 408.56 231.09 408.56 231.09 345.07 217.13 348.96 214.25 337.86"/>
  <path class="b" d="M250,304.5c-65.46,0-127.22-15.05-173.9-42.38C27.03,233.39,0,194.38,0,152.25S27.03,71.1,76.1,42.37C122.78,15.05,184.54,0,250,0s127.22,15.05,173.9,42.37c49.08,28.73,76.1,67.75,76.1,109.87s-27.03,81.15-76.1,109.87c-46.68,27.33-108.44,42.38-173.9,42.38"/>
  <path class="c" d="M108.42,59.29c36.99-22.5,85.53-35.23,137.2-36.06v-12.62C116.89,12.03,12.99,73.59,10.73,149.83h35.34c1.23-34.71,23.26-66.77,62.35-90.54"/>
  <path class="c" d="M455.84,149.83h33.63c-2.26-76.28-106.23-137.86-235.05-139.22v12.6c52.37.55,101.64,13.31,139.08,36.08,39.09,23.78,61.12,55.83,62.35,90.54"/>
  <path class="c" d="M393.5,246.52c-37.44,22.77-86.71,35.53-139.08,36.08v11.44c126.65-1.34,229.28-60.8,234.86-135.29h-33.58c-2.27,33.65-24.15,64.63-62.2,87.77"/>
  <path class="c" d="M46.12,158.75H10.83c5.57,74.46,108.12,133.9,234.69,135.29v-11.46c-51.67-.83-100.21-13.55-137.2-36.06-38.05-23.15-59.93-54.13-62.2-87.77"/>
  <polygon class="c" points="111.62 191.45 111.62 70.68 184.19 70.68 186.42 103.7 145.8 103.7 145.8 119.46 178.89 119.46 178.89 152.41 145.57 152.41 145.57 191.45 111.62 191.45"/>
  <polygon class="c" points="392.19 191.27 355.92 128.61 388.88 70.86 352.56 70.86 337.5 96.87 322.68 70.86 285.09 70.86 318.7 129.01 283.1 191.35 319.62 191.33 337.03 160.81 354.66 191.27 392.19 191.27"/>
  <path class="c" d="M185.49,131.22c0-32.43,25.71-58.72,57.42-58.72s57.42,26.29,57.42,58.72-25.71,58.72-57.42,58.72-57.42-26.29-57.42-58.72M253.24,155.33v-48.25c0-5.5-4.79-10.43-10.17-10.43s-9.73,4.93-9.73,10.43v48.11c-.01,5.51,4.35,9.97,9.73,9.97s10.17-4.33,10.17-9.83"/>
  <path class="c" d="M126.86,232.38c-8.13,0-17.78-1.73-18.14-9.88h14.35c.08.93.4,1.72.94,2.31.77.78,1.93,1.18,3.47,1.18,2.5,0,4.32-1.31,4.32-3.11,0-1.91-2.29-2.45-3.04-2.63l-11.31-2.69c-5.53-1.33-8-3.85-8-8.17,0-6.38,6.58-10.04,18.04-10.04s16.8,3.05,17.08,9.08h-13.36c-.23-1.78-1.55-2.68-3.94-2.68-3.06,0-4.14,1.21-4.14,2.34,0,1.66,1.54,2.16,2.97,2.51.92.21,2.07.44,3.29.69,2.94.59,6.59,1.33,9.43,2.29,4.7,1.57,6.98,4.2,6.98,8.05,0,9.35-11.85,10.74-18.92,10.74"/>
  <path class="c" d="M159.02,231.53v-31.32h22.95c8.64,0,13.79,3.78,13.79,10.11,0,6.67-5.69,10.35-16.03,10.35h-5.7v10.86h-15.01ZM174.03,214.28h1.24c2.64,0,6.15-.41,6.15-3.95,0-3.3-2.81-3.72-5.26-3.72h-2.13v7.68Z"/>
  <path class="c" d="M227.48,232.38c-12.91,0-20.32-6.02-20.32-16.51s7.4-16.51,20.32-16.51,20.33,6.02,20.33,16.51-7.41,16.51-20.33,16.51M227.48,206.82c-2.85,0-4.75,1.54-4.75,9.05s1.9,9.05,4.75,9.05,4.76-1.54,4.76-9.05-1.9-9.05-4.76-9.05"/>
  <polygon class="c" points="319.15 231.53 319.15 207.94 309.24 207.94 309.24 200.21 344.07 200.21 344.07 207.94 334.16 207.94 334.16 231.53 319.15 231.53"/>
  <path class="c" d="M372.79,232.38c-8.13,0-17.79-1.73-18.15-9.88h14.35c.08.94.4,1.72.95,2.31.76.78,1.92,1.18,3.45,1.18,2.5,0,4.31-1.31,4.31-3.11,0-1.92-2.28-2.45-3.03-2.63l-11.31-2.69c-5.53-1.32-8-3.84-8-8.17,0-6.38,6.57-10.04,18.03-10.04s16.8,3.05,17.08,9.08h-13.36c-.24-1.78-1.56-2.68-3.94-2.68-3.06,0-4.14,1.21-4.14,2.34,0,1.66,1.53,2.16,2.97,2.51.91.21,2.07.44,3.29.69,2.94.59,6.59,1.33,9.43,2.29,4.7,1.57,6.98,4.2,6.98,8.05,0,9.35-11.85,10.74-18.92,10.74"/>
  <path class="c" d="M126.86,232.38c-8.13,0-17.78-1.73-18.14-9.88h14.35c.08.93.4,1.72.94,2.31.77.78,1.93,1.18,3.47,1.18,2.5,0,4.32-1.31,4.32-3.11,0-1.91-2.29-2.45-3.04-2.63l-11.31-2.69c-5.53-1.33-8-3.85-8-8.17,0-6.38,6.58-10.04,18.04-10.04s16.8,3.05,17.08,9.08h-13.36c-.23-1.78-1.55-2.68-3.94-2.68-3.06,0-4.14,1.21-4.14,2.34,0,1.66,1.54,2.16,2.97,2.51.92.21,2.07.44,3.29.69,2.94.59,6.59,1.33,9.43,2.29,4.7,1.57,6.98,4.2,6.98,8.05,0,9.35-11.85,10.74-18.92,10.74"/>
  <path class="c" d="M159.02,231.53v-31.32h22.95c8.64,0,13.79,3.78,13.79,10.11,0,6.67-5.69,10.35-16.03,10.35h-5.7v10.86h-15.01ZM174.03,214.28h1.24c2.64,0,6.15-.41,6.15-3.95,0-3.3-2.81-3.72-5.26-3.72h-2.13v7.68Z"/>
  <path class="c" d="M227.48,232.38c-12.91,0-20.32-6.02-20.32-16.51s7.4-16.51,20.32-16.51,20.33,6.02,20.33,16.51-7.41,16.51-20.33,16.51M227.48,206.82c-2.85,0-4.75,1.54-4.75,9.05s1.9,9.05,4.75,9.05,4.76-1.54,4.76-9.05-1.9-9.05-4.76-9.05"/>
  <path class="c" d="M297.51,223.94c-.22-1.57-.42-2.93-.76-4-1.35-4.18-7.34-4.23-7.34-4.23v-.11s8.75-1.23,8.49-7.7c0-5.33-4.09-7.7-13.24-7.7h-23.33v31.32h14.67v-11.48h2.31c2.3,0,3.92.44,4.36,2.61.15.74.29,1.58.45,2.45.38,2.21.82,4.7,1.43,6.42h14.61c-.95-2.76-1.33-5.42-1.63-7.59M277.79,213.65h-1.8v-7.05h1.92c2.93,0,5.64.4,5.64,3.32,0,1.7-1,3.73-5.76,3.73"/>
  <polygon class="c" points="319.15 231.53 319.15 207.94 309.24 207.94 309.24 200.21 344.07 200.21 344.07 207.94 334.16 207.94 334.16 231.53 319.15 231.53"/>
  <path class="c" d="M372.79,232.38c-8.13,0-17.79-1.73-18.15-9.88h14.35c.08.94.4,1.72.95,2.31.76.78,1.92,1.18,3.45,1.18,2.5,0,4.31-1.31,4.31-3.11,0-1.92-2.28-2.45-3.03-2.63l-11.31-2.69c-5.53-1.32-8-3.84-8-8.17,0-6.38,6.57-10.04,18.03-10.04s16.8,3.05,17.08,9.08h-13.36c-.24-1.78-1.56-2.68-3.94-2.68-3.06,0-4.14,1.21-4.14,2.34,0,1.66,1.53,2.16,2.97,2.51.91.21,2.07.44,3.29.69,2.94.59,6.59,1.33,9.43,2.29,4.7,1.57,6.98,4.2,6.98,8.05,0,9.35-11.85,10.74-18.92,10.74"/>
</svg>