<svg xmlns="http://www.w3.org/2000/svg" xmlns:xlink="http://www.w3.org/1999/xlink" version="1.1" id="Layer_1" x="0px" y="0px" enable-background="new 0 0 500 500" xml:space="preserve" viewBox="58.6 216.6 382.7 66.8">
<g>
	<linearGradient id="SVGID_1_" gradientUnits="userSpaceOnUse" x1="58.6471" y1="250" x2="441.3529" y2="250">
		<stop offset="0" style="stop-color:#D70100"/>
		<stop offset="1" style="stop-color:#7E0001"/>
	</linearGradient>
	<rect x="58.6" y="216.6" fill="url(#SVGID_1_)" width="382.7" height="66.8"/>
	<g>
		<g>
			<path fill="#FFFFFF" d="M379.4,274.9c-0.9,0-1.7,0-2.6,0c0-16.6,0-33.1,0-49.7c0.9,0,1.7,0,2.6,0     C379.4,241.7,379.4,258.2,379.4,274.9z"/>
			<path fill="#FFFFFF" d="M225.9,232.5c4.1,0,8.4-0.2,12.4,0.6c6.6,1.2,10.7,5.8,11,12.4c0.3,4.9,0.3,14.2,0.3,21.4h-7.1     c0-6,0-15,0-18.8c-0.1-5.5-2.9-8.4-8.3-8.6c-2.4-0.1-4.7,0-7.5,0c0,0.9,0,1.6,0,2.3c0,6,0,16.9,0,25.1h-7.1     c0-6.5,0-14.8-0.1-18.9c-0.1-4.6-2.1-7.3-6.2-8.3c-0.1,0-0.2-0.1-0.3-0.1c-3,0-6,0-9.3,0c0,0.7,0,1.4,0,2.1c0,6,0,17,0,25.2h-7.1     c0-9.4,0-24.1,0-32.1c0-0.7,0-1.7,0-2.4h16.7c0,0,5.9-0.1,7.4,3.2C220.8,235.6,222,232.5,225.9,232.5z"/>
			<path fill="#FFFFFF" d="M327.8,245.2c-0.7-7.7-5.2-11.8-13-12.5c-4.7-0.5-9.5-0.3-14.2-0.4c-2.2,0-4.5,0-6.8,0     c0,9.9,0,23.6,0,34.6h6.9c0-8.8,0-19.9,0-27.3c4.7,0,9.1-0.2,13.6,0.1c3.7,0.2,6.4,2.9,6.6,6.6c0.3,5.2,0.3,14.4,0.3,20.7h6.8     C328.1,259.8,328.3,250.8,327.8,245.2z"/>
			<path fill="#FFFFFF" d="M281.3,232.5c0,6.9,0,16.5,0,22.3c0,3.6-1.4,5-5,5c-3.5,0-6.9,0-10.4,0c-3.8,0-5.1-1.4-5.1-5.2     c0-5.8,0-15.3,0-22.1h-7c0,7.7-0.1,17.7,0.1,24.1c0.2,6.2,3.9,9.7,10.1,10c4.2,0.2,8.3,0.2,12.5,0.2c1.2,0,2.4-0.1,3.5-0.4     c5.4-1.2,8.2-4.9,8.3-10.9c0.1-6.1,0-15.8,0-23.1H281.3z"/>
			<path fill="#FFFFFF" d="M149,255.8c0,3.1-1.2,4.5-4.4,4.6c-2.5,0.1-5,0.1-7.5,0c-2.6-0.1-3.9-1.1-4.4-3.3     c-0.1-0.5-0.1-1.2-0.2-2.4h-7c0,0.4,0,0.6,0,0.7c-0.2,5.4,2,10.9,8.8,11.7c4.2,0.5,8.4,0.5,12.6,0.2c4.4-0.3,7.6-2.7,8.8-7.2     c0.4-1.5,0.5-3.1,0.6-4.6c0.1-5.9,0-16,0-23H149C149,239.6,149,249.8,149,255.8z"/>
			<path fill="#FFFFFF" d="M366.4,241.6c-0.4-5.3-3.6-8.4-8.8-8.9c-5-0.4-10-0.6-15-0.3c-7,0.5-10.6,4.7-10.5,11.5l0,1.4h7.1v-1.4     c0.1-3.1,1.4-4.4,4.6-4.5c4-0.1,8,0,12,0c2,0,3.2,1,3.7,3.1c-0.5,0.2-0.8,0.3-1.1,0.4c-6.9,1.6-13.8,3-20.7,4.8     c-1.5,0.4-3.2,1.4-4,2.7c-2.2,3.5-2.2,7.4-0.5,11.1c1.6,3.4,4.7,4.9,8.2,5c5,0.2,10.1,0.2,15.2,0c5.6-0.2,9.4-3.5,9.8-9.1     C366.8,252.2,366.7,246.9,366.4,241.6z M359.4,256.5c-0.2,2-1.8,3.2-3.8,3.3c-4.2,0.1-8.3,0.3-12.5-0.1c-1.6-0.1-2.7-0.9-3.3-1.9     c-1.1-1.8-0.6-3.2-0.6-3.2s1.1-0.4,2.1-0.6c5.5-1.3,11-2.6,16.5-3.8c0.5-0.1,1-0.1,1.7-0.2C359.4,252.3,359.6,254.4,359.4,256.5z     "/>
			<path fill="#FFFFFF" d="M193.8,241.6c-0.4-5.3-3.6-8.4-8.8-8.9c-5-0.4-10-0.6-15-0.3c-7,0.5-10.6,4.7-10.5,11.5l0,1.4h7.1v-1.4     c0.1-3.1,1.4-4.4,4.6-4.5c4-0.1,8,0,12,0c2,0,3.2,1,3.7,3.1c-0.5,0.2-0.8,0.3-1.1,0.4c-6.9,1.6-13.8,3-20.7,4.8     c-1.5,0.4-3.2,1.4-4,2.7c-2.2,3.5-2.2,7.4-0.5,11.1c1.6,3.4,4.7,4.9,8.2,5c5,0.2,10.1,0.2,15.2,0c5.6-0.2,9.4-3.5,9.8-9.1     C194.2,252.2,194.1,246.9,193.8,241.6z M186.8,256.5c-0.2,2-1.8,3.2-3.8,3.3c-4.2,0.1-8.3,0.3-12.5-0.1c-1.6-0.1-2.7-0.9-3.3-1.9     c-1.1-1.8-0.6-3.2-0.6-3.2s1.1-0.4,2.1-0.6c5.5-1.3,11-2.6,16.5-3.8c0.5-0.1,1-0.1,1.7-0.2C186.8,252.3,187,254.4,186.8,256.5z"/>
			<path fill="#FFFFFF" d="M426.8,234.2c-0.3,0.6-0.5,1.1-0.6,1.4c-2.9,7.2-5.9,14.3-8.9,21.4c-0.2,0.5-0.5,1-0.8,1.8     c-0.4-1-0.7-1.5-1-2.1c-2.2-5.2-5-11.6-7.5-17.4l-2.1-5.2h-11c0-2.4,0-5.3,0-7.2c-1.9,0-3.5,0-5.3,0c0,2.3,0,4.9,0,7.2h-4.2v5.3     h4.3c0,4.7,0,11.8,0,16.3c0,5.3,2.5,8.9,7,9.8c2.1,0.4,4.5,0.6,7.1,0.4v-5.1c-1.1,0-2.6,0-2.9,0c-4.3-0.1-5.9-1.7-5.9-6     c0-2.8,0-11.2,0-15.4h7.4c3,7.1,7.1,16.3,9.8,23.2c0.4,0.9,0.8,2.2,1.4,3.6h5.7c0.3-0.8,0.5-1.4,0.7-1.8     c3.6-8.6,7.2-17.2,10.8-25.8c0.6-1.4,1.1-2.7,1.7-4.3H426.8z"/>
		</g>
		<g>
			<circle fill="#7E0001" cx="93.7" cy="250" r="26.2"/>
			<g>
				<g>
					<path fill="#FFFFFF" d="M116.7,258.9C116.8,258.8,116.7,259,116.7,258.9L116.7,258.9z"/>
					<path fill="#FFFFFF" d="M115.4,260.1C115.4,260.2,115.3,260.1,115.4,260.1L115.4,260.1z"/>
					<path fill="#FFFFFF" d="M117.7,259.3C117.8,259.3,117.7,259.4,117.7,259.3L117.7,259.3z"/>
					<path fill="#FFFFFF" d="M119.1,256.4L119.1,256.4C119.1,256.4,119.1,256.3,119.1,256.4C119.1,256.3,119.1,256.3,119.1,256.4z"/>
					<path fill="#FFFFFF" d="M118.5,255.1C118.5,255.2,118.5,255.2,118.5,255.1c0.1,0,0.2,0,0.2,0c0,0,0.1-0.1,0-0.1       c-0.1,0-0.1,0-0.1,0C118.6,255.1,118.5,255,118.5,255.1C118.4,255.1,118.4,255.1,118.5,255.1       C118.4,255.1,118.4,255.1,118.5,255.1z"/>
					<path fill="#FFFFFF" d="M118.8,256.5C118.7,256.5,118.8,256.5,118.8,256.5c-0.1-0.1-0.2-0.1-0.2-0.1c-0.1,0-0.2,0-0.2,0       c0,0,0,0,0-0.1c0,0,0,0-0.1-0.1c0,0-0.1,0-0.1,0c0,0,0.1,0-0.1-0.1c-0.1-0.1-0.3-0.2-0.3-0.2c0-0.1-0.1-0.1-0.1-0.1       c0,0-0.2-0.1-0.2-0.1c0,0-0.1-0.1-0.1-0.1c0,0-0.1,0-0.2-0.1c-0.1,0-0.2,0-0.2,0c0,0-0.2-0.1-0.2-0.1c0,0-0.1-0.1-0.1-0.1       c0,0-0.1,0-0.1,0v-0.1c0,0,0,0,0,0s0,0-0.1,0c0,0,0-0.1-0.1-0.1c-0.1,0-0.1,0-0.2,0c-0.1,0-0.1,0-0.2-0.1       c-0.1,0-0.1-0.1-0.1-0.1c-0.1,0-0.1,0-0.1,0c0,0-0.1,0-0.1-0.1c0,0-0.1,0-0.1,0c0,0,0-0.1-0.1-0.1c0,0,0,0-0.1,0       c0,0-0.1,0-0.1,0.1c0,0-0.1,0-0.1,0.1c0,0,0,0,0,0.1c0,0,0,0,0,0.1c-0.1,0.1-0.1,0.1-0.1,0.1c0,0,0,0-0.1,0c0,0-0.1,0-0.1,0       c0,0.1-0.1,0.1-0.1,0.1c0,0-0.1,0-0.1,0.1c0,0.1-0.1,0.1-0.1,0.1c0,0,0,0-0.1,0c-0.1,0-0.1,0-0.2,0c0,0,0,0,0-0.1       c0,0-0.1-0.1-0.1-0.1c0,0,0-0.1-0.1-0.1c0,0,0-0.1,0-0.1c0,0,0-0.1,0-0.1c0,0,0,0,0,0c0,0,0,0,0-0.1c0.1-0.1,0,0,0-0.1       c0-0.1,0-0.1,0-0.2c0-0.1-0.1,0-0.1,0c0,0-0.1,0-0.1,0s-0.1-0.1-0.1-0.1c0-0.1,0,0-0.1,0c0,0-0.1,0-0.2,0       c-0.1,0-0.1,0.1-0.1,0.1c0,0,0,0-0.1,0c0,0-0.1,0.1-0.1,0.1s0,0.1-0.1,0.1c0,0,0,0-0.1-0.1c-0.1-0.1-0.1,0-0.2,0       c-0.1,0,0,0,0,0.1c0,0,0.1,0.1,0.1,0.1s0,0.1,0.1,0.1c0,0,0,0,0.1,0c0.1,0,0.1,0,0.1,0c0,0,0,0,0.1,0c0,0,0,0.1,0,0.1       c0,0,0,0.1,0,0.1c0,0,0,0,0.1,0c0,0,0.1,0,0.1,0c0,0,0,0,0.1,0c0.1,0,0,0,0.1,0c0,0,0.1,0,0.1,0c0.1,0,0.1,0,0.1,0c0,0,0,0,0,0       c0,0,0,0,0,0c0,0,0,0-0.1,0c-0.1,0-0.1,0-0.1,0c0,0-0.1,0-0.1,0s-0.1,0-0.1,0.1c0,0,0,0.1-0.1,0.1c-0.1,0,0-0.1-0.1-0.1       c0,0-0.1-0.1-0.1,0c0,0.1-0.1,0.1,0,0.1c0,0,0,0,0.1,0.1c0,0,0,0,0.1,0c0,0,0,0,0,0.1c0,0,0,0.1,0,0.1c0,0,0,0,0,0.1       c0,0,0,0,0.1,0.1c0.1,0,0.1,0,0.1,0c0,0,0,0,0.1,0c0-0.1,0-0.1,0-0.1c0,0,0,0,0-0.1c0,0,0-0.1,0-0.1c0.1,0,0.1-0.1,0.1,0       c0,0.1,0,0.1,0,0.1c0,0.1,0,0.1,0,0.1c0,0,0,0,0.1,0c0,0,0,0,0.1,0c0,0,0,0,0.1,0c0,0,0.1,0,0.1,0c0,0,0,0,0,0.1c0,0,0,0,0,0.1       c0,0,0.1,0,0.1,0l0.1,0c0,0,0,0,0.1,0c0,0,0.1,0,0.2,0c0.1,0,0.1,0,0.1,0c0,0,0.1,0,0.1,0.1c0,0,0.1,0,0.1,0c0,0,0.1,0,0.1,0       c0,0,0.1,0,0.1,0c0,0,0.1,0,0.1,0.1c0,0,0,0.1,0.1,0.1c0,0,0,0.1,0,0.1c0.1,0.1,0.1,0.1,0.1,0.1c0,0,0.1,0.1,0.1,0.1       c0,0,0,0,0.1,0.1c0.1,0.1,0.1,0.1,0.1,0.1c0,0-0.1,0-0.1,0s0,0,0,0c0,0,0,0,0,0c0,0-0.1,0-0.1,0c0,0-0.1,0-0.1,0.1       c0,0,0,0,0,0.1c0,0.1-0.1,0.1-0.1,0.1c0,0.1,0,0.1,0,0.1c0,0,0.1,0,0.2,0c0.1,0,0.1,0,0.2,0c0,0,0.1,0,0.1,0c0,0,0.1-0.1,0-0.1       c0,0,0-0.1,0-0.1s0,0.1,0.1,0.1c0,0,0,0,0,0c0,0,0.1,0,0.1,0c0,0,0,0,0.1,0c0.1,0,0.1-0.1,0.1,0c0,0.1,0,0.1,0.1,0.1       c0,0,0.1,0.1,0.1,0.1c0,0,0.1,0.1,0.1,0.1c0,0,0,0,0,0c0,0,0,0,0.1,0l0,0.1c0,0,0.1,0,0.1,0c0,0,0.1,0,0.1,0l0.1,0       c0,0,0.1,0,0.1,0c0.1,0,0.1,0,0.2,0c0,0,0.1,0,0.1,0c0,0,0.1,0,0.1,0c0,0,0.1,0,0.1,0c0,0,0,0,0-0.1c0-0.1,0-0.1-0.1-0.1       c0,0-0.1,0-0.1,0s-0.1,0-0.1,0c-0.1-0.1-0.1-0.1-0.1-0.1s0.1,0,0.2,0c0.1,0,0.1,0,0.1,0c0,0,0.1,0,0.1,0c0,0,0.1,0,0.1-0.1       c0-0.1-0.1-0.1,0-0.1c0.1,0,0.1,0,0.1,0l0-0.1l0,0l0.1,0c0-0.1,0-0.1,0-0.1c0,0,0.1,0,0.1,0c0,0.1,0,0,0.1,0c0.1,0,0.1,0,0.1,0       c0,0,0.1,0,0.1,0c0,0,0.1,0,0.1,0c0.1,0.1,0.2,0.1,0.2,0.2c0,0,0,0.1,0,0.1c0,0,0.1,0,0.1,0.1c0,0.1,0,0.1,0.1,0.1       c0,0,0,0,0,0.1c0,0,0.1,0,0.1,0c0,0,0,0,0,0.1c0,0,0,0,0,0c0.1-0.2,0.1-0.4,0.2-0.6c0,0,0,0-0.1,0c0,0-0.1-0.1-0.1-0.1       c0,0,0-0.1,0-0.1c0,0-0.1,0-0.1-0.1c0-0.1,0-0.1,0-0.1c0,0-0.1-0.1,0.1,0c0.1,0,0.1,0,0.2,0c0,0,0,0,0-0.1       C118.9,256.6,118.9,256.6,118.8,256.5C118.8,256.6,118.8,256.5,118.8,256.5z"/>
					<path fill="#FFFFFF" d="M111.6,255.4c0,0-0.1,0-0.2,0c0,0,0,0-0.1,0c0,0-0.1,0-0.1,0c0,0,0,0,0,0.1c0,0,0,0.1,0.1,0.1       c0,0,0.1,0,0.1,0c0.1,0,0.1,0,0.1,0c0.1,0,0,0,0.1,0c0,0,0,0,0-0.1C111.7,255.5,111.7,255.5,111.6,255.4       C111.6,255.4,111.6,255.4,111.6,255.4z"/>
					<path fill="#FFFFFF" d="M113,255.7C113,255.6,113,255.6,113,255.7c0-0.1,0-0.1,0-0.2c0,0,0-0.1-0.1-0.1c0,0-0.1,0-0.2-0.1       c0,0-0.1,0-0.1,0s-0.1,0-0.1,0c0,0-0.1,0-0.1,0c0,0-0.1,0-0.1,0c0,0-0.1,0-0.1,0c0,0,0,0-0.1,0c0,0,0,0-0.1,0c-0.1,0,0,0,0,0       c0,0,0,0,0,0.1c0,0.1,0,0.1,0,0.1c0.1,0,0.1,0,0.1,0c0,0,0.1,0,0.1,0c0,0,0.1,0,0.1,0s0,0,0.1,0c0,0,0.1,0,0.1,0s0.1,0,0.2,0       c0,0,0.1,0,0.2,0.1C112.8,255.6,112.8,255.6,113,255.7C112.9,255.7,112.9,255.7,113,255.7z"/>
					<path fill="#FFFFFF" d="M114.2,256.1c0,0-0.1,0.2-0.1,0.3c-0.1,0.1,0,0,0,0.1c0,0,0,0.1,0,0.1c0,0.1,0,0.1,0,0.1       c0,0,0,0,0.1-0.1c0-0.1,0.1-0.1,0.1-0.2c0-0.1,0-0.1,0-0.2C114.3,256.2,114.3,256.1,114.2,256.1z"/>
					<path fill="#FFFFFF" d="M113.7,256.2c0,0,0,0-0.1,0c-0.1,0,0,0,0,0.1c0,0,0.1,0.1,0.1,0.1c0,0,0-0.1,0.1-0.1       C113.8,256.3,113.8,256.3,113.7,256.2C113.8,256.2,113.8,256.2,113.7,256.2C113.7,256.1,113.7,256.2,113.7,256.2z"/>
					<path fill="#FFFFFF" d="M113.3,256.8c0,0-0.1,0-0.2,0.1c0,0.1-0.1,0-0.1,0.1c0,0.1,0,0.1,0,0.1c0.1,0,0.1,0,0.1-0.1       c0-0.1,0-0.1,0-0.1c0,0,0,0,0.1-0.1C113.3,256.8,113.3,256.8,113.3,256.8C113.3,256.8,113.3,256.7,113.3,256.8z"/>
					<path fill="#FFFFFF" d="M113,257.2L113,257.2C112.9,257.2,112.8,257.2,113,257.2C113,257.2,112.9,257.3,113,257.2       C113.1,257.2,113.1,257.2,113,257.2C113.1,257.1,113,257.2,113,257.2z"/>
					<path fill="#FFFFFF" d="M111.9,254.2C111.8,254.3,111.8,254.2,111.9,254.2c0,0.2,0,0.2,0.1,0.3c0.1,0.1,0.1,0.1,0.1,0.1       s-0.1-0.1-0.1-0.2C112,254.3,111.9,254.3,111.9,254.2c0.1-0.1,0.2-0.1,0.2-0.1c0.1,0.1,0.1,0.1,0.1,0.1c0,0,0.1,0,0-0.1       c0,0-0.1-0.1-0.1-0.1c0-0.1,0-0.1,0-0.2c0.1,0,0.1-0.1,0-0.1c-0.1,0-0.1-0.1-0.1,0c0,0,0-0.1-0.1,0c0,0.1-0.1,0.2-0.1,0.1       c0,0,0-0.1,0.1-0.1c0-0.1,0-0.1,0-0.1c-0.1,0-0.2,0.1-0.2,0.2c0,0.1-0.1,0,0,0.1c0.1,0.1,0.1,0.1,0.1,0.2       C111.9,254.2,111.9,254.2,111.9,254.2z"/>
					<path fill="#FFFFFF" d="M112,253.4c-0.1,0,0,0.2,0,0.2c0,0,0.1-0.1,0.1-0.2C112.1,253.3,112.1,253.4,112,253.4z"/>
					<path fill="#FFFFFF" d="M112,254.9C112,254.8,111.9,254.8,112,254.9c-0.1-0.1-0.2-0.1-0.2,0c0,0.1,0,0.1,0.1,0.1       C111.9,254.9,111.9,255,112,254.9C112,254.9,112,255,112,254.9z"/>
					<path fill="#FFFFFF" d="M113.1,254.3c-0.1-0.1-0.1-0.1-0.2-0.1c-0.1,0-0.2,0.1-0.1,0.1c0.1,0,0.2,0.1,0.3,0.1       C113.1,254.4,113.2,254.4,113.1,254.3z"/>
					<path fill="#FFFFFF" d="M114.6,254.6c-0.1,0,0,0.1,0.1,0.1c0.1,0,0.1,0.1,0.1,0c0.1-0.1,0-0.1,0-0.1       C114.7,254.5,114.7,254.5,114.6,254.6z"/>
					<path fill="#FFFFFF" d="M112.6,255c0.1,0,0.2,0,0.2,0c0.1,0,0-0.1-0.1-0.1C112.6,255,112.5,255,112.6,255z"/>
					<path fill="#FFFFFF" d="M82.5,260.7C82.5,260.6,82.5,260.7,82.5,260.7L82.5,260.7z"/>
					<path fill="#FFFFFF" d="M84.7,259.5c0-0.1-0.1-0.2-0.1-0.2c0,0,0-0.1,0-0.2c0,0,0-0.1,0-0.1c0,0,0-0.1,0-0.1s0-0.1,0-0.1       c0,0,0-0.1-0.1-0.1c0,0-0.1,0-0.1,0c0,0-0.1,0-0.1,0l-0.1,0.1c0,0-0.1,0,0,0.1c0,0,0,0.1,0,0.1s0,0,0,0.1c0,0-0.1,0-0.1,0.1       c-0.1,0.1-0.1,0.1-0.1,0.1c-0.1,0-0.1,0-0.1,0c0,0,0,0,0,0.1c0,0,0,0,0,0s0,0,0,0c0,0.1,0,0.1,0,0.1l0,0.1c-0.1,0-0.2,0-0.2,0       c0,0.1,0,0.1,0,0.1c0,0.1-0.1,0-0.1,0c-0.1,0-0.1,0-0.1,0c-0.1,0.1-0.1,0.1-0.1,0.1s0,0,0,0.1l-0.1,0l-0.1,0l-0.1,0       c0,0-0.1,0-0.1,0c0,0-0.1,0-0.1,0.1c0,0-0.1-0.1-0.1,0c-0.1,0.1-0.1,0.1-0.1,0.1c0,0.1-0.1,0.1-0.1,0.2c0,0,0,0,0,0.1       c0,0,0,0,0,0.1c0,0,0,0,0,0.1c0,0.1,0,0.1,0,0.1c0,0,0,0,0,0c0,0,0,0,0,0.1c0,0.2,0,0.3,0,0.3s0,0,0,0.1c0,0,0,0,0,0.1       c0,0.1,0-0.1,0,0.1c0,0.1,0,0.1,0,0.2c0,0,0,0,0,0.1c0,0.1,0,0.1-0.1,0.1c0,0-0.1,0-0.1,0.1c0,0.1,0,0,0,0.1c0,0,0,0,0,0       s-0.1,0-0.1,0c0,0,0,0.1,0,0.1c0,0.1,0,0.1,0,0.1c0,0.1,0.1,0.1,0.1,0.1c-0.1,0-0.1,0-0.1,0.1c0,0,0,0,0,0.1c0,0-0.1,0,0,0.1       c0.1,0.1,0.1,0.1,0.1,0.2c0,0,0-0.1,0,0.1c0,0.2,0,0.2,0,0.2s0,0,0,0.1c0,0,0,0,0.1,0c0,0,0.1,0.1,0.1,0.1l0.1,0.1l0.1,0       l0.1,0.1l0,0l0.1,0l0.1,0l0.1,0l0.1,0l0.1-0.1l0.1,0c0,0,0.1,0,0.1,0h0.1c0.1-0.1,0.1-0.1,0.1-0.1l0.1-0.1c0,0,0-0.1,0.1-0.1       c0,0,0-0.1,0-0.1s0,0,0.1-0.1c0-0.1,0-0.1,0-0.1s0-0.1,0-0.1c0,0,0-0.1,0-0.1l0-0.1c0,0,0.1-0.1,0.1-0.1c0,0,0-0.1,0-0.1       s0-0.1,0-0.1c0,0,0-0.1,0.1-0.1c0,0,0-0.1,0.1-0.1c0,0,0-0.1,0-0.1s0-0.1,0.1-0.1c0,0,0-0.1,0-0.1s0.1-0.1,0.1-0.2       c0,0,0-0.1,0-0.2c0,0,0.1-0.2,0.1-0.2s0-0.1,0-0.1s0-0.2,0-0.2c0,0,0-0.1,0-0.1c0,0,0-0.2,0-0.2c0,0,0.1-0.1,0.1-0.1l0-0.2       l-0.1-0.1c0,0,0-0.1,0-0.1c0,0,0-0.1,0-0.1c0,0,0,0.1,0,0.1c0.1,0,0.1,0,0.1,0s0,0,0-0.1c0,0,0.1,0,0-0.1       C84.8,259.7,84.7,259.5,84.7,259.5z"/>
					<path fill="#FFFFFF" d="M82.3,262.1C82.2,262,82.3,262.1,82.3,262.1L82.3,262.1z"/>
					<path fill="#FFFFFF" d="M70.2,239.9c0.1,0.1,0.2-0.1,0.2-0.1c0.1-0.1,0.1,0,0.2-0.1c0-0.1,0-0.2,0-0.3c0-0.2,0-0.3-0.2-0.3       l0.1-0.1v0c0,0-0.1-0.1-0.1-0.1c-0.1,0.1-0.3,0.1-0.3,0.2c-0.1,0.2,0.2,0.4,0.1,0.6C70.2,239.8,70.1,239.9,70.2,239.9z"/>
					<path fill="#FFFFFF" d="M70.5,238.6c0-0.1,0.1-0.2,0-0.2c-0.1,0-0.2,0.1-0.2,0.1c-0.2-0.1-0.1,0.1-0.1,0.2       c0,0.1,0.1,0.2,0.1,0.2c0,0,0,0,0,0C70.5,238.8,70.5,238.8,70.5,238.6z"/>
					<path fill="#FFFFFF" d="M71.5,240.5c0.2,0,0.3,0.1,0.4,0.2c0.1,0.1,0.2,0.2,0.4,0.2c0,0,0.2,0.1,0.2,0c0.1-0.1,0-0.2,0-0.2       c0-0.2,0.1-0.2,0.1-0.4c-0.2-0.1-0.3,0.1-0.4,0.1c-0.2,0-0.3-0.1-0.4-0.1h0.1C71.7,240.2,71.5,240.3,71.5,240.5z"/>
					<path fill="#FFFFFF" d="M100.5,248.7C100.5,248.6,100.5,248.6,100.5,248.7c0.1-0.1,0.2-0.1,0.2-0.1c0,0,0.1-0.1,0.1-0.2       c0,0,0.1,0,0.1-0.1c0,0,0.1-0.1,0.1-0.1c0,0,0,0.1,0,0.1c0,0,0.1,0.1,0.1,0.1c0,0,0.1,0,0.1,0.1c0,0.1,0,0.1,0,0.1       c0,0,0,0.1,0,0.2c0,0,0,0.1,0.1,0.1c0,0,0,0.1,0,0.1c0,0,0,0.1,0,0.1s0,0,0.1,0.1c0,0,0.1,0.1,0.1,0.2c0,0.1,0,0.1,0,0.1       s0,0,0.1,0.1c0,0,0,0.1,0,0.1c0,0,0,0.1,0,0.1c0,0,0,0.1,0,0.1c0,0,0,0,0,0c0,0,0,0.1,0,0.1c0,0,0,0,0.1,0c0,0,0,0.2,0,0.3       c0,0.1,0,0,0,0.1c0,0,0,0.1,0,0.1s0,0,0,0c0,0,0,0,0,0c0,0,0,0.1,0,0.1s-0.1,0.1-0.1,0.1c0,0,0,0.1,0,0.1c0,0,0,0.1,0,0.1       c0,0,0,0.1,0,0.1c0,0,0,0.1-0.1,0.2c0,0,0,0,0.1,0c0,0,0.1,0,0.1,0c0,0,0,0.1,0,0.1s0.1,0.1,0.1,0.1c0,0,0.1,0.1,0.1,0.1       c0,0,0,0.1,0,0.1c0,0,0.1,0.1,0.1,0.1c0,0,0.1,0.1,0.1,0.1c0,0,0,0,0,0c0,0-0.1,0-0.1,0c0,0,0.1,0,0.1,0.1c0,0,0.1,0,0.1,0       s0,0,0.1,0c0,0,0,0.1,0,0.1c0,0.1,0,0.1,0,0.2c0,0,0,0.1,0,0.1c0,0,0,0.1,0,0.2c0,0.1,0,0.1,0,0.1c0,0,0.1,0.1,0.1,0.1       c0,0,0.1,0.2,0.1,0.2c0,0,0.1,0.1,0.1,0.1c0,0,0.1,0.1,0.1,0.1c0,0,0.1,0.1,0.1,0.1c0,0,0.2,0.2,0.2,0.2c0,0,0.1,0.1,0.1,0.1       l0.2,0.1l0.1,0.1c0,0,0.1,0,0.1-0.1c0-0.1,0-0.1,0-0.1c0,0,0-0.1-0.1-0.1c0,0-0.1-0.1-0.1-0.1c0,0,0-0.1,0-0.2       c0-0.1-0.1-0.1-0.1-0.1c-0.1-0.1,0-0.1,0-0.2c0-0.1,0-0.1,0-0.2c0-0.1,0-0.1,0-0.2c0-0.1-0.1-0.1-0.1-0.1c0,0-0.1-0.1-0.1-0.2       c0,0-0.1-0.1-0.1-0.1c0,0-0.1-0.1-0.1-0.1c0,0-0.1,0-0.1,0c0,0,0,0,0,0c0,0,0,0,0-0.1c0-0.1-0.1-0.1-0.1-0.1       c0,0-0.1-0.1-0.1-0.1s0,0-0.1,0c0,0,0,0-0.1,0c0,0,0,0-0.1,0c0,0,0,0,0,0c0,0-0.1,0-0.1-0.1c0,0,0-0.1,0-0.1c0,0,0,0,0-0.1       c0,0,0-0.1,0-0.1c0,0,0,0,0-0.1c0-0.1-0.1,0-0.1-0.1c0,0,0,0,0-0.1c0,0,0-0.1-0.1-0.1c0,0,0,0,0-0.1c0,0,0,0,0-0.1c0,0,0,0,0,0       c0,0,0,0-0.1,0c0,0,0-0.1,0-0.1c0,0,0-0.1,0-0.1c0,0,0-0.1,0-0.2c0,0,0.2-0.4,0.2-0.4c0,0,0-0.1,0.1-0.1c0,0,0-0.1,0-0.1       c0,0,0-0.1,0-0.2c0-0.1,0-0.1,0-0.2c0-0.1,0.1,0,0.1,0c0,0,0.1,0,0.1,0c0,0,0.1,0,0,0.1c0,0,0,0.1,0,0.1c0,0,0,0.1,0,0.1       c0,0,0.2,0,0.2,0c0,0,0.1,0,0.1,0c0,0,0.1,0,0.1,0.1c0,0,0.1,0.1,0.1,0.1c0,0,0,0,0.1,0c0,0,0,0.1,0,0.1c0,0,0.1,0.1,0.1,0.1       c0,0,0,0.1,0,0.1c0,0,0.1,0.1,0.1,0.1c0,0,0.1,0.1,0.1,0.1c0,0,0,0.1,0,0.1s0.1,0,0.1-0.1c0,0,0,0,0.1,0c0,0,0,0,0.1,0       c0,0,0,0,0.1,0c0,0,0,0,0.1,0.1c0,0,0,0,0.1,0.1c0,0,0,0,0,0.1c0,0,0,0.1-0.1,0.1c0,0.1,0,0.2,0,0.2c0,0,0,0,0.1,0       c0,0,0.1,0,0.1-0.1c0,0,0.1-0.1,0.1-0.1c0,0,0.1,0,0.2-0.1c0.1-0.1,0.1-0.1,0.1-0.1s0,0,0.1,0c0.1,0,0,0,0-0.1       c0-0.1-0.1-0.1-0.1-0.1c0-0.1,0,0,0,0s0,0,0.1-0.1c0-0.1,0,0,0.1-0.1c0.1-0.1,0,0,0,0.1c0,0,0,0,0.1,0c0,0,0.1,0,0.2-0.1       c0.1,0,0.1,0,0.2-0.1c0-0.1,0.1,0,0.1-0.1c0.1-0.1,0.1-0.1,0.2-0.2c0-0.1,0-0.1,0-0.1c0,0,0-0.1,0-0.1c0,0,0.1-0.1,0.1-0.2       c0-0.1,0,0,0-0.1c0,0,0-0.1-0.1-0.1c-0.1,0,0,0,0-0.1c0-0.1,0-0.1,0-0.2c0-0.1,0-0.1-0.1-0.2c0-0.1,0-0.1,0-0.1       c0-0.1-0.1-0.1-0.1-0.2c0,0-0.3-0.3-0.3-0.3c0,0-0.1,0-0.1,0s-0.1-0.1-0.1-0.1c0,0,0,0,0-0.1c0-0.1,0,0-0.1-0.1       c-0.1-0.1-0.1-0.1,0-0.1c0,0,0,0,0-0.1c0-0.1-0.1,0-0.1-0.1c0,0,0,0,0-0.1c0,0,0,0,0-0.1c0,0,0,0-0.1-0.1c0,0,0,0,0-0.1       c0,0,0-0.1,0-0.1c0,0,0-0.1,0-0.2c0-0.1,0.1-0.1,0.1-0.1c0,0,0.1-0.1,0.2-0.1c0,0,0-0.1,0-0.1c0,0,0,0,0-0.1c0,0,0.1,0,0.1-0.1       c0,0,0.1,0,0.1,0c0.1,0,0.1,0,0.1,0c0,0,0.1-0.1,0.1-0.1c0,0,0.1,0,0.1,0c0,0,0,0,0,0c0,0,0.1,0,0.1-0.1c0,0,0.1-0.1,0.1-0.1       l0,0.1l0.1,0c0,0,0.1,0.1,0.1,0c0,0,0.1,0,0.1,0c0,0,0-0.1,0-0.1c0,0,0.1,0.1,0.1,0.1c0,0,0,0.2,0,0.2c0,0,0,0.1,0,0.1l0.1,0.1       c0,0,0.1,0,0.1,0c0,0,0,0,0-0.1c0,0,0-0.1-0.1-0.1c0-0.1,0,0,0.1-0.1c0,0,0-0.1,0.1-0.1c0,0,0,0,0.1,0c0,0,0.1,0,0.1,0       c0,0,0.1,0,0.1-0.1c0-0.1,0.1,0,0.1,0c0,0,0.1,0,0.1,0c0,0,0,0,0.1,0c0,0,0.1,0,0.1,0c0,0,0,0,0.1-0.1c0,0,0.1,0,0.1,0       c0,0,0.1,0,0.2,0c0.1,0,0.1-0.1,0.1-0.2c0,0,0.1,0,0.1,0c0.1,0,0.1,0,0.1,0c0,0,0.1-0.1,0.1-0.1c0,0,0.1,0,0.2,0       c0.1,0,0.1,0,0.2,0c0.1,0,0.1,0,0.1-0.1c0.1-0.1,0.1-0.1,0.1-0.2c0.1-0.1,0.1-0.1,0.2-0.1c0.1,0,0.1,0,0.1-0.1       c0,0,0.1,0,0.1-0.1c0,0,0-0.1,0-0.1c0,0,0,0,0-0.1c0,0,0.1,0,0.1-0.1c0.1,0,0,0,0.1,0c0,0,0.1,0,0.1-0.1c0,0,0.1-0.1,0.1-0.1       c0,0,0.1,0,0.1,0c0,0,0,0,0-0.1c0,0,0-0.1-0.1-0.1c0,0,0,0,0.1,0c0,0,0.1,0,0.1-0.1c0,0,0,0,0-0.1c0,0,0.1,0,0.1,0       c0,0,0-0.1,0-0.1c0-0.1,0-0.1,0.1-0.1c0.1,0,0.1,0,0.1-0.1c0,0,0-0.1,0-0.1c0,0,0-0.1,0.1-0.1c0,0,0.1,0,0.2-0.1       c0.1,0,0-0.1,0.1-0.1c0,0,0.1-0.2,0-0.2c0,0,0-0.1,0-0.1c0,0,0.1-0.3,0.1-0.3c0,0-0.1,0-0.1,0c0,0-0.1,0-0.1,0       c0-0.1,0-0.1-0.1-0.1c0,0,0,0-0.1,0c-0.1,0-0.1,0,0,0c0-0.1,0.1,0,0.1-0.1c0,0,0.1-0.1,0.1-0.1c0,0,0.1,0,0.1-0.1       c0,0,0-0.1-0.1-0.1c0,0,0-0.1-0.1-0.2c0-0.1,0.1,0,0.1,0c0,0,0-0.1,0-0.1c0,0-0.1-0.1-0.1-0.1c0,0-0.1-0.1-0.1-0.1       c0,0-0.1,0-0.1-0.1c0-0.1,0-0.1-0.1-0.1c0-0.1-0.1-0.1-0.1-0.1c0-0.1,0-0.1,0-0.1c0-0.1-0.1-0.2-0.1-0.2c0,0-0.1-0.1-0.2-0.2       c-0.1,0,0,0-0.1,0c-0.1,0,0-0.1,0-0.1c0,0,0,0,0-0.1c0,0,0.1-0.1,0.1-0.1c0,0,0-0.1,0.1-0.1c0,0,0.1-0.1,0.1-0.1       c0,0,0.1,0,0.1-0.1c0.1-0.1,0,0,0.1-0.1c0,0,0.1-0.1,0.2-0.1c0.1,0,0.1,0,0.2,0c0.1,0,0.1,0,0.1-0.1c0.1,0,0-0.1,0-0.1       c0,0,0,0-0.1,0c-0.1,0-0.1,0-0.2,0c-0.1,0-0.1,0-0.1,0c0,0-0.1-0.1-0.1-0.1c0,0,0-0.1-0.1-0.1c0,0-0.1,0-0.1,0       c0,0-0.1,0-0.1,0.1c0,0-0.2,0.1-0.2,0.1c0,0.1-0.2,0.1-0.2,0.1s-0.1,0-0.1-0.1c0-0.1,0-0.1,0-0.2c0,0,0-0.1,0-0.1       c0,0,0-0.1-0.1-0.1c0,0-0.1,0-0.1,0c0,0,0,0-0.1,0c0,0-0.1,0-0.1-0.1c0,0-0.1-0.1-0.1-0.1c0-0.1,0-0.1,0-0.1c0,0,0.1,0,0.1,0       c0,0,0.2,0,0.2,0c0,0,0.1,0,0.1-0.1c0-0.1,0-0.1,0.1-0.1c0,0,0.1-0.1,0.1-0.1c0,0,0.1-0.1,0.1-0.1c0,0,0.1,0,0.1,0       c0,0,0.1,0,0.1-0.1c0-0.1,0.1-0.1,0.2-0.1c0,0,0.2,0,0.2,0c0.1,0,0,0,0.1,0c0,0,0.1,0.1,0.1,0.1c0,0,0,0,0,0.1       c0,0,0,0.1-0.1,0.1c0,0-0.1,0.1-0.1,0.1c0,0-0.1,0.1-0.1,0.1s0.1,0,0.1,0c0,0,0,0,0,0c0,0-0.1,0.1-0.1,0.1c0,0-0.1,0.1-0.1,0.1       s0.1,0,0.2,0c0.1-0.1,0.1,0,0.1-0.1c0,0,0.1-0.1,0.2-0.1c0.1-0.1,0.2-0.1,0.2-0.1c0.1,0,0.1,0,0.1,0c0,0,0.2-0.1,0.3-0.1       c0,0,0,0,0.1,0c0,0,0,0,0.1,0c0.1,0,0.2,0,0.2,0c0,0,0.1,0.1,0.1,0.1c0,0,0,0.2,0,0.2c0,0,0,0.1-0.1,0.1c0,0,0,0.2,0,0.2       c0,0.1,0.2,0.1,0.2,0.1c0,0,0,0,0.1,0c0,0,0.1,0,0.1-0.1c0.1,0,0.1,0,0.2,0c0,0,0,0.1,0,0.1c0,0,0,0,0,0c0,0,0.1,0.1,0.1,0.1       c0,0,0,0.2,0,0.2c0,0-0.2,0-0.2,0s0.2,0.2,0.1,0.2c-0.1,0,0,0,0,0l0.1,0.2c0,0,0,0.2-0.1,0.2c0,0-0.2,0.2-0.2,0.2       c0,0,0,0.1,0,0.2c0,0,0.1,0,0.1,0c0,0,0.2-0.2,0.2-0.2l0,0.2l0.2-0.1l0.1,0c0,0,0.1,0,0.1,0c0,0,0.1-0.1,0.1-0.1       c0,0,0.1,0,0.1,0c0,0,0.1,0,0.1,0c0,0,0.1,0,0.1-0.1c0-0.1,0.1-0.1,0.2-0.1c0,0,0.1,0,0.1,0l-0.1-0.1c0,0,0-0.1,0-0.1       c0,0-0.1-0.1-0.1-0.1c0,0,0-0.1,0-0.1c0,0-0.1-0.3-0.1-0.4c0,0,0-0.1,0-0.1c0,0-0.1-0.1-0.1-0.1c0,0-0.2-0.1-0.2-0.1       c0,0,0-0.1,0-0.1c0,0,0,0,0,0c0,0-0.1,0-0.1,0s-0.1-0.1-0.1-0.1c0,0-0.1-0.2-0.1-0.2c0,0,0-0.1,0.1-0.1c0,0,0-0.1,0.1-0.2       c0-0.1,0.1-0.1,0.2-0.1c0,0,0.2-0.1,0.2-0.1c0.1,0,0.2-0.1,0.2-0.1c0,0,0.1-0.4,0.1-0.4c0,0,0-0.1,0.1-0.1       c0-0.1,0.1-0.1,0.2-0.2c0,0,0,0,0.1,0c0,0,0.1,0,0.1,0c0,0,0.1-0.1,0.1-0.1c0,0,0.2-0.2,0.2-0.2c0.1,0,0,0.1,0.1,0.1       c0,0,0,0,0.1-0.1c0,0,0,0.1,0.2,0.1c0.1,0.1,0.2,0.1,0.2,0.1c0.1,0,0.2-0.1,0.2-0.1s0.1,0,0.1-0.1c0,0,0.2-0.1,0.2-0.2       c0-0.1,0.1-0.1,0.2-0.2c0-0.1,0.1-0.1,0.2-0.2c0.1-0.1,0.3-0.3,0.3-0.3s0.1-0.1,0.1-0.2c0,0,0.3-0.3,0.3-0.3c0,0,0-0.1,0-0.1       c0-0.1,0.1-0.1,0.1-0.2c0,0,0-0.1,0.1-0.2c0.1-0.1,0-0.1,0.1-0.1c0,0,0.1-0.1,0.1-0.1s0.1-0.1,0.1-0.2       c-4.6-7.3-12.6-12.1-21.8-12.3c0,0,0.1,0,0.1,0.1c0.1,0.1,0,0,0.1,0c0.1,0,0.1,0,0.1,0c0,0,0,0.1,0.1,0.1c0,0,0.1,0.1,0.1,0.1       l-0.1,0c0,0-0.1,0-0.1,0c0,0-0.1,0-0.1-0.1c0,0,0,0-0.1-0.1c0,0-0.1,0-0.1,0c0,0-0.3,0-0.3,0c0,0-0.1,0-0.1,0l-0.1,0       c0,0-0.1,0-0.1,0c0,0-0.1,0-0.1,0c0,0,0,0,0,0c-0.3,0-0.6,0-0.8,0c0,0,0,0,0,0c0,0,0,0,0.1,0c0,0,0.1,0,0.1,0l0,0.1       c0,0,0.1,0.2,0.2,0.2c0,0,0.1,0.1,0.1,0.1c0,0,0,0.1,0,0.1c0,0-0.1,0.1-0.1,0.1c0,0-0.1,0.1-0.1,0.1c-0.1,0.1,0,0.1,0,0.2       c0,0.1,0,0.1,0.1,0.1c0,0,0,0.1,0,0.1c0,0.1,0,0.1,0,0.2c0,0,0.1,0,0.1,0c0,0,0.1,0,0.1,0c0,0,0.1,0.1,0.2,0.1c0.1,0,0,0,0.1,0       c0,0,0,0,0.1,0c0,0,0,0,0.1,0c0,0,0.1,0,0.2,0c0,0,0.1,0,0.1,0c0.1,0,0.1,0,0.1,0c0,0,0.1,0,0.1,0.1c0,0,0.1,0,0.1,0.1       c0,0,0.1,0.1,0.1,0.1c0,0,0.1,0,0.1,0.1c0,0.1,0.1,0.1,0.1,0.1c0,0,0,0.1,0,0.1c0,0-0.1,0-0.1,0c-0.1,0,0,0.1-0.1,0.1       c0,0,0,0,0,0.1c0,0.1,0,0,0.1,0c0,0,0.1,0.1,0.1,0.1c0,0,0.1,0,0.1,0s0.1,0,0.2,0c0,0,0,0-0.1,0c0,0-0.1,0-0.2,0c0,0,0,0-0.1,0       c0,0-0.1,0-0.2-0.1c-0.1,0,0,0-0.1-0.1c-0.1-0.1,0,0,0-0.1c0-0.1,0,0,0-0.1c0-0.1,0-0.1,0-0.1c0,0,0-0.1,0-0.1       c0-0.1-0.1-0.1-0.1-0.1c0,0-0.1,0-0.1-0.1c0-0.1,0,0-0.1-0.1c0,0-0.1,0.1-0.1,0c0,0-0.1,0-0.1,0c0,0-0.1,0-0.2,0       c0,0-0.1,0-0.2,0c-0.1,0-0.1,0-0.1,0.1c0,0-0.1,0.2-0.1,0.2c0,0,0,0.1,0,0.1c0,0,0,0.1,0.1,0.2c0,0.1,0,0.1,0,0.1       c0,0,0,0.1,0,0.1c0,0,0,0-0.1,0.1c0,0,0,0-0.1,0.1c-0.1,0.1-0.1,0.1-0.1,0.1c0,0,0,0.1-0.1,0.1c0,0.1-0.2,0.1-0.2,0.1       c0,0-0.1,0.1-0.2,0.1c-0.1,0,0,0.1,0,0.1c0,0-0.1,0.1-0.1,0.1c0,0,0,0-0.1,0c-0.1,0-0.1,0-0.1,0c0,0-0.1-0.1-0.1-0.1       c0,0-0.1,0-0.1,0c0,0-0.1,0-0.1,0c0,0-0.1,0-0.1,0c0,0-0.1,0-0.1,0c0,0-0.1,0-0.1,0s-0.2,0-0.2-0.1c0,0-0.1-0.1-0.1-0.1       c0,0,0,0,0.1,0c0,0,0,0,0.1,0c0,0,0.1,0,0.1,0c0,0,0.1,0,0.2,0c0,0,0.1,0,0.1,0c0,0,0.1,0,0.2-0.1c0.1,0,0.1,0,0.1,0       c0,0,0.1,0,0.1,0c0,0,0.1,0,0.1,0c0,0,0.1,0,0.1-0.1c0-0.1,0-0.1,0-0.1c0,0,0.1,0,0.1-0.1c0-0.1,0.1,0,0.1-0.1c0,0,0.1,0,0.1,0       s0.1,0,0.1-0.1c0,0,0-0.1,0-0.2c0-0.1,0-0.1,0-0.2c0,0,0,0,0.1-0.1c0,0,0.1-0.1,0-0.1c0,0-0.1-0.1-0.1-0.1c0,0-0.1-0.1-0.2-0.1       c0,0-0.1-0.1-0.1-0.1c0-0.1,0.1-0.2,0.1-0.2c0,0,0-0.1,0-0.1c0,0,0-0.1,0-0.1c0,0,0,0,0-0.1c0,0,0-0.1,0-0.1c0,0,0-0.1,0-0.1       c0,0,0,0,0,0c0,0,0,0,0-0.1c0,0,0-0.1,0-0.1s0.1-0.2,0.1-0.2c0,0-0.1-0.1-0.1-0.2c0,0-0.1,0-0.1-0.1c0,0,0,0,0-0.1       c-0.6,0-1.3,0.1-1.9,0.2c0,0,0,0-0.1,0.1c-0.1,0.1,0,0.1,0,0.1c0,0,0.1,0,0.2,0c0,0,0.1,0,0.1,0c0,0,0,0.3,0,0.3s0,0.1,0,0.1       c0,0,0,0.1,0,0.1c0,0,0,0.1,0,0.1c0,0-0.1,0.2,0,0.1c0.1,0,0.1,0,0.1,0c0,0,0.1,0,0.1,0c0,0,0.1,0,0.1,0c0,0,0,0.1,0.1,0.1       c0,0,0,0.1,0,0.1c0,0,0,0.1,0.1,0.1c0.1,0,0,0,0.1,0c0,0,0.1,0,0.1,0.1c0,0,0,0.1,0,0.1c0,0-0.1,0.1-0.1,0.1       c0,0-0.1,0.1-0.1,0.1l-0.1,0c0,0-0.1-0.1-0.1-0.1c0,0-0.1-0.1-0.1-0.1c0,0-0.3-0.2-0.4-0.3c-0.1-0.1-0.1,0-0.1,0       c0,0-0.2,0-0.2,0c-0.1,0-0.1,0-0.1-0.1c0,0-0.1,0-0.1-0.1c0,0,0,0,0,0c0,0,0,0,0,0c0,0,0,0-0.1-0.1c0,0-0.1,0-0.1,0       c0,0-0.1,0-0.1-0.1c0,0-0.1,0-0.1,0c0,0-0.1,0-0.1-0.1c0,0-0.1,0-0.1,0c0,0-0.5-0.1-0.5-0.1c0,0-0.2,0-0.2,0l-0.3-0.1       c0,0-0.1-0.1-0.1-0.1c0,0-0.1-0.1-0.1-0.1c-0.1,0-0.2,0.1-0.4,0.1c0,0,0,0.1,0,0.1c0,0,0,0,0,0s0,0,0.1,0c0,0,0,0,0.1,0.1       c0.1,0,0.1,0.1,0.1,0c0,0,0.1,0.1,0.1,0.1c0,0,0.1,0.1,0.1,0.1c0.1,0,0,0.1,0.1,0.1c0,0,0,0,0,0.1c0,0,0,0.1,0.1,0.1       c0,0,0.1,0.1,0.1,0.1c0,0,0,0,0,0.1c0,0,0,0.1,0,0.1s-0.1,0.1-0.1,0c0,0-0.1,0.1-0.1,0.1l0,0.1l-0.1,0.1l0,0c0,0-0.1,0-0.1,0       c0,0,0-0.1,0-0.1s0-0.1,0-0.2c0-0.1,0-0.1,0-0.1s0,0-0.1,0c0,0-0.1,0-0.1,0c-0.1,0-0.1,0-0.1,0s-0.1,0.1-0.1,0.1       c0,0-0.1,0.1-0.1,0.1l-0.1,0.1l-0.2-0.1l-0.2,0h-0.1l-0.1,0c0,0-0.3,0.1-0.3,0.1c0,0-0.2,0-0.2,0c0,0-0.1,0-0.2,0       c0,0,0.1,0,0.1,0c0,0,0.1-0.1,0.1-0.1c0-0.1,0-0.1,0-0.1l0.1-0.1c0,0-0.2,0-0.2,0s-0.1,0.1-0.1,0.1c0,0-0.1,0.1-0.1,0.1       c0,0-0.1,0.1-0.1,0.1s-0.1,0.1-0.1,0.1c0,0,0-0.1,0-0.1c0,0-0.1,0-0.1,0c0,0-0.1,0-0.1,0s-0.1,0.1-0.2,0.1c0,0-0.1,0-0.1,0       s-0.1,0-0.1,0.1c0,0-0.1,0.1-0.1,0.1c0,0-0.2,0.1-0.2,0.1c0,0,0.1,0,0.1,0s-0.4,0.1-0.5,0.1c-0.1,0-0.1,0-0.1,0.1       c0,0,0,0.2,0,0.2c0,0-0.1,0-0.1,0.1c0,0-0.1,0-0.1,0l-0.4,0.1c0,0-0.1,0-0.1,0c0,0-0.1-0.1-0.1-0.2c0,0,0,0-0.1,0       c-0.1,0-0.1-0.1-0.1-0.1c0,0,0,0,0-0.1c0,0,0,0,0,0c-0.2,0.1-0.3,0.1-0.5,0.2c0,0,0,0,0,0c0,0,0.1,0,0.1,0c0,0,0.1,0,0.1,0       c0,0,0,0.1,0,0.1c0,0,0,0.1,0,0.2c0,0,0,0,0,0.1c0,0,0,0.1,0,0.1c0,0.1,0,0.2,0,0.1c0,0,0,0-0.1,0c0,0,0,0-0.1-0.1       c0,0-0.1,0-0.1-0.1c0,0-0.1,0-0.1,0c0,0-0.1,0-0.2,0c0,0-0.1,0-0.1,0s-0.2,0.2-0.3,0.2c0,0-0.1,0-0.2,0.1       c-0.1,0-0.1,0.1-0.1,0.1c0,0-0.1,0.1-0.2,0.1c0,0-0.2,0.1-0.1,0.2c0,0.1,0.1,0.1,0.1,0.1c0,0,0.1,0.2,0.1,0.2s-0.1,0-0.2,0       c-0.1,0-0.1,0-0.1,0c-0.1,0-0.1,0-0.1,0c0,0-0.1,0-0.1,0c0,0-0.1,0-0.2,0c0,0-0.1,0-0.1,0c0,0-0.1-0.1-0.1-0.2       c0,0-0.1,0-0.1-0.1c-0.1,0.1-0.2,0.1-0.3,0.2c0,0,0,0,0,0c0,0,0,0.1,0.1,0.1c0,0,0.1,0.1,0.1,0.1c0,0,0.1,0,0.2,0       c0,0,0.2,0.1,0.2,0.1c0,0,0,0,0,0.1c0,0-0.1,0.1-0.1,0.1c0,0-0.1,0-0.1,0c0,0-0.1,0-0.1,0c-0.1,0-0.1,0-0.1-0.1       c0,0-0.1,0-0.1-0.1c0,0-0.1-0.1-0.1-0.1c-0.1,0,0,0-0.1,0c0,0-0.1,0-0.1,0c-1,0.6-1.9,1.3-2.8,2.1c0,0,0.1,0,0.2,0       c0,0,0.1,0,0.1-0.1c0,0,0,0,0.1,0c0,0,0,0,0.1,0c0.1,0,0.1,0,0.1,0c0,0,0,0,0.1,0.1c0,0,0.1,0.1,0.1,0.1c0,0,0.1,0,0.1,0       c0,0,0.1,0,0.2,0c0,0,0.1,0.1,0.1,0.1c0,0-0.1,0-0.1,0c0,0-0.1,0-0.1,0c0,0-0.1,0-0.1,0c0,0-0.1,0.1-0.2,0.1c0,0-0.1,0.1-0.1,0       c0,0-0.1,0.1-0.1,0.1s0,0,0,0c0,0-0.1,0.1-0.1,0c0,0-0.1,0-0.1,0c0,0-0.1,0-0.1,0c0,0-0.1,0-0.1,0c0,0-0.1,0-0.1,0       c0,0-0.1,0-0.1,0c0,0-0.1,0-0.1,0c0,0,0,0,0,0c-0.2,0.2-0.4,0.4-0.7,0.6c0,0,0,0,0,0c0,0.1,0.1,0.1,0.1,0.1c0,0,0,0,0.1,0.1       c0,0,0,0,0,0c0,0.1,0,0.1,0,0.1c0,0,0,0.1,0,0.1l-0.1,0.1c0,0-0.1,0.1-0.1,0c0,0-0.2,0-0.2-0.1c0,0-0.1,0-0.1-0.1       c0-0.1,0,0-0.1,0c0,0-0.1,0-0.1,0c-0.2,0.2-0.3,0.3-0.5,0.5c0,0,0,0,0,0c0,0,0,0,0,0c0,0,0,0.1,0,0.1l0.1,0c0,0,0,0.1,0,0.1       c0,0,0,0,0,0c0,0,0,0.1-0.1,0.1c0,0,0,0,0.1,0.1c0,0,0,0.1,0,0.1c0,0,0,0.1-0.1,0.1c-0.1,0,0,0.1-0.1,0.1       c0,0.1-0.1,0.1-0.1,0.1c-0.1,0,0,0-0.1,0c-0.1,0-0.1,0.1-0.1,0.1c0,0,0,0-0.1,0c-0.1,0-0.1,0-0.2,0c-0.1,0-0.1,0-0.1,0l0,0       c-1.2,1.4-2.3,3-3.2,4.7c0,0,0.1,0,0.1,0c0,0,0.1,0,0.2,0.1c0,0,0,0.1,0,0.1c0,0.1,0.1,0.1,0.1,0.2c0,0,0.1,0.1,0.1,0.1       c0,0,0.1,0.1,0.1,0.1c0.1,0.1,0.1,0,0.1,0c0,0,0.1,0.1,0.1,0.1c0,0,0.2,0.1,0.2,0.1c0,0,0,0.1,0,0.1s0.2,0.1,0.2,0.1       c0.1,0,0.2,0.1,0.2,0.1c0,0,0,0.1,0.1,0.2c0.1,0.1,0.1,0,0.2,0c0,0,0,0,0.1,0.1c0,0,0,0.1,0.1,0.1c0,0,0.1,0.1,0.1,0.1       c0,0,0.1,0,0.1,0c0,0,0.1,0.1,0.1,0.1c0,0,0,0.1,0.1,0.2c0,0,0,0.1,0,0.1s-0.2,0.3-0.2,0.3c0,0,0.1,0,0.1,0s0.1-0.1,0.1-0.1       c0,0,0.1-0.1,0.1-0.1c0,0,0.1-0.1,0.1-0.2c0,0,0,0,0,0c0,0,0,0,0-0.1c0-0.1-0.1,0-0.1-0.1c0,0-0.1,0-0.1-0.1c0,0,0,0,0-0.1       c0,0,0-0.1,0-0.1c0,0,0,0,0.1-0.1c0-0.1,0,0,0.1,0c0,0,0.1,0,0.1,0s0.1,0.1,0.1,0.1c0.1,0,0.1,0.1,0.1,0.1c0,0,0.1,0,0.1,0       c0,0,0,0,0-0.1c0,0,0,0,0-0.1c0,0,0,0-0.1,0c0,0-0.3-0.2-0.3-0.2c0,0-0.1,0-0.1,0c0,0-0.1,0-0.2-0.1c-0.1-0.1-0.1-0.1-0.2-0.1       c0,0,0-0.1,0-0.1c0,0,0,0,0-0.1c0,0-0.1,0-0.1,0s-0.2,0-0.2,0c-0.1,0-0.1,0-0.1,0s-0.1,0-0.1,0c0,0,0,0-0.1-0.1       c0-0.1-0.1-0.1-0.1-0.1c0,0-0.1-0.2-0.1-0.3c0-0.1,0,0,0-0.1c0-0.1,0-0.1-0.1-0.1c-0.1-0.1-0.1,0-0.2-0.1       c-0.1-0.1-0.1,0-0.1-0.1c0,0,0,0,0,0c0,0-0.1-0.1-0.1-0.1c0,0,0-0.1,0-0.1c0,0,0,0,0-0.1c0,0,0,0,0,0c0,0-0.1-0.1-0.1-0.1       c0-0.1,0-0.1,0-0.1s0.1,0,0.1,0c0,0,0,0,0.1-0.1c0-0.1,0.1,0,0.2,0c0,0,0.1,0,0.1,0s0,0.1,0,0.1c0,0,0,0,0,0c0,0,0,0.1,0,0.1       c0,0,0,0.1,0,0.1s0,0,0,0c0,0,0,0,0.1,0c0,0,0.1,0,0.1-0.1c0,0,0.1,0,0.1,0s0,0,0,0c0,0,0,0.1,0,0.1c0,0,0,0,0.1,0       c0,0,0.1,0.1,0.1,0.1c0,0,0,0.1,0,0.1c0,0,0,0,0,0.1c0,0,0,0,0,0.1c0,0,0,0,0.1,0.1c0,0,0,0,0.1,0.1c0.1,0,0.1,0,0.1,0       s0.1,0,0.1,0c0.1,0,0.1,0,0.1,0c0,0,0,0,0,0.1c0,0,0,0,0,0c0,0,0,0,0.1,0c0,0,0.1,0,0.1,0c0.1,0,0.1,0,0.1,0       c0,0,0.1,0.1,0.1,0.1c0,0,0.1,0.1,0.1,0.1c0,0,0,0,0,0c0,0,0,0,0,0c0,0,0.1,0.1,0.1,0.1c0.1,0.1,0,0,0,0.1c0,0,0,0,0,0       s0,0,0.1,0.1c0,0,0,0,0,0c0.1,0.1,0,0.1,0,0.1c0,0,0,0.1,0,0.1c0,0,0,0.1,0,0.1c0,0,0,0.1,0,0.1c0,0,0,0.1,0,0.1s0,0,0.1,0.1       c0,0,0.1,0.1,0.1,0.1l0,0.1c0,0,0,0,0,0.1c0,0,0.1,0,0.1,0s0,0,0.1,0c0,0,0,0,0,0c0,0,0,0,0,0c0,0,0.1,0.1,0.1,0.1s0,0,0.1,0.1       c0,0,0.1,0.1,0.1,0.1c0,0,0.1,0,0.1,0.1c0,0,0.1,0.1,0.1,0.1s0,0.1,0,0.1c0,0,0,0.1,0,0.1c0,0,0,0.1,0,0.1c0,0,0.2,0.1,0.2,0.1       v0.1c0,0,0,0.1,0,0.1c0,0,0.1,0.1,0.1,0.1c0,0,0.1,0,0.1,0s0,0,0,0.1c0,0,0.1,0,0.2,0c0,0,0,0,0.1,0c0,0,0.1,0,0.1,0       c0,0,0,0,0.1-0.1c0,0,0,0-0.1-0.1c0,0,0,0,0-0.1c0,0-0.1-0.2-0.1-0.2c0,0,0.1,0.1,0.1,0.1s0.2-0.1,0.2-0.1c0,0,0,0-0.1,0       c0,0-0.1,0-0.1-0.1c-0.1-0.1-0.1,0-0.1-0.1c0,0,0,0,0-0.1c0,0,0,0,0.1-0.1c0,0,0.1,0,0.1,0l0.1,0.1l0.2,0.1c0,0,0,0,0.1,0       c0,0,0,0,0-0.1c0,0-0.1-0.1-0.1-0.1c0,0,0,0,0.1,0c0,0,0,0,0,0c0,0,0,0,0,0c0,0,0,0,0-0.1c0,0,0,0-0.1,0c0,0-0.1,0-0.1-0.1       c0,0-0.1,0-0.1-0.2c0,0,0,0,0,0c0,0,0,0-0.1-0.1c-0.1-0.1-0.1-0.2-0.1-0.2c0-0.1,0.1-0.2,0.1-0.2s0.1,0.1,0.1,0.1       c0,0,0.1,0.1,0.1,0.1c0,0,0.1,0,0.1,0c0,0,0,0,0.1-0.1c0,0,0.1,0,0.1,0s0.1,0,0.1,0c0,0,0,0,0,0c0,0,0,0-0.1-0.1c0,0,0,0,0-0.1       c0-0.1,0,0,0.1,0c0,0,0,0,0.1,0c0,0,0,0,0.1,0c0,0,0,0.1,0.1,0.1c0,0,0-0.1,0.1-0.1c0,0,0,0,0.1,0c0,0,0.1,0,0.1,0       c0,0,0.1,0,0.1,0c0,0,0.1,0,0.1,0.1c0,0,0.1,0,0.1,0s0.1,0,0.1,0c0,0,0.1,0,0.1,0c0,0,0.1,0,0.1,0c0,0,0,0,0.1,0c0,0,0,0,0.1,0       c0,0,0,0,0,0c0,0,0.1,0,0.1-0.1c0,0,0.1,0,0.1,0c0,0,0.1,0,0.2,0c0,0,0.1,0,0.1,0c0.1,0,0,0,0-0.1c0-0.1,0,0,0,0c0,0,0,0-0.1,0       c0,0,0,0-0.1,0c0,0-0.1,0-0.1-0.1c-0.1,0-0.1,0-0.1,0c0,0,0,0,0-0.1c0-0.1,0-0.1,0-0.1c0,0,0,0,0,0c0,0-0.1,0-0.1-0.1       c0-0.1,0,0,0-0.1c0-0.1,0-0.1,0.1-0.1c0,0,0-0.1,0.1-0.1c0,0,0.1,0,0.1-0.1c0,0,0.1-0.1,0.1-0.1c0,0,0,0,0,0c0-0.1,0-0.2,0-0.2       c0,0,0,0,0.1,0c0,0,0,0,0-0.1c0,0,0,0,0.1-0.1c0,0,0,0,0.1,0c0,0,0.1,0,0.1,0c0,0,0.1,0,0.1-0.1c0,0,0.1-0.1,0-0.1       c0,0,0,0,0-0.1c0,0,0,0,0,0c0-0.1,0-0.1,0-0.1c0,0,0.1,0,0.1,0s0.1-0.1,0.2-0.2c0,0,0,0,0.1-0.1c0,0,0,0,0-0.1c0,0,0,0,0.1-0.1       c0,0,0.1,0,0.1,0c0,0,0.1,0,0.1,0c0,0,0,0.1,0,0.1c0,0-0.1,0.1-0.1,0.1c0,0,0,0.1,0.1,0.1c0,0,0,0,0,0s0.1,0,0.1,0       c0,0,0.1,0.1,0.1,0.1c0,0,0,0,0.1,0c0,0,0.1-0.1,0.2-0.1c0,0,0,0,0.1,0c0,0,0,0,0,0s0,0-0.1,0c-0.1,0-0.1,0-0.1,0       c0,0-0.1,0.1-0.1,0.1s0,0.1,0.1,0.1c0,0,0.1,0.1,0.1,0c0,0,0.1,0.1,0.1,0.1l0,0.1c0,0-0.1,0-0.1,0c0,0,0,0.1,0.1,0.1       c0,0,0,0.1,0.1,0c0.1,0,0.1,0,0.1,0c0,0,0.1,0,0.1-0.1c0-0.1,0,0,0-0.1c0,0,0.1,0,0.1,0c0,0,0,0,0.1-0.1c0,0,0-0.1,0.1-0.1       c0,0,0,0,0.1,0c0,0,0.1,0,0.1,0c0,0,0.1,0,0.1,0c0,0,0.1,0,0.1-0.1c0,0,0,0,0,0c0,0,0,0-0.1-0.1c0,0,0,0-0.1,0c0,0-0.1,0-0.1,0       c0,0,0,0-0.1,0c0,0,0,0-0.1,0c0,0-0.1,0-0.2,0c-0.1,0-0.1-0.1-0.1-0.1c0,0-0.1-0.1-0.1-0.1s0-0.1,0-0.1c0,0,0.2,0,0.2,0       c0,0,0.2-0.1,0.2-0.2c0,0,0.1,0,0.1,0c0,0,0.2-0.1,0.2-0.1c0,0,0,0,0.1,0c0,0,0.2-0.1,0.2-0.1s0.1,0,0.1,0c0,0,0.1,0,0.1,0       s0,0,0.1,0c0,0,0,0,0,0c0,0,0.1,0,0.1,0c0,0,0.2,0,0.2,0c0,0,0,0,0,0c0,0,0,0,0,0c0,0-0.1,0.1-0.1,0.1c0,0-0.2,0.1-0.2,0.1       c0,0,0,0.1,0,0.1l0.1,0.1c0,0,0,0,0,0c0,0,0,0.1-0.1,0.1c0,0,0,0,0,0.1c0,0,0,0.1-0.1,0.1c0,0,0,0-0.1,0c0,0-0.1,0-0.1,0       c-0.1,0-0.1,0,0,0.1c0,0,0.1,0,0.1,0.1c0,0,0.1,0.1,0.1,0.1c0,0,0.1,0,0.1,0c0,0,0.1,0,0.1,0s0.1,0.1,0.1,0c0,0,0,0,0.1,0       c0,0,0.1,0.1,0.1,0.1c0,0,0.1,0.1,0.1,0.1c0,0,0.1,0.1,0.1,0.1c0,0,0,0,0,0c0,0,0.1,0,0.1,0c0,0,0.1,0,0.1,0.1c0,0,0,0,0.1,0       c0.1,0,0,0,0,0s0.1,0,0.1,0c0,0,0.1,0.1,0.1,0.1c0,0,0,0,0,0.1c0,0,0,0.1,0,0.1l0,0c0,0,0,0,0,0c0,0,0,0,0.1,0.1c0,0,0,0,0,0       s0,0.1,0,0.1c0,0,0,0,0,0c0,0,0,0,0,0c0,0,0,0-0.1,0c0,0-0.1,0.1-0.1,0.1c0,0-0.1,0.1-0.1,0.1c0,0-0.1,0-0.1,0c0,0-0.1,0-0.1,0       c-0.1,0-0.1,0-0.1,0c0,0-0.1,0-0.1,0.1c0,0,0,0-0.1,0c-0.1,0-0.1,0-0.1,0c-0.1,0,0,0-0.1,0c0,0-0.1,0-0.1,0s-0.4,0-0.4-0.1       c0,0-0.2,0-0.2,0s0,0,0-0.1c0,0-0.1,0-0.1,0c0,0-0.1,0-0.1,0c0,0-0.1,0-0.1,0c0,0-0.1,0-0.1,0c0,0,0,0,0-0.1c0,0-0.2,0-0.2,0       s-0.1,0-0.1,0c0,0-0.1,0-0.1,0c0,0-0.1,0-0.2,0c0,0-0.1,0-0.1,0l-0.1,0c0,0-0.4,0.2-0.4,0.3c0,0-0.1,0.1-0.1,0.1       c0,0-0.1,0-0.1,0c0,0-0.1,0-0.1,0s-0.1,0-0.1,0c0,0-0.1,0-0.2,0c-0.1,0,0,0-0.1,0c0,0-0.1,0-0.1,0c0,0-0.1,0-0.1,0.1       c0,0,0,0,0,0.1c0,0,0,0,0,0l-0.1,0c0,0-0.1,0-0.1,0c0,0-0.2,0-0.4,0c-0.1,0-0.1,0-0.2,0c0,0,0,0-0.1,0c0,0,0,0-0.1,0.1       c0,0,0,0.1-0.1,0.1c0,0,0,0.1,0,0.2c0,0.1,0.1,0,0.1,0c0,0,0.1,0,0.1,0.1c0,0-0.1,0.1,0,0.2c0.1,0.1,0,0,0.1,0.1       c0,0,0,0.1,0,0.1s-0.1,0.1-0.1,0.1c0,0-0.1,0-0.1,0s0,0,0.1,0c0,0,0.1,0,0.1,0.1c0,0,0,0,0,0.1c0,0-0.1,0-0.1,0       c0,0,0.1,0.1,0.1,0.1c0,0,0,0,0,0s0,0.1,0.1,0.1c0,0,0.1,0,0.1,0c0.1,0,0,0,0.1,0.1c0,0,0,0.1,0.1,0.1c0,0,0,0,0,0c0,0,0,0,0,0       c0,0,0,0,0.1,0c0,0,0,0,0.1,0.1c0,0,0.1,0.1,0.1,0.1c0.1,0,0,0,0.1,0.1c0,0,0.2,0,0.2,0c0.1,0,0.1,0,0.1,0c0,0,0.1,0,0.1-0.1       c0-0.1,0,0,0-0.1c0,0,0,0,0,0c0,0,0,0,0,0c0,0,0,0,0.1,0c0.1,0,0.1,0,0.1,0c0,0,0,0,0,0.1c0,0,0,0,0.1,0.1c0.1,0,0,0.1,0.1,0.1       c0,0,0,0.1,0.1,0.1c0,0,0,0,0.1,0.1c0,0,0.1,0,0.1,0c0,0,0.1,0,0.1-0.1c0,0,0.1,0,0.1,0c0,0,0.1,0,0.1-0.1c0,0,0.1,0,0.1,0       c0,0,0-0.1,0.1-0.1c0,0,0,0,0.1,0c0,0,0.1,0,0.1,0c0.1,0,0.1,0,0.2,0c0,0,0.1,0,0.1,0c0,0,0,0,0,0.2c0,0.2,0,0.1,0,0.1       c0,0,0,0,0,0.1c0,0,0,0,0,0c0,0,0,0,0,0c0,0,0,0,0,0c0,0,0,0.1,0,0.1c0,0,0,0.1,0,0.2c0,0.1,0,0,0,0.1c0,0,0,0,0,0       c0,0,0,0,0,0.1c0,0.1,0,0.1,0,0.1c0,0,0,0.1-0.1,0.1c0,0,0,0.1-0.1,0.1c0,0.1,0,0.1-0.1,0.1c0,0,0,0.1,0,0.1c0,0,0,0.1,0,0.1       s0,0.1,0,0.1c0,0.1,0,0.1,0,0.1c0,0,0,0,0,0.1c0,0.1,0,0.1-0.1,0.1c0,0,0,0.1,0,0.1c0,0,0,0.1-0.1,0.1c0.1,0.1,0,0.1,0.1,0.2       c0,0.1,0.1,0.2,0.1,0.3c0,0.1,0.1,0.2,0.1,0.4c0-0.1,0-0.2-0.1-0.3c0-0.1-0.1-0.2-0.1-0.3c0-0.1,0-0.1-0.1-0.2c0,0,0,0,0,0       c-0.1,0.1,0,0-0.1,0c0,0-0.3,0-0.4,0c-0.1,0-0.1,0-0.1,0c0,0-0.1,0-0.1-0.1c0,0-0.1,0-0.1,0c0,0-0.1,0-0.1,0c0,0-0.3,0-0.4,0       c-0.1,0-0.1,0-0.1,0s-0.1,0.1-0.2,0.1c-0.1,0-0.1,0.1-0.2,0.1c0,0,0,0-0.1,0c0,0,0,0-0.1,0c0,0-0.1,0-0.1,0c-0.1,0-0.1,0-0.1,0       c0,0-0.1,0-0.1,0c0,0-0.1,0-0.1,0s-0.3-0.1-0.3-0.1c0,0-0.2,0-0.2,0s-0.1,0-0.1,0c0,0-0.1,0-0.1,0c0,0,0,0,0,0c0,0,0,0-0.1-0.1       c0,0,0,0,0,0c0,0,0,0-0.1,0c0,0-0.1,0-0.1,0c0,0-0.1,0-0.1,0s-0.2,0-0.3-0.1c0,0,0,0,0,0c0,0-0.1,0-0.1-0.1c0,0,0,0-0.1-0.1       c0,0-0.1,0-0.1,0c0,0-0.1,0-0.1,0c0,0-0.1,0-0.1,0c0,0-0.1,0-0.2,0c-0.1,0,0,0-0.1,0c0,0-0.1,0.1-0.2,0.1c0,0-0.1,0-0.1,0.1       c0,0-0.1,0.1-0.1,0.1c0,0-0.1,0.1-0.1,0.1s0,0.1,0.1,0.1c0,0,0,0.1,0,0.1c0,0-0.1,0.2-0.1,0.2l-0.1,0.1c0,0-0.1,0-0.1,0       c0,0-0.1,0-0.1,0c0,0-0.1-0.1-0.1-0.1c0,0-0.1-0.1-0.1-0.1c0,0-0.1,0-0.1-0.1c0,0-0.1,0-0.1-0.1c0,0-0.1,0-0.1,0       s-0.2,0-0.2-0.1c0,0-0.1,0-0.1,0c-0.1,0,0,0-0.1,0c0,0-0.1,0-0.1,0c0,0,0-0.1,0-0.1c0-0.1-0.1-0.1-0.1-0.1c0-0.1,0-0.1,0-0.1       c0,0,0,0-0.1-0.1c0,0-0.1,0-0.1,0c0,0-0.2-0.1-0.2-0.1l-0.2,0c0,0-0.2,0-0.2,0c0,0-0.1,0-0.1,0c0,0-0.1,0-0.1,0s-0.1,0-0.1-0.1       c0,0-0.1,0-0.1,0c0,0-0.1,0-0.1,0c0,0,0,0,0,0c0,0-0.1-0.1-0.1-0.1c0,0,0-0.1-0.1-0.1c0,0-0.1,0-0.1,0s0,0.1-0.1,0       c0,0-0.1,0-0.1-0.1c0,0-0.1,0-0.1-0.1c0,0,0,0,0,0c0,0,0,0,0.1-0.1c0,0,0.1,0,0.1-0.1c0,0,0.1,0,0.1-0.1c0,0,0-0.1,0.1-0.1       c0,0,0,0,0-0.1c0,0,0-0.1,0-0.1c0,0-0.1-0.2-0.1-0.2c0,0-0.1,0-0.1-0.1c0,0,0,0,0-0.1c0,0,0,0,0.1-0.1c0,0,0.1-0.1,0.1-0.2       c0,0,0,0-0.1,0c0,0-0.1,0.1-0.2,0.1c-0.1,0,0,0,0,0c0,0,0-0.1,0-0.1c0,0-0.1,0-0.1-0.1c0,0-0.1,0-0.1,0c0,0-0.1,0-0.1,0.1       c0,0-0.1,0-0.1,0s-0.2,0.1-0.3,0.1c0,0,0,0,0,0c0,0-0.1,0-0.1,0c0,0-0.1,0-0.1-0.1c0-0.1-0.1,0-0.1,0c0,0,0,0-0.1,0       c0,0-0.1,0-0.1,0c0,0,0,0-0.1,0c0,0-0.1,0-0.1,0c0,0-0.1,0-0.1,0c0,0-0.1,0.1-0.1,0.1s-0.1,0.1-0.2,0.1c-1,2.8-1.6,5.9-1.6,9       c0,0.8,0,1.5,0.1,2.2c0,0,0.1,0,0.1,0c0.1,0,0.1,0,0.1,0c0,0,0,0,0,0c0.1,0,0.1,0,0.1,0s0.2,0,0.3-0.1c0.1-0.1,0.1,0,0.1,0       s0,0,0,0c0,0,0.1,0,0.1,0c0.1,0,0.2,0,0.3,0c0.1,0,0.1,0.1,0.1,0.1c0.1,0,0.1,0.1,0.2,0.1c0.1,0,0.1,0.1,0.1,0.1       c0,0,0,0.1,0,0.2c0,0.1,0,0.1,0.1,0.2c0.1,0,0.1,0.1,0.1,0.1c0,0,0.3,0,0.3,0c0.1,0,0.1,0,0.2,0c0,0,0.1,0,0.2-0.1       c0,0,0.2-0.1,0.2-0.1c0.1,0,0,0,0,0.1c0,0,0,0,0,0c0,0,0,0.1,0.1,0.1c0,0,0.1,0.1,0.1,0.1c0,0,0.1,0,0.1-0.1       c0,0,0.1,0.1,0.1,0.1c0,0,0.1,0.2,0.1,0.2c0,0,0,0.2,0,0.2c0,0,0,0.1-0.1,0.1c0,0,0,0,0,0c0,0,0,0.1,0,0.1c0,0,0,0.1,0,0.2       c0,0.1,0,0.1,0,0.2c0,0.1-0.1,0.1-0.1,0.2c0,0,0,0.2,0,0.2c0,0.1,0,0.2,0,0.2c0,0,0.1,0.2,0.1,0.2c0,0,0.1,0.2,0.1,0.1       c0,0,0.2,0.2,0.4,0.4c0.1,0.1,0.1,0.1,0.1,0.2c0,0.1,0.1,0.1,0.1,0.1c0,0,0.1,0.2,0.2,0.3c0,0,0,0,0,0c0.1,0.1,0.1,0.2,0.1,0.3       c0,0,0,0,0,0.1c0,0,0,0.1,0,0.1c0,0,0.1,0.1,0.1,0.2c0,0.1,0.1,0.2,0.1,0.3c0.1,0.1,0.1,0.2,0.1,0.2c0.1,0.1,0,0.1,0,0.2       c0,0-0.1,0.1-0.1,0.1c0,0,0.1,0.1,0.1,0.3c0.1,0.1,0.1,0.3,0.1,0.4c0.1,0.1,0,0.2,0,0.2c0,0,0,0.1,0,0.1c0,0,0,0.2,0,0.2       s-0.1,0.1-0.1,0.1c0,0-0.1,0.1-0.1,0.1c0,0-0.1,0.1-0.1,0.1c0,0-0.1,0.1,0,0.2c0,0-0.1,0.1-0.1,0.1c0,0-0.1,0.2-0.1,0.2       c0,0,0,0.2,0,0.2c0,0-0.1,0.2-0.1,0.2c0,0,0,0.1,0,0.1c0,0,0,0.1,0,0.1v0.3c0,0,0,0,0,0c0,0.1,0,0.4,0,0.4       c0.1,0.1,0,0.1,0.1,0.1c0,0,0.1,0.1,0.1,0.1c0,0,0.1,0.1,0.1,0.1c0,0,0.1,0.1,0.1,0.1c0,0,0,0.2,0,0.2s0.1,0.1,0.1,0.1       c0,0,0.1,0.2,0.1,0.2l0,0.1c0,0,0,0,0.1,0c0,0,0,0.1,0.1,0.1c0,0,0,0,0.1,0.1c0.1,0.1,0.1,0.1,0.1,0.2c0,0,0,0.1,0,0.1       c0,0,0,0.1,0,0.1s-0.1,0.2-0.1,0.3c0,0,0,0.1,0,0.1c0,0,0,0.1,0.1,0.1c0,0,0,0.1,0,0.1c0,0,0,0.2,0,0.2c0,0.1,0,0.1,0,0.1       c0,0,0,0,0,0.1c0,0.1,0,0.1,0.1,0.3c0,0.2,0,0.2,0.1,0.2c0,0,0,0.2,0,0.1c0,0,0.2,0.3,0.3,0.4c0.1,0.1,0.1,0.1,0.1,0.1       c0,0,0,0,0,0c0,0,0.1,0.1,0.1,0.1c0,0,0.1,0.1,0.1,0.1c0,0,0,0.1,0,0.2c0,0,0,0.1,0,0.2c0,0,0,0.1,0,0.2c0,0,0,0.1,0.1,0.2       c0.1,0.1,0.1,0.1,0.1,0.1c0,0,0,0.1,0.1,0.1c0,0,0.1,0.1,0.1,0.1c0,0,0,0.2,0,0.3c0,0.1,0,0-0.1,0.1c-0.1,0.1-0.1,0-0.1,0       l0,0.1c0,0,0,0.1,0.1,0.1c0,0,0.1,0.2,0.1,0.2c0,0,0,0,0,0s0,0.1,0,0.1c0,0,0.1,0,0.1,0c0,0,0.1,0,0.1,0c0,0,0.1,0,0.1,0       c0,0,0,0.1,0,0.1s0,0,0.1,0c0,0,0,0.1,0.1,0c0.1,0,0.1,0,0.2,0.1c0,0,0.1,0,0.1-0.1c0,0,0.1,0,0.1,0l0.1,0c0,0,0.1,0,0.2,0       c0.1,0,0,0,0.1-0.1c0,0,0,0,0.1,0c0.1,0,0,0,0.1,0c0,0,0,0,0.1-0.1c0,0,0,0,0.1,0c0,0,0,0,0.1,0c0,0,0.1,0,0.1,0c0,0,0,0,0.1,0       c0,0,0,0,0.1,0c0,0,0,0,0.1,0c0,0,0.1,0,0.1,0c0,0,0.1,0.1,0.2,0c0,0,0,0,0-0.1c0,0,0.1,0,0.1,0c0,0,0.1,0,0.1,0l0.1,0       c0,0,0,0,0.1,0c0,0,0,0,0.1-0.1c0,0,0.1,0,0.1,0h0.1c0,0,0.1,0,0.1,0c0,0,0,0,0.1,0c0,0,0.1,0,0.1,0c0,0,0.1-0.1,0.1-0.1       s0.1-0.1,0.2-0.1c0,0,0,0,0.1-0.1c0.1-0.1,0,0,0.1-0.1c0,0,0,0,0,0c0,0,0,0,0.1-0.1c0,0,0,0,0.1-0.1c0.1-0.1,0.1,0,0.1-0.1       c0,0,0.1-0.1,0.2-0.2c0.1-0.1,0,0,0,0c0,0,0.1-0.1,0.1-0.1c0,0,0.1-0.1,0.1-0.1c0,0,0,0,0-0.1c0,0,0.1-0.1,0.1-0.1       c0,0,0.1-0.1,0.1-0.1c0,0,0,0,0,0s0-0.1,0-0.1c0,0,0.1-0.1,0.1-0.1c0,0,0,0,0-0.1c0,0,0,0,0.1,0c0,0,0.1-0.1,0.1-0.1       c0,0,0-0.1,0.1-0.1c0-0.1,0,0,0-0.1c0,0,0-0.1,0-0.1c0,0,0.1-0.1,0.1-0.1c0,0,0-0.1,0-0.1c0,0,0-0.1,0-0.1c0,0,0,0,0,0       c0,0,0-0.1,0-0.1c0,0,0,0,0-0.1c0,0,0,0,0-0.1c0,0,0-0.1,0-0.1s0,0-0.1,0c0,0,0,0,0,0c0,0,0,0,0-0.1c0-0.1,0,0,0.1-0.1       c0,0,0,0,0.1-0.1c0,0,0,0,0.1-0.1c0.1,0,0.1,0,0.1-0.1c0,0,0.1,0,0.1,0c0,0,0.1-0.1,0.1-0.1s0.1,0,0.1,0c0,0,0.1-0.1,0.1-0.1       c0,0,0.1,0,0.1,0s0-0.1,0-0.2c0,0,0,0,0-0.1c0-0.1,0,0,0-0.1c0-0.1,0-0.1,0-0.1s0,0,0-0.1c0,0,0-0.1,0-0.1c0,0,0,0,0-0.1       c0-0.1,0,0,0-0.1c0,0,0,0,0-0.1c0,0,0,0,0-0.1c0,0,0,0,0-0.1c0,0,0,0,0-0.1c0,0,0-0.1,0-0.1c0-0.1,0,0,0-0.1c0,0,0,0,0-0.1       c0,0,0,0-0.1-0.1c-0.1-0.1,0,0,0-0.1c0,0,0,0,0,0c0,0,0,0,0-0.1c0,0,0-0.1,0-0.1c0,0,0,0.1,0,0.1s0,0,0.1-0.1       c0-0.1,0.1,0,0.1-0.1c0,0,0,0,0.1,0c0,0,0,0,0.1,0c0,0,0.1,0,0.1-0.1c0.1-0.1,0,0,0.1-0.1c0,0,0.1-0.1,0.1-0.1c0,0,0,0,0,0       s0,0,0.1-0.1c0.1,0,0.1-0.1,0.1-0.1c0,0,0,0,0.1-0.1c0,0,0,0,0.1,0c0,0,0.1,0,0.1,0c0,0,0,0,0.1,0c0,0,0.1,0,0.2-0.1       c0,0,0.1-0.1,0.1-0.1s0.1,0,0.1,0c0,0,0.2-0.2,0.3-0.3c0.1-0.1,0,0,0.1-0.1c0,0,0,0,0-0.1c0,0,0-0.2,0-0.2c0,0,0-0.1,0-0.1       c0,0,0-0.1,0-0.1c0,0,0-0.1,0-0.2c0,0,0-0.1,0-0.1c0-0.1,0-0.1,0-0.1c0,0,0-0.1,0-0.2c0-0.1,0-0.1,0-0.1c0,0,0,0,0-0.1       c0-0.1,0-0.1,0-0.1c0,0,0-0.1,0-0.1c0,0,0-0.2,0-0.3c0,0,0,0,0-0.1c0,0,0-0.1,0-0.1c0,0,0,0,0-0.1c0,0,0,0-0.1-0.1       c0,0,0-0.1,0-0.1c0,0-0.1,0-0.1,0c0,0,0-0.1,0-0.1c0,0,0,0-0.1-0.1c0-0.1,0-0.1-0.1-0.1c0-0.1,0,0,0-0.1c0,0,0,0,0-0.1       c0,0,0,0,0-0.1c0,0,0-0.1,0-0.1c0,0,0-0.1,0-0.1l0-0.1c0,0,0-0.1,0-0.1c0,0,0,0-0.1-0.1c-0.1-0.1,0-0.1-0.1-0.1       c0,0,0,0-0.1-0.1c0,0,0,0,0-0.1c0,0,0-0.1,0-0.1c0,0,0,0,0-0.1c0,0,0,0,0-0.1c0,0,0-0.1,0.1-0.1c0,0,0,0,0-0.1c0-0.1,0,0,0-0.1       c0,0,0,0,0.1-0.1c0-0.1,0-0.1,0.1-0.1c0-0.1,0-0.1,0-0.2c0-0.1,0-0.1,0.1-0.1c0,0,0,0,0.1,0c0,0,0.1,0,0.1-0.1       c0-0.1,0.1-0.1,0.1-0.1c0,0,0.1,0,0.1,0s0.1,0,0.1-0.1c0,0,0,0,0,0c0,0,0,0,0.1-0.1c0,0,0-0.1,0.1-0.1c0,0,0,0,0.1-0.1       c0-0.1,0,0,0-0.1c0,0,0.1-0.1,0.1-0.1c0.1-0.1,0,0,0.1-0.1c0-0.1,0.1,0,0.1-0.1c0-0.1,0.1,0,0.1-0.1c0-0.1,0.1-0.1,0.1-0.1       c0,0,0,0,0.1-0.1c0.1-0.1,0.1-0.1,0.1-0.1c0,0,0.1,0,0.1,0c0,0,0.1-0.1,0.1-0.1l0.1,0c0,0,0.2-0.2,0.3-0.2c0,0,0.1,0,0.1-0.1       c0,0,0,0,0.1-0.1c0,0,0,0,0.1-0.1c0,0,0.1-0.1,0.1-0.1s0.3-0.3,0.3-0.3c0,0,0.1-0.2,0.2-0.2c0,0,0,0,0-0.1c0,0,0.1-0.1,0.1-0.2       c0-0.1,0-0.1,0.1-0.2c0,0,0.1-0.1,0.1-0.1c0,0,0,0,0.1-0.1c0-0.1,0-0.1,0-0.1c0,0,0-0.1,0.1-0.1c0-0.1,0,0,0,0       c0,0,0.1-0.1,0.1-0.2c0-0.1,0,0,0.1-0.1c0,0,0,0,0.1-0.1c0.1-0.1,0-0.1,0.1-0.1c0,0,0-0.1,0-0.1c0,0,0,0,0-0.1       c0,0,0-0.1,0.1-0.1c0-0.1,0,0,0-0.1c0-0.1,0-0.1,0-0.1c0,0,0-0.1,0-0.1c0,0,0.1-0.1,0.1-0.1s0-0.2,0-0.3c0,0,0-0.1,0-0.2       c0-0.1,0,0-0.1-0.1c0,0,0,0-0.1,0c-0.1,0,0,0-0.1,0.1c0,0-0.1,0.1-0.1,0.1c0,0-0.1,0-0.1,0c-0.1,0-0.1,0-0.1,0c0,0-0.1,0-0.1,0       l-0.1,0c0,0,0,0-0.1,0c0,0-0.2,0-0.2,0c0,0-0.1,0-0.1,0l0,0l-0.1,0l-0.1,0.1c0,0-0.1,0.1-0.1,0c0,0-0.1,0-0.1,0       c0,0-0.1,0-0.1,0s-0.1,0-0.1,0c0,0-0.1,0-0.1,0l-0.1,0c0,0-0.1,0.1-0.1,0.1c0,0-0.1,0-0.1,0s-0.2,0-0.2,0c0,0-0.1-0.1-0.2-0.1       c0,0-0.1-0.1-0.1-0.1c0,0,0-0.1,0-0.1l0,0l0,0c0,0-0.1,0-0.1,0c0,0,0,0,0,0c0,0,0.1,0,0.1,0s0.1,0,0.1-0.1c0,0,0-0.1,0-0.1       c0,0,0-0.1,0-0.1c0,0,0,0,0,0s-0.1,0-0.1,0c0,0-0.1,0-0.1-0.1c0,0,0,0-0.1-0.1c0,0,0-0.1,0-0.1c0,0-0.1-0.1-0.1-0.1l-0.2-0.2       c0,0-0.1-0.1-0.2-0.1c0,0-0.1-0.1-0.1-0.1s-0.1,0-0.1,0c0,0-0.1,0-0.1,0l-0.1,0c0,0,0,0-0.1,0c0,0,0-0.1,0-0.1       c0,0-0.1-0.1-0.1-0.1s0,0,0,0c0,0-0.1,0-0.1,0c0,0,0-0.1-0.1-0.1c0,0-0.1-0.4-0.1-0.4c0-0.1,0-0.1,0-0.2c0-0.1-0.1-0.1-0.1-0.1       c0,0,0,0,0,0c0,0-0.1-0.1-0.1-0.1c0,0-0.2-0.1-0.2-0.2c0,0-0.1-0.1-0.1-0.1c0,0-0.1,0-0.1-0.1c0,0,0-0.1,0-0.2s0-0.1,0-0.2       c0,0,0-0.2,0-0.2c0,0,0.1-0.1,0.1-0.1s-0.1-0.3-0.1-0.3c0,0,0,0-0.1-0.1c0-0.1,0-0.1-0.1-0.1c0,0-0.1,0-0.1,0c0,0,0-0.1,0-0.1       c0,0-0.1,0-0.1-0.1c0,0-0.1,0-0.1,0c0,0,0,0,0,0c0,0,0-0.1,0-0.1c0,0,0-0.1,0-0.1c0,0,0.1-0.1,0.1-0.1s0-0.1,0-0.1c0,0,0,0,0,0       c0,0-0.1-0.1-0.1-0.1s0-0.1,0-0.1c0,0-0.1-0.1-0.1-0.1c0,0-0.1-0.1-0.1-0.1c0,0,0-0.1,0-0.1c0,0-0.1-0.3-0.2-0.4c0,0,0,0,0-0.1       c0,0,0-0.1,0-0.1c0,0,0-0.1,0-0.1c0,0,0-0.1-0.1-0.1c0,0,0,0,0,0c0,0,0-0.1,0-0.1c0,0-0.1-0.1-0.1-0.2c0,0,0,0-0.1-0.1       c0,0-0.1-0.1-0.1-0.1l0-0.2c0,0,0-0.2,0-0.2c0,0,0,0.1,0,0.1s0.1,0.1,0.1,0.1c0,0,0,0.1,0.1,0.1c0,0,0,0.1,0,0.1       c0,0,0.1,0.1,0.1,0.2c0,0,0,0.1,0,0.1s0.1,0.1,0.1,0.1c0,0,0.1,0.1,0.1,0.1l0.1,0c0,0,0-0.1,0-0.1c0,0,0-0.1,0-0.1l0-0.1       c0,0,0,0,0,0c0,0,0,0,0,0l0-0.1l0,0c0,0,0,0,0,0.1c0,0,0,0.1,0,0.1c0,0,0,0.1,0,0.1s0.1,0,0.1,0c0,0,0,0,0.1,0.1       c0,0,0.1,0.1,0.1,0.1c0,0,0,0.1,0,0.1c0,0,0,0.1,0,0.1c0,0,0,0.1,0,0.1s0,0.1,0.1,0.1c0,0,0,0,0,0.1c0,0,0,0.1,0.1,0.1       c0,0.1,0.1,0.1,0.1,0.1c0,0,0.2,0.2,0.2,0.2c0,0,0,0.1,0,0.1s0,0.1,0,0.1c0,0,0,0.1,0,0.1c0,0,0,0.1,0.1,0.1c0,0,0,0,0.1,0       c0,0,0,0.1,0.1,0.1c0.1,0,0.1,0.1,0.1,0.1c0,0,0,0,0,0s0,0.1,0.1,0.1c0,0,0,0.1,0,0.1c0,0,0.1,0.1,0.1,0.1c0,0,0,0.2,0,0.2       s0,0.2,0,0.2c0,0,0,0.1,0,0.1c0,0,0,0.1,0,0.1s0,0.1,0,0.1c0,0,0,0.1,0.1,0.1c0,0,0.1,0.1,0.1,0.1s0,0,0.1,0c0,0,0,0,0.1,0.1       c0.1,0,0.1,0.1,0.1,0.1c0,0,0,0,0,0.1c0,0,0,0,0,0.1c0,0,0.1,0.1,0.1,0.1c0,0,0.1,0.1,0.1,0.1s0.1,0.2,0.1,0.3       c0,0.1,0,0.1,0,0.1s0,0.1,0,0.1c0,0,0,0.1,0.1,0.1c0,0,0,0.1,0,0.1s0,0,0.1,0c0,0,0,0,0,0.1c0,0,0,0.1,0.1,0.1       c0,0,0,0.1,0.1,0.1c0,0,0,0.1,0,0.1l0,0.1c0,0,0,0.1,0.1,0.1c0,0,0,0,0,0c0,0,0,0.1,0,0.1l0,0.1l0,0.1l0.1,0.2       c0,0,0.1,0.3,0.1,0.4c0,0.1,0,0.1,0,0.1s0,0.1,0,0.1c0,0,0,0.1,0,0.1s0,0,0.1,0c0,0,0.1,0,0.1,0s0.2,0,0.2,0c0,0,0.1,0,0.1,0       c0,0,0.1,0,0.1,0s0.1,0,0.1-0.1c0,0,0.1-0.1,0.1-0.1c0,0,0.1,0,0.1,0c0,0,0.1,0,0.1,0c0,0,0.1,0,0.1,0c0,0,0.1-0.1,0.1-0.1       c0,0,0.1,0,0.1,0c0,0,0,0,0.1,0c0,0,0.1,0,0.1,0c0,0,0.1,0,0.1-0.1c0,0,0.1,0,0.1,0s0.1,0,0.1,0c0,0,0.1,0,0.1,0       c0,0,0.1,0,0.1,0c0,0,0.1-0.1,0.1-0.1l0.1-0.1l0.1-0.1c0,0,0.1,0,0.1,0c0,0,0.1,0,0.1,0s0.1,0,0.1,0c0,0,0.2,0,0.2,0       s0.1,0,0.1,0c0,0,0.1,0,0.1,0l0.1,0c0,0,0.1,0,0.1,0c0,0,0.1,0,0.1-0.1l0.1-0.1c0,0,0-0.1,0-0.2c0,0,0.1,0,0.1,0s0.1,0,0.1,0       c0,0,0.1-0.1,0.1-0.1l0.1,0l0,0l0.1,0c0,0,0.1-0.1,0.1-0.1c0,0,0.2-0.1,0.2-0.1s0.2,0,0.2,0c0,0,0.1,0,0.1,0c0,0,0,0,0-0.1       c0-0.1,0.1-0.1,0.1-0.2c0,0,0,0,0.1,0c0,0,0.2,0,0.2,0l0.1,0c0,0,0-0.1,0-0.1c0,0,0,0,0.1-0.1c0,0,0-0.1,0-0.1       c0,0,0.1-0.1,0.1-0.1c0,0,0.2,0,0.2,0c0,0,0.1,0,0.1,0s0-0.2,0-0.3c0-0.1,0,0,0-0.1c0,0,0-0.1,0.1-0.1c0,0,0.1,0,0.1,0       c0,0,0,0,0.1-0.1c0,0,0.1,0,0.1-0.1c0.1-0.1,0.1-0.1,0.1-0.1c0,0,0.1-0.1,0.1-0.1c0,0,0.1-0.1,0.1-0.1c0,0,0.1-0.2,0.1-0.2       l-0.1,0l0-0.1l-0.1-0.1c0,0-0.1-0.1-0.1-0.1c0,0-0.1-0.1-0.1-0.1s-0.1-0.1-0.1-0.1c0,0-0.1-0.1-0.1-0.1c0,0-0.1,0-0.1,0       c0,0,0,0-0.1,0c0,0-0.1,0-0.1,0c0,0-0.1,0-0.1,0c0,0,0,0,0-0.1c0,0-0.1,0-0.1-0.1c0,0-0.1,0-0.1-0.1c0,0-0.1-0.2-0.1-0.2       c0,0,0-0.1,0-0.1c0,0,0-0.1,0-0.1c0,0,0-0.2,0-0.2c0,0,0,0.1,0,0.1c0,0-0.1,0-0.1,0.1c0,0-0.1,0.1-0.1,0.1l-0.1,0.1l-0.1,0.1       c0,0-0.1,0.1-0.1,0.1c0,0-0.1,0.1-0.1,0.1s-0.1,0.1-0.1,0.1c0,0-0.2,0.1-0.2,0.1c0,0-0.1,0-0.1,0c0,0-0.1,0-0.2,0       c0,0-0.1,0-0.1,0s-0.1,0-0.1,0c0,0-0.1,0-0.1,0s0,0-0.1-0.1c0,0,0,0-0.1,0c0,0,0,0,0,0c0,0-0.1-0.1-0.1-0.1c0,0,0,0,0,0       c0,0,0,0,0-0.1c0-0.1,0.1-0.1,0.1-0.1c0,0,0-0.1,0-0.2c0,0-0.1-0.1-0.1-0.1c0,0-0.1,0-0.1,0c0,0-0.1,0.1-0.1,0.1       c0,0-0.1,0.1-0.1,0.1c0,0,0,0.2,0,0.2c0,0,0,0,0-0.1c0,0-0.1-0.1-0.1-0.1c0,0-0.1,0-0.1-0.1c0,0,0,0,0-0.1c0,0,0.1-0.1,0.1-0.2       c0,0,0,0-0.1,0c0,0,0,0-0.1-0.1c0,0-0.1-0.1-0.1-0.1s-0.2,0-0.2-0.1c0,0,0-0.1,0-0.2c0-0.1,0,0-0.1-0.1c0,0-0.1-0.1-0.1-0.1       c0,0,0,0,0-0.1c0,0,0,0,0-0.1c0,0,0-0.1-0.1-0.1c-0.1-0.1-0.1-0.1-0.1-0.1c0,0,0-0.1,0-0.1c0-0.1,0,0,0.1,0c0,0,0,0,0-0.1       c0,0,0,0,0-0.1c0,0,0,0,0,0c0,0,0,0,0,0c0,0,0.1,0,0.1-0.1c0,0,0,0,0.1,0c0,0,0.1,0,0.1,0.1c0,0,0.1,0,0.1,0s0.1,0,0.2,0       c0.1,0,0,0,0,0.1c0,0,0.1,0.1,0.1,0.1c0,0,0.1,0.1,0.1,0.1c0,0,0.1,0.1,0.1,0.2c0,0,0,0.2,0,0.2l0,0.1l0.1,0.1c0,0,0,0.1,0,0.1       c0,0,0.1,0,0.1,0c0,0,0.1,0,0.1,0.1c0,0,0,0.1,0,0.1c0,0,0,0.1,0,0.1c0,0,0,0,0,0c0,0,0-0.1,0.1-0.1c0,0,0.1,0,0.1,0.1       c0,0,0.1,0,0.1,0c0,0,0.1,0.1,0.1,0.1c0,0,0.1,0.1,0.1,0.1c0,0,0.2,0,0.2,0.1c0.1,0,0.1,0.1,0.1,0.1s0.1,0,0.1,0c0,0,0,0,0.1,0       c0,0,0,0,0.1,0c0,0,0,0,0.1,0.1c0,0,0.1,0,0.1,0c0,0,0.1,0,0.1,0c0,0,0,0,0,0c0,0,0.1-0.1,0.1-0.1c0,0,0.1,0,0.1,0       c0,0,0.1,0,0.1,0c0,0,0,0.1,0,0.1c0,0.1,0,0.1,0,0.2c0,0,0.1,0.1,0.1,0.1s0,0,0.1,0c0,0,0.1,0,0.1,0c0,0,0.1,0,0.1,0       c0,0,0.1,0.1,0.1,0.1c0,0,0.2,0,0.2,0c0,0,0.2,0,0.2,0c0,0,0.2,0,0.3,0c0,0,0.1,0,0.1,0c0,0,0.1,0.1,0.1,0.1c0,0,0.1,0,0.1,0       c0,0,0,0,0,0c0,0,0.1,0,0.2,0c0,0,0.1,0,0.1,0c0,0,0.1,0,0.1,0s0.1,0,0.2,0c0,0,0,0,0.1,0c0,0,0.1,0,0.1,0c0,0,0.1,0,0.1,0       c0.1,0,0,0,0.1,0c0,0,0.1,0,0.1,0c0,0,0.1,0,0.1,0c0,0,0.1,0,0.1,0c0,0,0.1,0,0.1,0l0.2-0.1c0,0,0.1,0,0.1,0.1c0,0,0,0,0,0.1       c0,0,0,0.1,0,0.1c0,0,0.1,0,0.1,0c0,0,0,0.1,0.1,0.1c0,0,0,0.1,0,0.1c0,0,0,0.1,0.1,0.1c0,0,0,0.1,0,0.1c0,0,0.1,0,0.1,0       c0,0,0.1,0,0.1,0c0,0,0,0,0.1,0c0,0,0,0,0,0c0,0,0.1,0.1,0.1,0.1c0,0,0.1,0.1,0.1,0.1s0.1,0.1,0.1,0.1c0,0,0.1,0,0.1,0       c0,0,0.2,0,0.2,0c0.1,0,0.1,0,0.1,0c0,0,0,0-0.1,0.1c0,0,0,0-0.1,0c0,0-0.1,0-0.1,0c0,0-0.1,0-0.1,0c0,0,0,0.1,0,0.1       s0.1,0.1,0.1,0.1c0,0,0,0.1,0,0.1c0,0,0.1,0.1,0.1,0.1c0,0,0.1,0.1,0.1,0.1c0,0,0,0.1,0.1,0.1c0,0,0.1,0,0.1,0.1       c0,0,0.1,0,0.1,0c0.1,0,0.1,0,0.1,0c0,0,0.1,0,0.1-0.1c0.1-0.1,0.1,0,0.2-0.1c0,0,0.1-0.1,0.1-0.1c0,0,0-0.1,0-0.1       c0,0,0-0.1,0-0.2c0,0,0.1-0.1,0.1-0.1c0,0,0,0,0,0.1c0,0,0,0,0,0.1c0,0,0,0,0.1,0.1c0,0,0,0,0,0.1c0,0,0,0.1,0,0.1       c0,0,0,0.1,0,0.1c0,0,0,0.1,0,0.2c0,0,0,0.1,0,0.1s0,0.1,0,0.2c0,0.1,0,0.1,0,0.1c0,0,0,0.2,0,0.2c0,0,0,0.3,0,0.3       c0,0,0.1,0.1,0.1,0.1c0,0,0,0.1,0,0.1c0,0,0,0.1,0,0.1c0,0,0,0.1,0,0.1c0,0,0,0.1,0,0.1c0,0,0.1,0.1,0.1,0.1       c0,0,0.1,0.1,0.1,0.2c0,0,0,0.1,0.1,0.1c0,0,0,0.1,0.1,0.1c0,0,0,0.1,0,0.2c0,0,0,0.1,0,0.1s0,0.1,0.1,0.2c0,0.1,0,0.1,0.1,0.2       c0,0.1,0,0.1,0.1,0.1c0,0,0.1,0.1,0.1,0.1c0,0,0.1,0.1,0.1,0.1c0,0,0.1,0.3,0.1,0.3c0,0.1,0,0.1,0,0.1c0,0,0.1,0.1,0.1,0.1       s0,0.1,0,0.2c0,0,0,0.1,0,0.1c0,0,0.1,0,0.1,0.1c0,0,0,0.1,0,0.2c0,0.1,0.1,0.1,0.1,0.1c0,0,0.1,0,0.1,0.1       c0.1,0,0.1,0.1,0.1,0.1s0.1,0,0.1,0c0,0,0.1-0.1,0.1-0.1c0,0,0.1-0.1,0.1-0.1c0-0.1,0,0,0.1-0.1c0,0,0,0,0.1,0c0,0,0.1,0,0.1,0       c0,0,0,0,0.1,0c0,0,0.1,0,0.2,0c0,0,0,0-0.1,0c-0.1,0,0,0-0.1,0c0,0,0,0,0-0.1c0-0.1,0,0,0.1-0.1c0,0,0.1,0,0.1-0.1       c0,0,0.1-0.1,0.1-0.1c0,0,0.1-0.1,0.1-0.1c0,0,0,0,0-0.1c0-0.1,0,0,0-0.1c0-0.1,0-0.1,0-0.1c0,0,0-0.1,0-0.1       c0,0,0.1-0.1,0.1-0.1c0.1-0.1,0-0.1,0-0.2c0-0.1,0-0.1,0-0.1c0-0.1,0-0.1,0-0.1c0-0.1,0-0.1,0-0.2c0,0,0-0.1-0.1-0.2       c0-0.1,0-0.1,0-0.1c0,0,0-0.1,0.1-0.2c0-0.1,0.1-0.1,0.1-0.1c0,0,0.1,0,0.1,0c0,0,0,0,0.1,0c0,0,0,0,0-0.1c0,0,0,0,0.1-0.1       c0,0,0.1,0,0.1,0c0,0,0.1,0,0.1-0.1c0,0,0,0,0-0.1c0-0.1,0-0.1,0-0.1c0,0,0.1,0,0.1-0.1c0.1,0,0,0,0.1-0.1       c0-0.1,0.1-0.1,0.1-0.1c0,0,0.1-0.1,0.1-0.1c0,0,0.1-0.1,0.1-0.1c0,0,0.1-0.1,0.1-0.1c0,0,0.1-0.1,0.1-0.1c0,0,0.1-0.1,0.1-0.1       c0,0,0.1,0,0.1-0.1c0,0,0.1-0.1,0.1-0.2c0,0,0.1,0,0.1,0c0,0,0,0,0.1,0c0,0,0.1,0,0.1,0c0,0,0,0,0.1,0c0,0,0,0,0,0       c0,0,0,0,0.1-0.1c0-0.1,0.1,0,0.1-0.1c0,0,0,0,0-0.1c0-0.1,0-0.1,0-0.1c0,0,0.1,0,0.1-0.1c0,0,0.1,0,0.1,0s0.1-0.1,0.2-0.1       l0,0.1c0,0,0.1,0,0.1-0.1c0,0,0,0,0,0l0.1,0c0,0,0,0,0,0c0,0,0.1,0,0.1,0c0,0,0.1-0.1,0.1-0.1c0,0,0.1-0.1,0.1-0.1s0,0.1,0,0.1       c0,0,0,0,0.1,0c0,0,0.1,0,0.1,0c0,0,0.1-0.1,0.1-0.1c0,0,0.1,0,0.1,0c0,0,0.1,0,0.1-0.1c0,0,0.1,0,0.1,0c0,0,0.1,0,0.1,0       c0,0,0,0.1,0,0.1c0,0,0,0.1,0,0.2c0,0,0,0.1,0,0.1c0,0,0,0,0,0c0,0,0,0,0.1,0c0,0,0,0,0,0c0,0,0.1,0,0.1,0c0,0,0,0,0,0       c0,0.1-0.1,0.1-0.2,0.1c0,0,0.1,0.1,0.1,0.1l0,0.1c0,0,0,0,0.1,0c0,0,0.1,0.1,0.1,0.1c0,0,0,0.1,0,0.1s0.1,0,0.1,0       c0,0,0.1,0,0.1,0c0,0,0.1,0.1,0.1,0.1c0,0,0,0,0,0s0,0.1,0,0.1c0,0,0,0.1,0,0.1s0,0.1,0.1,0c0,0,0,0,0.1-0.1c0,0,0,0,0.1,0       c0.1,0,0,0,0,0c0,0,0.1,0.2,0.1,0.4c0,0.1,0,0.1,0,0.1c0,0,0,0.1,0,0.1c0,0,0,0.2,0,0.2c0,0,0,0.1,0,0.1c0,0,0,0.1,0,0.1       c0,0,0.1,0,0.1,0C100.2,248.6,100.3,248.7,100.5,248.7C100.4,248.7,100.4,248.7,100.5,248.7z"/>
					<path fill="#FFFFFF" d="M104,256.1L104,256.1c0-0.2,0-0.3,0-0.3v-0.1c0-0.1,0-0.2,0-0.2s0-0.1,0.1-0.1l0-0.1l-0.1-0.1       c0,0,0-0.1-0.1-0.1c0,0-0.1,0-0.1,0c0,0-0.1,0-0.1,0s0-0.1,0-0.1c0,0,0,0,0,0c0,0-0.1-0.1-0.1-0.1s0,0,0-0.1c0,0,0,0,0-0.1       c0,0,0,0,0,0c0-0.1-0.1-0.1-0.1-0.1s-0.1,0-0.1,0c0,0-0.1,0-0.1,0c0-0.1-0.1,0,0-0.1c0,0,0.1-0.1,0-0.1c0,0-0.1,0-0.1,0       c0,0,0,0,0,0c0-0.1,0,0,0-0.1c0,0,0,0,0,0c0-0.1,0,0,0-0.1c0,0,0-0.1-0.1-0.1c-0.1,0-0.1,0.1-0.1,0c0,0,0,0-0.1,0       c0,0,0-0.1-0.1-0.1c0,0-0.1-0.1-0.1,0c0,0-0.1,0-0.1,0c0,0,0,0,0-0.1c0,0,0-0.1,0-0.1s0-0.1-0.1-0.1c0,0-0.1,0-0.1,0       c-0.1,0,0-0.1-0.1-0.1c0,0-0.1,0.1-0.1,0.1c0,0,0,0,0-0.1c0,0,0-0.1,0-0.1c-0.1-0.1-0.1-0.1-0.1,0c0,0,0,0.1,0,0.1       s-0.1-0.1-0.1-0.1c0,0-0.1-0.1-0.1-0.1c0,0,0,0-0.1-0.1c0,0,0,0-0.1,0c0,0,0.1,0,0-0.1c-0.1-0.1-0.1-0.2-0.2-0.1       c0,0-0.1,0-0.1-0.1c0,0-0.1-0.1-0.1-0.1c0,0,0,0-0.1,0c0,0-0.1,0-0.1,0c0,0,0-0.1,0-0.1s0,0,0-0.1c0,0,0,0-0.1-0.1       c-0.1,0-0.1,0-0.1,0s0,0,0-0.1c0,0,0-0.1,0-0.1c0,0,0,0.1,0,0.1l-0.1-0.1c0,0-0.1,0-0.2,0c0,0-0.1-0.1-0.1-0.1       c-0.1,0-0.2,0-0.2,0s-0.1-0.1-0.1-0.1c0,0-0.1,0-0.1,0c0,0.1-0.1,0.1,0,0.2c0,0,0.1,0.1,0.1,0.2c0,0,0,0,0.1,0.1       c0.1,0,0.1,0.1,0.2,0.2c0,0.1,0,0,0,0.1c0,0-0.1,0.1,0,0c0.1,0,0.3,0,0.3,0.1c0,0,0.1,0.2,0.1,0.2l0,0.2c0.1,0.1,0.2,0,0.2,0.1       c0,0.1,0.1,0,0.1,0.1c0,0.1,0.1,0.1,0.1,0.2c0,0,0,0.1,0,0.1c0.1,0.1,0,0.2,0.1,0.2c0,0,0.2,0.1,0.2,0.1c0,0.1,0,0,0.1,0.1       c0,0.1,0.1,0.1,0.1,0.2c0,0,0,0,0.1,0.1c0,0.1,0.1,0.2,0.1,0.3c0,0.1,0.2,0.3,0.2,0.3s0.1,0,0.1,0.1c0,0.1,0.1,0,0.1,0.1       c0,0.1,0,0,0.1,0.1c0.1,0,0.1-0.2,0.1,0c0,0.2,0.1,0.3,0.1,0.3c0.1,0.1,0.3,0.2,0.3,0.2c0,0,0.1,0,0.2,0.1c0,0,0.1,0.1,0.1,0.1       c0,0.1,0-0.1,0.1-0.1c0,0,0.1,0,0.1,0l0.1,0.1l0.1,0L104,256.1z"/>
					<path fill="#FFFFFF" d="M107.6,255.3C107.7,255.3,107.7,255.3,107.6,255.3c0.1-0.1,0.1-0.2,0.1-0.2s0,0,0-0.1c0,0,0-0.1,0-0.1       c0,0,0-0.1,0-0.1c0,0,0.1-0.1,0.1-0.1c0,0,0.2-0.3,0.2-0.3s0-0.1,0-0.1c0,0,0-0.1,0-0.2c0,0,0-0.1,0-0.1c0,0,0-0.1,0.1-0.1       c0.1,0,0,0,0.1,0c0.1-0.1,0.1-0.2,0.1-0.1c0.1,0.1,0,0.1,0.1,0.1c0.1,0,0.1,0,0.1,0c0,0,0.1,0,0.1,0c0,0-0.1-0.1-0.1-0.1       c0,0-0.1-0.1-0.1-0.1s0-0.1-0.1-0.1c0,0-0.1-0.1-0.1-0.1c0,0,0,0,0-0.1c0-0.1,0-0.1,0-0.1c0,0-0.1-0.1-0.1-0.1       c0,0,0-0.1-0.1-0.1c0,0,0,0,0-0.1c0,0,0-0.1,0-0.1s0,0,0-0.1c0,0,0-0.1,0-0.1c0.1,0,0.1,0.1,0.1,0c0,0,0-0.1,0-0.1       c0,0-0.1,0,0-0.1c0,0,0-0.1,0.1,0c0,0,0.1,0,0.1,0l0,0c0.1,0,0.1,0,0.1,0s0-0.1,0-0.1c0,0,0,0-0.1-0.1c0-0.1,0-0.1,0-0.1       c0,0,0.1,0,0.1,0l0.1,0l0.1,0c0,0,0.1-0.1,0.1-0.1c-0.1,0-0.1,0-0.1,0c-0.1,0-0.1-0.1-0.1-0.1s-0.1,0-0.1,0c0,0,0,0-0.1-0.1       c0,0,0-0.1-0.1-0.1c0,0-0.1,0-0.1,0c0,0,0-0.1,0-0.1c0,0-0.1-0.1-0.1-0.1s0,0-0.1,0c0,0-0.1-0.1-0.1-0.1c-0.1,0-0.1,0-0.1,0       c0,0-0.1,0-0.1,0c0,0-0.1,0-0.1,0.1c0,0-0.1,0.1-0.1,0.1s-0.1,0-0.1,0.1c0,0,0,0.1,0,0.1c0,0-0.1,0.1-0.1,0.1c0,0,0,0,0,0.1       c0,0.1,0,0.1-0.1,0.1c0,0,0,0,0,0.1c0,0.1,0,0.1,0,0.1c0,0,0,0.1,0,0.1c0,0,0,0.1-0.1,0c-0.1,0-0.1,0-0.1,0       c-0.1,0.1-0.1,0.1-0.1,0.1c0,0-0.1-0.1-0.1-0.1c0,0,0-0.1,0-0.1c0,0,0-0.1,0,0c0,0,0,0,0,0.1c0,0.1,0,0,0,0.1       c0,0.1,0,0-0.1,0.1c-0.1,0.1-0.1,0.1-0.1,0.1c0,0,0,0-0.1,0.1c0,0,0,0-0.1,0.1c-0.1,0.1-0.1,0.1-0.1,0.1s-0.1,0-0.2,0       c0,0-0.1,0.1-0.1,0.1s0,0-0.1,0c0,0-0.1,0-0.1,0c0,0.1-0.1,0.1,0,0.1c0,0,0,0,0,0.1c0,0.1,0,0.1,0,0.1c0,0-0.1,0-0.1,0       c0,0-0.1,0-0.1,0c0,0,0,0-0.1,0c0,0-0.1,0.1-0.2,0c0-0.1,0-0.1,0-0.1c0,0-0.1,0-0.1,0.1c0,0-0.1,0.1-0.1,0.1c0,0,0,0.2,0,0.2       c0,0,0,0.1,0,0.1c0,0,0,0.1,0.1,0.1c0,0,0,0,0,0.1c0,0.1,0.1,0.3,0.1,0.3c0,0.1,0,0.1,0.1,0.1c0,0,0,0,0,0.1c0,0,0,0.1,0,0.1       c0,0.1,0.1,0.1,0.1,0.1s0,0.1,0,0.1c0,0,0,0,0,0.1c0,0,0.1,0,0.1,0l0.1,0c0,0,0.1,0,0.1,0c0,0,0.1,0,0.1,0c0,0,0,0,0.1,0       c0,0,0.1-0.1,0.1-0.1c0,0,0.1,0,0.1,0c0,0,0,0,0,0.1c0,0,0,0.1,0,0.1c0.1,0,0.2,0,0.2,0s0.1,0,0.1,0c0,0,0.1,0,0.1,0       c0,0,0.1-0.1,0.1-0.1c0.1,0,0.2,0.1,0.2,0.1c0,0.1,0,0.1,0,0.1c0.1,0,0.1-0.1,0.1-0.1c0.1,0,0.1-0.1,0.1,0c0,0.1,0,0.2,0,0.2       c0,0,0,0.1,0,0.1c0,0,0.1,0,0.1,0c0,0,0.1,0,0.1,0l0.1,0l0.1-0.1l0,0C107.5,255.5,107.5,255.4,107.6,255.3       C107.6,255.4,107.6,255.3,107.6,255.3z"/>
					<path fill="#FFFFFF" d="M113.1,242.2l-0.1-0.1l0-0.1c0,0,0,0-0.1,0c0,0-0.1,0-0.1,0c0,0-0.1,0-0.1,0c0,0,0,0-0.1,0       c0,0-0.1,0.1-0.1,0.1s-0.1,0.1-0.1,0.1c0,0,0,0-0.1,0c0,0,0,0.1,0,0.1c0,0,0,0.1,0,0.1l0,0.1l0,0l0.1,0c0,0,0-0.1,0-0.1       c0,0,0.1-0.1,0.1-0.1l0,0.1l0,0.1l-0.1,0.1c0,0,0,0.1,0,0.1c0,0,0,0,0,0.1l0,0.1c0,0,0,0.1,0,0.1c0,0.1,0,0,0.1,0       c0.1,0,0,0,0-0.1c0,0,0,0,0,0s0,0.1,0,0.1c0,0.1,0,0,0,0c0,0,0,0,0.1,0c0,0,0.1,0,0.1-0.1c0,0,0,0,0-0.1c0-0.1,0,0,0.1-0.1       c0,0,0,0,0-0.1c0,0,0,0,0-0.1c0,0,0-0.1,0.1-0.1C113.1,242.4,113.1,242.4,113.1,242.2C113.2,242.3,113.1,242.2,113.1,242.2z"/>
					<path fill="#FFFFFF" d="M116.6,239.7C116.6,239.7,116.6,239.6,116.6,239.7c0-0.1,0-0.1,0-0.2c0,0,0,0,0-0.1c0,0,0,0,0-0.1       c0,0-0.1-0.1-0.1-0.1c0,0,0,0,0,0c0,0,0,0,0-0.1c0,0,0,0-0.1-0.1c0,0,0,0,0,0c0,0,0,0,0,0c0,0,0,0,0-0.1c0,0,0,0,0,0       c0,0-0.1,0-0.1,0c0,0,0,0,0,0c0,0,0,0.1,0,0.1c0,0-0.1,0-0.1,0c0,0,0,0,0,0c0,0,0,0,0,0c0,0,0,0-0.1,0c0,0,0,0,0,0.1       c0,0,0,0.1,0,0.1c0,0,0,0-0.1,0c0,0,0,0,0,0c0,0,0,0,0,0s0,0,0,0.1c0,0,0,0,0,0c0,0,0,0,0,0.1c0,0,0,0.1,0,0.1c0,0,0,0,0,0.1       c0,0,0,0,0,0.1c0,0,0,0.1,0,0.1c0,0,0,0.1,0,0.1l0,0l0,0.1l0,0l0,0c0,0,0,0,0,0.1c0,0-0.1,0.1-0.1,0.1c0,0,0,0,0,0       c0,0,0,0.1,0,0.1s0,0-0.1,0.1c0,0,0,0,0,0.1c0,0-0.1,0-0.1,0c0,0-0.1,0-0.1,0c0,0,0,0.1,0,0.2c0,0,0,0,0,0s0,0,0,0c0,0,0,0,0,0       s-0.1,0-0.1,0c0,0,0,0-0.1,0c-0.1,0,0,0-0.1,0c0,0,0,0,0,0c0,0-0.1,0-0.1,0s-0.1,0-0.1,0c0,0-0.1,0-0.1,0c0,0,0,0,0,0l0,0       c0,0,0,0.1,0,0.1c0,0,0,0.1,0,0.1c0,0,0,0,0,0s0,0,0,0c0,0,0,0,0,0s0,0,0,0c0,0,0,0,0,0.1c0,0,0,0,0,0c0,0,0,0,0,0       c0,0,0,0.1,0,0.1c0,0,0,0,0,0s0,0,0,0c0,0,0,0,0,0c0,0,0,0,0,0c0,0,0,0-0.1,0c0,0,0,0,0,0l0,0c0,0,0,0,0,0c0,0-0.1,0-0.1,0       s-0.1,0-0.1,0c0,0,0,0-0.1,0c0,0,0,0-0.1,0c0,0,0,0,0,0c0,0,0,0,0,0s0,0,0,0c0,0,0,0,0,0c0,0,0,0,0,0s-0.1,0-0.1,0c0,0,0,0,0,0       s0,0,0,0c0,0,0,0,0,0c0,0,0,0,0,0l0,0l-0.1,0l0,0c0,0,0,0,0,0c0,0,0,0,0,0l-0.1,0.1l-0.1,0.1l-0.1,0.1l-0.1,0l-0.1,0.1       c0,0-0.1,0.1-0.1,0.1l-0.1,0.1c0,0,0,0-0.1,0c0,0,0,0.1,0,0.1s0,0,0,0c0,0,0,0,0,0c0,0,0,0,0,0c0,0,0,0,0.1,0c0,0,0.1,0,0.1,0       c0,0,0,0,0.1,0c0,0,0,0,0.1,0c0,0,0,0,0.1,0c0,0,0,0,0.1,0c0,0,0,0,0,0c0,0,0,0,0-0.1c0,0,0,0,0-0.1c0,0,0,0,0.1,0l0,0       c0,0,0,0,0.1,0c0,0,0,0,0.1,0c0,0,0,0,0,0c0,0,0,0,0.1,0c0,0,0,0,0.1,0c0,0,0,0,0.1,0c0,0,0,0,0,0c0,0,0,0,0,0c0,0,0,0,0.1,0       c0,0,0.1,0,0.1,0c0,0,0,0,0,0c0,0,0,0,0,0c0,0,0.1,0,0.1,0c0,0,0,0,0.1,0c0,0,0.1,0,0.2,0c0.1,0,0,0,0,0.1c0,0,0,0,0,0       c0,0,0,0,0,0c0,0,0,0.1,0,0.1c0,0,0,0,0,0c0,0,0,0,0,0c0,0,0,0,0,0c0,0,0,0,0,0c0,0,0,0,0,0l0.1,0c0,0,0,0,0.1,0c0,0,0,0,0,0       s0,0,0,0c0,0,0.1-0.1,0.1-0.1c0,0,0,0,0,0c0,0,0,0,0,0s0.1,0,0.1,0c0,0,0,0,0,0c0,0,0,0,0-0.1c0,0,0,0,0,0c0,0,0,0,0,0       c0,0,0,0,0,0c0,0,0,0,0-0.1c0,0,0.1,0.1,0.1,0.1s0.1,0,0.1,0c0,0,0,0,0,0c0,0,0.1,0,0.1,0c0,0,0.1,0,0.1,0l0.1,0c0,0,0,0,0.1,0       c0,0,0,0,0-0.1c0,0,0,0,0-0.1c0,0,0,0,0.1,0c0,0,0,0.1,0,0.1l0,0.1c0,0,0,0,0,0.1c0,0,0,0,0,0c0,0,0,0,0.1-0.1c0-0.1,0,0,0,0       c0,0,0,0,0-0.1c0,0,0,0,0,0c0,0,0,0,0.1,0c0,0,0,0,0,0c0,0,0,0,0,0s0,0,0,0c0,0,0,0,0,0.1c0,0,0,0,0,0c0,0,0.1,0,0.1,0       c0,0,0.1,0,0.1,0c0,0,0,0,0,0c0,0,0-0.1,0-0.1c0,0,0,0,0-0.1c0,0,0,0,0-0.1c0,0,0,0,0.1,0c0,0,0,0,0,0c0,0,0,0,0,0c0,0,0,0,0,0       c0,0,0,0,0,0c0,0,0,0,0-0.1c0,0,0-0.1,0-0.1c0,0,0-0.1,0.1-0.1c0,0,0,0,0.1-0.1c0,0,0,0,0.1-0.1c0,0,0-0.1,0-0.1c0,0,0,0,0-0.1       c0,0,0-0.1,0-0.1c0,0,0-0.1,0-0.1c0,0,0,0,0-0.1c0,0,0,0,0,0c0,0,0,0,0,0c0,0,0.1,0,0.1,0c0,0,0.1,0,0.1,0c0,0,0,0,0,0       c0,0,0-0.1,0-0.1s0,0,0-0.1c0,0,0,0,0,0c0,0,0.1,0,0.1,0c0,0,0,0,0-0.1C116.6,239.8,116.6,239.8,116.6,239.7       C116.6,239.8,116.6,239.8,116.6,239.7z"/>
					<path fill="#FFFFFF" d="M113.3,242.3C113.3,242.3,113.3,242.4,113.3,242.3C113.3,242.4,113.3,242.4,113.3,242.3       c0.1,0.1,0.1,0.1,0.1,0.1s0,0,0,0c0,0,0,0,0,0c0,0,0.1,0,0.1-0.1c0,0,0,0,0,0c0,0,0,0,0.1-0.1c0,0,0,0,0,0c0,0,0,0,0.1,0       c0,0,0,0,0,0c0,0,0,0,0,0c0,0,0.1,0,0.1,0s0.1,0,0.1,0c0,0,0,0,0,0s0,0,0-0.1c0,0,0-0.2,0-0.2s0,0,0,0c0,0-0.1,0-0.1,0       l-0.1-0.1l0,0l-0.1,0h0l0,0l0,0l-0.1,0l0,0c0,0,0,0,0,0c0,0-0.1,0-0.1,0c0,0-0.1,0-0.1,0c0,0,0,0-0.1,0c0,0,0,0,0,0s0,0,0,0.1       c0,0,0,0,0,0s-0.1,0-0.1,0c0,0-0.1,0-0.1,0s0.1,0,0.1,0c0,0,0,0,0,0C113.3,242.2,113.3,242.2,113.3,242.3       C113.3,242.3,113.3,242.3,113.3,242.3C113.3,242.3,113.3,242.3,113.3,242.3z"/>
					<path fill="#FFFFFF" d="M115.9,238.6C115.9,238.6,115.9,238.6,115.9,238.6C115.9,238.7,115.9,238.7,115.9,238.6       c0.1,0.1,0.1,0.1,0.1,0.1c0,0,0,0.1,0,0.1s0,0,0,0.1c0,0,0,0,0,0c0,0,0,0,0,0c0,0,0,0,0.1,0l0.1-0.1c0,0,0,0,0,0c0,0,0,0,0,0       c0,0,0,0,0,0c0,0,0.1,0,0.1,0c0,0,0,0,0.1,0c0,0,0,0,0,0c0,0,0,0,0,0c0,0,0,0-0.1,0c0,0,0,0-0.1,0c0,0-0.1,0-0.1,0       c0,0,0,0,0-0.1c0,0,0,0,0,0c0,0,0.1,0,0.1,0c0,0,0,0,0,0c0,0,0,0,0.1,0c0,0,0,0,0.1,0c0,0,0,0,0-0.1c0,0,0.1,0,0.1-0.1       c0,0,0,0,0,0c0,0,0,0,0,0c0,0,0,0,0.1,0c0,0,0,0,0,0c0,0,0,0,0.1,0c0,0,0,0,0,0s0,0,0.1,0c0,0,0.1,0,0.1,0c0,0,0.1,0,0.1,0       c0,0,0.1,0,0.1,0s0,0,0.1,0c0,0,0-0.1,0-0.1c0,0,0,0,0-0.1c0,0,0,0,0-0.1c-0.2-0.4-0.4-0.8-0.6-1.2c0,0,0,0,0,0       c0,0,0,0.1,0,0.1c0,0,0,0,0,0c0,0,0,0.1,0,0.1c0,0,0,0,0,0.1c0,0,0,0,0,0c0,0,0,0,0,0.1c0,0,0,0.1,0,0.1c0,0,0,0.1,0,0.1       c0,0,0,0,0,0c0,0-0.1,0-0.1,0s0,0.1,0,0.1c0,0,0,0.1,0,0.1c0,0,0,0,0,0s-0.1,0-0.1,0c0,0-0.1,0-0.1,0s-0.1,0-0.1,0c0,0,0,0,0,0       c0,0,0,0,0,0.1c0,0,0,0,0,0.1c0,0,0,0,0,0c0,0,0,0,0,0l-0.1,0.1l0,0c0,0,0,0.1-0.1,0.1C115.8,238.5,115.9,238.6,115.9,238.6       C115.9,238.6,115.9,238.6,115.9,238.6z"/>
					<path fill="#FFFFFF" d="M106.8,256.9C106.8,256.9,106.8,256.9,106.8,256.9c-0.1,0-0.2,0-0.2,0c-0.1,0-0.1-0.1-0.1-0.1       s0,0,0-0.1c0,0-0.1-0.1,0.1,0c0.2,0,0.2,0,0.3,0c0,0,0,0,0.1,0c0,0,0.1-0.1,0.1-0.1s0,0-0.1,0c0,0-0.1,0-0.2,0c0,0,0,0-0.1,0       c-0.1,0-0.1,0-0.1,0c0,0-0.1,0-0.1,0c0,0-0.1,0-0.1,0c-0.1-0.1-0.1-0.1-0.2-0.1c0,0-0.1,0-0.1,0s-0.1-0.1-0.1-0.1       c0,0,0,0-0.1,0c0,0,0-0.1-0.1,0c0,0,0,0,0,0c0,0,0,0,0,0c0,0,0,0,0,0c0,0.1-0.1,0.1-0.1,0.1s-0.1,0-0.1,0c-0.1,0-0.1,0-0.1,0       c-0.1,0,0-0.1-0.1,0c-0.1,0-0.2,0-0.2,0c0,0-0.1,0-0.1,0c0,0,0-0.1,0-0.1c-0.1-0.1-0.1-0.1-0.1-0.1l-0.1,0c-0.1,0-0.1,0-0.1,0       s-0.1-0.1-0.1-0.1c0,0-0.1,0-0.1,0.1c0,0-0.1,0-0.2,0c-0.1,0-0.1-0.1-0.1,0c-0.1,0.1-0.1,0.1-0.1,0.2c-0.1,0.1-0.1,0-0.1,0.1       c0.1,0,0.1,0.1,0.2,0.1c0,0,0.1,0,0.1,0s0.1,0,0.1,0.1c0,0,0,0,0,0.1c0,0,0,0.1,0.1,0.1c0,0,0.1,0,0.1,0h0.1l0.2,0.1l0.1,0       c0,0,0.2,0,0.2,0c0.1,0,0,0,0.1,0c0.1,0,0.1,0,0.1,0c0,0,0.1,0,0.1,0c0,0,0.1,0,0.1,0.1c0,0,0.1,0,0.1,0c0,0,0.1,0,0.1,0       c0,0,0.1,0,0.1,0c0,0,0.1,0,0.1,0c0,0,0.1,0,0.2,0c0,0,0,0,0.1,0c0.1,0,0,0,0.1,0c0,0,0.2,0,0.2,0l0.2,0       c0.1,0.1,0.1,0.1,0.2,0.1c0.1,0,0.1,0,0.1,0c0.1,0,0.1-0.1,0.1-0.1s0,0,0-0.1s0-0.1,0-0.1S107,256.9,106.8,256.9       C106.9,256.9,106.8,256.9,106.8,256.9z"/>
					<path fill="#FFFFFF" d="M109.8,255.8C109.9,255.8,109.9,255.8,109.8,255.8c0.1,0,0.2,0,0.1-0.1c-0.1-0.1-0.2-0.2-0.2-0.2       c0-0.1,0-0.1,0-0.1c0,0-0.1-0.1-0.1-0.1l-0.1-0.1l-0.1-0.1c0-0.1,0.1-0.1,0.1-0.1c0,0,0,0,0.1,0c0.1-0.1,0.1-0.1,0.2-0.1       c0,0,0,0,0.1-0.1c0,0,0-0.1,0-0.1s0.1,0,0.1,0c0-0.1,0-0.2-0.1-0.1c-0.1,0-0.1,0-0.1,0.1c0,0-0.1,0-0.2,0c0,0,0,0-0.1,0       c-0.1,0,0,0-0.1,0c-0.1,0,0,0-0.1,0c-0.1,0,0.1-0.1-0.1,0c-0.1,0.1-0.3,0.1-0.3,0.1s0,0,0-0.1c0,0,0-0.1,0-0.1       c0,0-0.1,0-0.1-0.1c-0.1-0.1-0.1-0.1-0.1-0.1c0-0.1,0,0,0-0.1c0-0.1,0-0.1,0.1-0.1c0,0,0,0,0.1,0c0.2,0,0.1,0,0.2,0       c0.1,0,0.2,0,0.2,0s0,0,0.1,0c0.1,0,0,0,0.1,0c0,0,0.1,0,0.1,0c0,0,0.1,0,0.1,0s0.1,0,0.1,0c0,0,0.1,0,0.1,0.1c0,0,0.1,0,0.1,0       c0,0,0.1-0.1,0.2-0.1c0.1,0,0.1,0,0.1-0.1c0.1-0.1,0.1-0.1,0.1-0.1c0,0,0-0.1,0-0.1c0,0,0-0.1,0-0.1c0,0,0-0.1-0.1-0.1       c-0.1,0-0.1,0-0.1,0.1c0,0.1-0.1,0.1-0.1,0.1c0,0.1-0.1,0.1-0.1,0.1c0,0-0.1,0-0.1,0c0,0-0.1,0-0.1,0c0,0,0,0-0.1,0       c-0.1,0-0.1,0-0.1,0c0,0-0.1,0-0.2,0c-0.1,0-0.1-0.1-0.1-0.1c0,0-0.1,0.1-0.1,0c-0.1-0.1-0.1-0.1-0.1-0.1c0,0-0.1,0-0.1,0       c0,0-0.1,0.1-0.1,0.1c0,0-0.1,0.1-0.1,0.1c0,0,0-0.1-0.1,0c-0.1,0.1,0,0-0.1,0.1c0,0.1-0.1,0-0.1,0.1c0,0.1,0,0,0,0.1       c0,0.1-0.1,0.2-0.1,0.2c0,0,0,0-0.1,0.1c-0.1,0.1,0,0-0.1,0.1c0,0.1,0,0.1,0,0.2c0,0.1,0,0,0,0.1c0,0.1-0.1,0,0,0.1       c0,0.1,0,0,0,0.1c0,0.1-0.1,0,0,0.1c0,0.1,0,0.1,0,0.2c0,0,0,0,0.1,0c0.1,0,0.1,0,0.1,0c0,0.1,0,0.1,0,0.2c0,0.1,0,0,0,0.1       c0,0.1,0.1,0,0,0.1c0,0.1,0,0.1,0,0.2c0,0.1-0.1,0.1-0.1,0.1c0,0,0,0.1,0.1,0.1c0.1,0,0.1,0.1,0.1,0c0.1,0,0.1-0.1,0.1-0.1       c0-0.1,0-0.1,0-0.2c0,0,0-0.2,0-0.2c0,0,0-0.1,0-0.2c0-0.1,0,0,0-0.2c0-0.2,0.1-0.2,0.1-0.2c0.1,0,0.1,0,0.1,0.1       c0,0.1-0.1,0.1-0.1,0.1c0,0-0.1,0,0,0.1c0.1,0.1,0-0.1,0.1,0.1c0.1,0.1,0.1,0.1,0.1,0.2c0,0,0,0,0,0.1c0,0.1,0,0.1,0,0.1       C109.6,255.9,109.7,255.9,109.8,255.8C109.7,255.8,109.8,255.8,109.8,255.8z"/>
					<path fill="#FFFFFF" d="M107.3,257.1c-0.1,0-0.1,0-0.1,0c0,0.1,0,0.1,0,0.1c0,0,0,0,0.1,0.1c0.1,0.1,0.1,0.1,0.1,0.1       c0,0,0,0,0-0.1c0.1-0.1,0.1-0.1,0.1-0.1C107.4,257.1,107.3,257.1,107.3,257.1z"/>
					<path fill="#FFFFFF" d="M107.8,257.1c0,0-0.1,0-0.2,0c0,0,0,0.1-0.1,0.1c0,0,0,0,0,0.1l0,0c0,0,0.1,0,0.1,0c0,0,0,0,0,0       C107.8,257.3,107.8,257.2,107.8,257.1z"/>
					<path fill="#FFFFFF" d="M108,257.2c0,0-0.1,0-0.1,0s0,0-0.1,0c0,0-0.1,0.1,0,0.1c0,0.1,0,0.1,0.1,0.1c0,0,0.1,0.1,0.1,0       c0,0,0.1-0.1,0.1-0.1c0.1-0.1,0-0.1,0-0.1C108.1,257.2,108.1,257.2,108,257.2z"/>
					<path fill="#FFFFFF" d="M108.6,257.3c0,0,0-0.1,0-0.1c-0.1,0-0.2,0-0.2,0c-0.1-0.1-0.2-0.1-0.3,0c-0.1,0,0.2,0,0.2,0.1       c0,0.1,0,0.1,0,0.1c0,0,0.1,0.1,0.1,0.1C108.5,257.4,108.6,257.3,108.6,257.3C108.6,257.3,108.6,257.3,108.6,257.3z"/>
					<path fill="#FFFFFF" d="M109.7,257.2c0,0-0.1,0-0.1,0c0,0,0,0-0.1,0c-0.1,0-0.1,0-0.1,0c0,0,0-0.1-0.1-0.1c-0.1,0-0.1,0-0.1,0       c-0.1,0-0.1,0-0.1,0c0,0-0.1,0-0.1,0s-0.1,0.1-0.1,0.1c0,0,0.1,0,0.1,0.1c0.1,0,0.1,0,0.2,0c0,0,0.1,0,0.1,0c0.1,0,0.2,0,0.2,0       c0.1,0,0.2,0,0.2,0C109.7,257.2,109.7,257.2,109.7,257.2z"/>
					<path fill="#FFFFFF" d="M110.2,257.2C110.3,257.2,110.3,257.2,110.2,257.2c0.2,0,0.2,0,0.2,0c0.1,0,0.1,0,0.1,0       c0.1,0,0.1,0,0.1,0c0.1-0.1,0.1-0.1,0.1-0.1c0,0-0.1,0-0.1,0s-0.1,0-0.1,0c0,0-0.1,0-0.1,0l0,0.1       C110.4,257.2,110.3,257.1,110.2,257.2C110.3,257.1,110.2,257.1,110.2,257.2C110.1,257.2,110.1,257.2,110.2,257.2       C110.2,257.2,110.1,257.2,110.2,257.2z"/>
					<path fill="#FFFFFF" d="M109.9,257.1C109.9,257.1,109.9,257.1,109.9,257.1c-0.1,0.1-0.1,0.1-0.1,0.1s-0.1,0-0.1,0       c0.1,0,0.1,0,0.1,0l0.1-0.1c0,0,0.1,0,0.1,0c0,0,0.1-0.1,0-0.1C110,257.1,110,257.1,109.9,257.1z"/>
					<path fill="#FFFFFF" d="M110.6,257.4C110.6,257.4,110.6,257.4,110.6,257.4C110.6,257.4,110.6,257.4,110.6,257.4L110.6,257.4z"/>
					<path fill="#FFFFFF" d="M110.7,257.4C110.6,257.4,110.6,257.4,110.7,257.4c-0.1,0-0.2,0-0.3,0.1c0,0,0,0-0.1,0       c-0.1,0.1-0.1,0.1-0.1,0.1c0,0.1-0.1,0,0,0.1c0,0.1,0,0.1,0,0.1c0,0,0,0,0.1,0c0.1,0,0.1-0.1,0.2-0.1c0.1,0,0,0,0.1,0       c0.1,0,0.1-0.1,0.1-0.1c0,0,0.1,0,0.1-0.1c0,0,0-0.1,0-0.1C110.7,257.4,110.8,257.4,110.7,257.4z"/>
					<path fill="#FFFFFF" d="M111.4,257.1c0,0-0.2,0-0.2,0c0,0-0.1,0-0.1,0s-0.1,0-0.1,0c0,0-0.1,0-0.1,0c0,0-0.1,0-0.1,0.1       c0,0-0.1,0.1,0,0.1c0,0,0.1,0,0.1,0c0,0,0,0.1,0,0.1c0.1,0,0.3,0,0.4-0.1c0.1-0.1,0.1,0,0.2-0.1c0.1,0,0.1,0,0.1-0.1       c0,0,0,0,0.1-0.1C111.5,257.1,111.5,257.1,111.4,257.1z"/>
					<path fill="#FFFFFF" d="M109.2,257.7C109.1,257.6,109.1,257.6,109.2,257.7c-0.1-0.1-0.1-0.1-0.2-0.1c-0.1,0-0.1,0-0.2,0       c-0.1,0-0.1,0-0.1,0c0,0-0.1,0-0.1,0c0,0,0,0,0,0.1c0,0.1,0.1,0.1,0.1,0c0,0,0.1,0,0.2,0c0,0,0,0,0.1,0c0.1,0,0,0,0.1,0       c0,0,0.1,0,0.1,0C109.2,257.8,109.3,257.8,109.2,257.7C109.2,257.7,109.2,257.7,109.2,257.7z"/>
					<path fill="#FFFFFF" d="M111.1,254.9c0,0-0.1,0-0.2,0c0,0-0.1,0-0.1,0c0,0-0.1,0-0.2,0c-0.1,0,0,0-0.1-0.1       c-0.1-0.1-0.1,0-0.1,0.1c0,0.1,0.1,0,0.1,0.1c0,0,0.2,0,0.3-0.1c0,0,0,0,0.1,0.1c0,0,0,0,0,0.1       C111.1,255.1,111.1,255.1,111.1,254.9C111,254.8,111.1,254.9,111.1,254.9z"/>
					<path fill="#FFFFFF" d="M110.2,254.8C110.3,254.8,110.2,254.8,110.2,254.8c0-0.1,0-0.2-0.1-0.2c-0.1,0,0,0-0.1,0       c-0.1,0,0,0,0,0c0,0,0,0.2,0.1,0.1C110.1,254.8,110.2,254.8,110.2,254.8z"/>
					<path fill="#FFFFFF" d="M108.6,250.8C108.5,250.8,108.7,250.7,108.6,250.8L108.6,250.8z"/>
					<path fill="#FFFFFF" d="M108.7,250.6C108.8,250.6,108.8,250.7,108.7,250.6c0.1-0.2,0.1-0.2,0.1-0.2c0,0,0-0.1,0-0.1       c0,0,0-0.1,0-0.1s0,0.1-0.1,0.1C108.7,250.5,108.7,250.5,108.7,250.6c-0.2,0-0.2,0-0.2,0.1c-0.1,0-0.1,0-0.1,0.1c0,0,0,0,0,0.1       c0,0-0.1,0.1-0.1,0.1c0,0-0.1,0-0.1,0.1c0,0,0,0-0.1,0.1c0,0.1-0.1,0.1-0.1,0.1c0,0,0.1-0.1,0.1-0.1c0,0,0.1,0,0.1-0.1       c0,0,0,0,0.1-0.1c0,0,0.1-0.1,0.1-0.1c0.1-0.1,0.1-0.1,0.1-0.1c0-0.1-0.1,0,0-0.1c0.1,0,0,0,0.1,0       C108.7,250.7,108.7,250.7,108.7,250.6z"/>
					<path fill="#FFFFFF" d="M109.5,249.4L109.5,249.4l0.1-0.1c0,0,0-0.1-0.1-0.1c0,0,0-0.1,0-0.1s0,0,0-0.1c0,0,0,0.1,0-0.1       c0-0.1,0-0.1,0-0.2c0,0,0.1,0,0.1,0c0,0,0-0.1,0-0.1c0,0,0.1,0,0.1-0.1c0,0,0.1-0.1,0.1-0.1s0,0,0-0.1c0,0,0,0,0-0.1       c0,0,0,0,0,0c0,0,0-0.1,0-0.1c0,0-0.1-0.1-0.1-0.1c0,0,0,0,0-0.1c0-0.1,0,0,0-0.1c0,0,0-0.1,0-0.1c0,0,0-0.1,0-0.1       c0,0,0-0.1-0.1-0.1c0,0,0,0-0.1,0c0,0,0,0.1,0,0c0,0,0-0.1-0.1-0.1c-0.1,0-0.1,0-0.1,0c0,0,0-0.1-0.1,0c-0.1,0-0.1,0-0.1,0.1       c0,0,0,0,0,0.1c0,0.1,0,0.1,0,0.1c0,0,0,0.1,0,0.1c0,0,0,0.1,0,0.1c0,0,0,0,0,0.1c0,0.1,0,0,0,0.1c0,0.1,0,0,0,0.1       c0,0.1,0,0,0,0.1c0,0-0.1,0-0.1,0c0,0-0.1,0-0.1,0c0,0-0.1,0-0.1,0c0,0,0,0,0,0.1c0,0,0,0,0,0.1c0,0,0,0,0,0.1       c0,0.1,0,0.1,0,0.1c0,0.1,0,0,0,0.1c0,0.1,0,0,0,0.1c0,0.1,0,0,0.1,0.1c0.1,0,0,0,0.1,0c0,0,0,0,0,0c0,0,0,0,0.1,0c0,0,0,0,0,0       c0.1,0,0.1,0,0.1,0.1c0,0-0.1,0-0.1,0.1c0,0,0,0-0.1,0c0,0-0.1,0-0.1,0c0,0.1,0,0.1,0,0.1c0,0,0,0,0.1,0c0,0,0.1,0,0.1,0       C109.4,249.5,109.4,249.5,109.5,249.4C109.5,249.4,109.5,249.4,109.5,249.4z"/>
					<path fill="#FFFFFF" d="M109.4,249.6c-0.1-0.1-0.2-0.1-0.2-0.1c0,0,0,0-0.1,0c0,0,0,0-0.1,0c0,0-0.1-0.1-0.1-0.1c0,0,0,0,0,0.1       c0,0,0,0,0.1,0.1c0,0,0,0.1,0,0.1c0,0,0,0.1,0.1,0.1c0,0,0,0,0,0.1c0,0.1,0,0.1,0.1,0.1c0,0,0,0.1,0.1,0.1c0,0,0,0,0.1,0       c0,0,0.1,0,0.1-0.1c0,0,0-0.1,0-0.1C109.4,249.7,109.4,249.7,109.4,249.6C109.4,249.6,109.5,249.6,109.4,249.6z"/>
					<path fill="#FFFFFF" d="M109.8,249.3C109.7,249.3,109.7,249.3,109.8,249.3c-0.1,0-0.1,0-0.1,0c0,0-0.1,0,0,0.1c0,0,0.1,0,0.1,0       c0.1,0.1,0,0.1,0.1,0.1c0,0,0,0,0.1,0c0,0.1,0,0.1,0,0.1c0,0,0.1,0,0-0.1c0-0.1-0.1-0.1-0.1-0.2c0,0,0,0,0,0c0.1,0,0.1,0,0.1,0       C109.9,249.4,109.9,249.4,109.8,249.3C109.8,249.3,109.8,249.3,109.8,249.3z"/>
					<path fill="#FFFFFF" d="M110,249.3C110,249.2,109.9,249.2,110,249.3c-0.1,0-0.2,0-0.2,0c0,0,0,0,0,0c0,0,0,0.1,0,0.1       s0.1,0,0.1,0c0,0,0,0,0,0.1c0,0,0,0,0,0c0,0-0.1,0,0,0c0.1,0,0.1,0,0.1,0.1c0,0.1,0,0.1,0.1,0.1c0,0,0,0,0.1,0c0,0,0,0,0,0       c0.1,0.1,0.1,0.1,0.1,0.1c0.1,0,0.1,0,0.1,0c0,0,0,0,0-0.1c0,0,0-0.1,0-0.1c0,0,0,0,0,0c0,0,0-0.1,0-0.1c0,0-0.1,0-0.1,0       c0,0-0.1,0,0-0.1c0,0,0,0,0,0c0,0,0.1-0.1,0.1-0.1c0-0.1,0-0.1-0.1-0.1c0,0,0,0-0.1,0c0-0.1-0.1-0.1-0.1,0c0,0,0,0.1,0,0.1       c0,0,0,0,0,0c0,0,0,0,0,0C110,249.3,110,249.3,110,249.3z"/>
					<path fill="#FFFFFF" d="M110.4,249.3C110.4,249.3,110.4,249.4,110.4,249.3c0,0.1-0.1,0.1,0,0.1c0.1,0,0,0,0.1,0       c0.1,0,0.1,0,0.1,0c0,0,0,0,0-0.1c0,0,0,0,0,0C110.4,249.3,110.4,249.3,110.4,249.3z"/>
					<path fill="#FFFFFF" d="M110.4,249.5C110.3,249.5,110.5,249.5,110.4,249.5L110.4,249.5z"/>
					<path fill="#FFFFFF" d="M109.6,250.6C109.6,250.6,109.6,250.6,109.6,250.6C109.7,250.5,109.7,250.5,109.6,250.6       c0.1-0.1,0.1-0.1,0.2-0.1c0,0,0.1,0.1,0.1,0c0-0.1,0-0.1,0-0.1c0.1,0,0.1,0,0.1-0.1c0.1-0.1,0.1-0.1,0.1-0.1l0-0.1l-0.1,0       c0,0,0,0-0.1,0c0,0-0.1,0-0.1,0c0,0-0.1-0.1-0.1-0.1c-0.1,0-0.2,0-0.1-0.1c0,0,0,0,0-0.1c0.1-0.1,0.1-0.1,0.1-0.1       c0,0,0-0.1-0.1-0.1c0,0-0.1,0-0.1,0c0,0,0,0,0,0.1c0,0,0,0,0,0.1c0,0,0,0,0,0c0,0,0,0,0,0.1c0,0,0,0,0,0c0,0,0,0,0,0.1       c0,0.1,0,0.1,0,0.2c0,0.1,0,0,0,0.1C109.6,250.5,109.6,250.5,109.6,250.6C109.6,250.6,109.6,250.6,109.6,250.6z"/>
					<path fill="#FFFFFF" d="M110.1,250.9C110.2,250.8,110.2,250.8,110.1,250.9c0.1-0.1,0.1-0.2,0.2-0.2c0-0.1,0,0,0-0.1       c0,0,0-0.1,0-0.1c0,0,0-0.1,0-0.1c0-0.1,0,0,0-0.1c0,0,0,0,0,0.1c0,0,0,0,0,0.1c0,0,0,0.1,0,0.1c0,0,0,0,0,0.1c0,0,0,0,0,0.1       c0,0.1,0,0,0,0c0,0,0,0,0-0.1c0,0,0,0,0-0.1c0,0,0,0,0-0.1c0,0,0,0,0-0.1c0,0,0,0,0,0c0,0,0,0-0.1,0c0,0-0.1,0.1-0.1,0.1       c0,0,0,0,0,0.1c0,0,0,0,0,0.1c0,0,0,0,0,0.1c0,0,0,0.1,0,0.1s0,0-0.1,0.1c0,0,0,0-0.1,0c-0.1,0,0,0,0,0.1c0,0,0,0.1,0.1,0.1       c0,0,0.1,0.1,0.1,0.1c0,0,0.1,0.1,0.1,0.1s0,0,0-0.1c0-0.1,0,0,0-0.1c0,0,0,0,0-0.1C110.1,250.7,110.1,250.8,110.1,250.9       C110.1,250.8,110.1,250.8,110.1,250.9C110.1,251,110.1,250.9,110.1,250.9z"/>
					<path fill="#FFFFFF" d="M110.4,250.9L110.4,250.9c0.1,0,0.1,0,0.1-0.1c0,0,0.1,0,0.1-0.1c0,0,0-0.1,0-0.1c0,0,0,0-0.1,0       c0,0,0,0-0.1,0c0,0-0.1,0.1-0.1,0.1c0,0,0,0,0,0.1C110.2,250.8,110.3,250.9,110.4,250.9C110.3,250.9,110.4,250.9,110.4,250.9z"/>
					<path fill="#FFFFFF" d="M110.9,250C110.9,249.9,110.9,249.9,110.9,250c-0.1-0.1-0.1-0.2-0.2-0.2c0,0-0.1,0-0.1,0c0,0,0,0-0.1,0       c0,0-0.1,0-0.1,0c0,0-0.1-0.1-0.1,0c0,0.1,0,0.1,0,0.1c0,0,0.1,0,0.1,0.1c0,0,0,0.1,0,0.1c0,0,0,0,0,0c0,0-0.1,0-0.1,0       c0,0,0,0,0,0.1c0,0,0,0,0,0.1c0,0,0,0.1,0,0.1c0,0,0.1,0.1,0.1,0.1c0,0,0,0,0.1,0c0,0,0,0,0,0.1c0,0-0.1,0.1,0,0.1       c0,0,0,0.1,0,0.1c0,0,0,0,0.1,0c0,0,0,0,0.1-0.1c0,0,0-0.1,0-0.1s0,0,0-0.1c0-0.1-0.1-0.1,0-0.1c0.1,0,0.1,0,0.1,0       c0,0,0.1-0.1,0.1-0.1c0-0.1,0,0,0-0.1C110.9,250.1,110.9,250.1,110.9,250C110.9,250,110.9,250,110.9,250z"/>
					<path fill="#FFFFFF" d="M109.7,249.6C109.7,249.6,109.7,249.6,109.7,249.6c0-0.1-0.1-0.1-0.1-0.1       C109.6,249.5,109.6,249.6,109.7,249.6C109.6,249.6,109.6,249.6,109.7,249.6z"/>
					<path fill="#FFFFFF" d="M110,250.1c0,0,0.1,0,0.1,0c0,0,0,0,0-0.1c0,0,0-0.1,0-0.1c0,0,0.1,0,0.1,0c0,0,0,0.1,0,0.1       c0,0,0-0.1,0-0.1c0,0,0,0,0-0.1c0,0,0-0.1,0-0.1c0,0-0.1,0-0.1,0c0,0,0,0-0.1,0c0,0,0,0-0.1,0c0,0,0-0.1-0.1-0.1       c0,0,0,0.1,0,0.2c0,0,0,0.1,0,0.1C110,250,110,250.1,110,250.1z"/>
					<path fill="#FFFFFF" d="M110.8,252.3C110.7,252.3,110.8,252.3,110.8,252.3L110.8,252.3z"/>
					<path fill="#FFFFFF" d="M111.2,251.7C111.2,251.7,111.2,251.6,111.2,251.7c0-0.1-0.1-0.1-0.1-0.1s0,0,0-0.1c0,0,0-0.1,0-0.1       s0-0.1,0-0.1c0,0,0-0.1,0-0.1s0,0,0-0.1c0,0,0,0,0,0c0,0,0,0,0-0.1c0,0,0-0.1,0-0.1c0,0-0.1-0.1-0.1-0.1s0,0-0.1,0       c0,0-0.1,0-0.1,0.1c0,0.1,0,0.1,0,0.1c0,0-0.1,0-0.1,0.1c0,0.1-0.1,0-0.1,0.1c-0.1,0,0,0,0,0.1c0,0,0,0-0.1,0c0,0,0-0.1-0.1,0       c0,0.1-0.1,0,0,0.1c0,0.1,0,0,0,0.1c0,0-0.1,0-0.1,0c0,0,0-0.1,0-0.1c0,0,0,0,0,0c0,0-0.1,0-0.1,0c0,0,0,0-0.1,0c0,0,0,0-0.1,0       c0,0-0.1,0-0.1,0.1c0,0,0,0,0,0.1c0,0,0,0-0.1,0c0,0-0.1,0-0.1,0c-0.1,0-0.1,0.1-0.1,0.1c0,0,0,0.1,0,0.1c0,0,0,0,0,0.1       c0,0,0,0,0,0.1c0,0.1,0,0,0,0.1c0,0,0,0.1,0,0.1c0,0,0,0.1,0.1,0c0,0,0,0,0-0.1l-0.1-0.1c0,0,0.1-0.1,0.1-0.1c0,0,0,0,0,0       c0,0,0,0,0-0.1c0-0.1,0,0,0-0.1c0,0,0-0.1,0.1-0.1c0,0,0.1,0,0.1,0c0,0,0,0.1,0,0.1h0.1c0-0.1,0.1-0.1,0.1,0c0,0,0,0.1,0,0.1       c0,0,0,0,0.1,0c0,0,0-0.1,0-0.1l0-0.1c0,0,0,0,0.1,0c0,0,0.1,0,0.1,0c0,0,0,0.1,0,0.1c0,0,0,0,0,0c0,0.1,0,0,0,0.1       c0,0.1,0,0.1,0,0.1c0,0,0,0,0,0.1c0,0.1,0,0,0,0.1c0,0.1,0.1,0.1,0.1,0.1c0,0,0,0.1,0.1,0.1c0,0,0,0,0,0c0.1,0,0,0,0.1,0       c0,0,0,0,0,0c0,0,0,0,0,0c0.1,0.1,0.1,0,0.1,0.1c0,0,0,0,0,0c0,0,0,0,0,0c0,0,0,0,0,0c0.1,0,0.1,0,0.1,0c0,0,0-0.1,0-0.1       c0.1-0.1,0.1,0,0.1-0.1c0-0.1,0-0.1,0-0.1s0,0,0,0c0,0,0-0.1,0-0.1c0,0,0-0.1,0-0.1c0,0.1,0.1,0,0.1,0s0,0,0-0.1       c0,0,0-0.1,0.1,0c0,0,0,0,0,0.1c0,0,0,0.1,0,0.1c0,0,0,0.1,0,0.1c0.1-0.2,0.1-0.2,0.1-0.2C111.2,251.8,111.2,251.8,111.2,251.7       C111.3,251.7,111.2,251.7,111.2,251.7z"/>
					<path fill="#FFFFFF" d="M110.9,250.6C110.9,250.6,110.9,250.6,110.9,250.6c0,0.2,0,0.2,0,0.2       C110.9,250.8,111,250.7,110.9,250.6C111,250.6,110.9,250.6,110.9,250.6z"/>
					<path fill="#FFFFFF" d="M111.1,250.9C111.1,250.9,111.1,250.9,111.1,250.9c0-0.1,0.1-0.1,0-0.1c0,0,0-0.1-0.1,0       C111,250.8,111,250.8,111.1,250.9C111.1,250.9,111.1,250.9,111.1,250.9z"/>
					<path fill="#FFFFFF" d="M109.3,252.1C109.3,252.2,109.2,252.1,109.3,252.1C109.3,252.2,109.2,252.2,109.3,252.1       c0.1,0.1,0.1,0.1,0.1,0.1c0.1,0,0-0.1,0-0.1C109.4,252.1,109.3,252.1,109.3,252.1z"/>
					<path fill="#FFFFFF" d="M109.6,252.2c0-0.1,0-0.1,0-0.1C109.6,252.1,109.5,252.2,109.6,252.2       C109.6,252.2,109.6,252.3,109.6,252.2z"/>
					<path fill="#FFFFFF" d="M111.3,252.9c0.1,0,0-0.1,0.1-0.1c0,0,0,0,0-0.1c0,0,0-0.1,0-0.1c0,0-0.1,0-0.1,0       C111.2,252.7,111.3,252.8,111.3,252.9C111.3,252.9,111.2,253,111.3,252.9z"/>
					<path fill="#FFFFFF" d="M109,246.2c0.1,0.2,0.1,0.2,0.2,0.2c0,0,0.1,0,0.1,0c0.1-0.1,0-0.1,0.1-0.2c0,0,0,0,0.1-0.1       c0.1-0.1,0.1-0.2,0.1-0.2c0,0,0,0,0-0.1c0-0.1,0-0.1,0-0.1c0-0.1,0,0,0-0.1c0.1-0.1,0.1,0.1,0.1-0.1c0-0.2,0-0.1,0-0.2       c0-0.1,0-0.1-0.1-0.1c0,0-0.1,0-0.1,0c0,0-0.1,0-0.1,0c0,0,0,0-0.1,0.1c0,0,0,0.1-0.1,0.1c0,0.1-0.1,0.1-0.1,0.1       c0,0.1-0.1,0.1-0.1,0.1c0,0,0,0.1,0,0.1c0,0.1,0,0,0,0.1C109,246.1,108.9,246.1,109,246.2z"/>
					<path fill="#FFFFFF" d="M95.4,251.1c0,0,0-0.1-0.1-0.2c-0.1-0.1-0.2-0.1-0.3-0.2c0,0,0,0.2,0,0.3c0,0.1-0.2,0-0.1,0       c0.1,0,0,0.1,0.1,0.2c0.1,0.1,0,0.4,0,0.5c0,0.1,0,0.3,0.1,0.3c0.3,0.1,0.2,0.2,0.3,0.1c0.1-0.1,0.2-0.2,0.2-0.2l0-0.2       c0,0,0-0.1,0-0.2C95.6,251.5,95.4,251.1,95.4,251.1z"/>
					<path fill="#FFFFFF" d="M104.1,254.9c0-0.1,0-0.1-0.1-0.1c-0.1,0-0.2,0-0.2,0c0,0-0.1,0,0,0.1c0.1,0.1,0.1,0,0.1,0.1       c0.1,0,0,0.1,0.1,0.1c0.1,0.1,0.1,0.1,0.1,0.1c0.1,0.1,0.1,0.1,0.1,0.1c0-0.1,0-0.1,0-0.1c0,0-0.1,0-0.1-0.1       C104.2,255,104.1,255,104.1,254.9z"/>
					<path fill="#FFFFFF" d="M104.7,255.1c0,0.1,0,0.1,0,0.2c0,0,0,0,0.1,0c0.1,0,0.1,0,0.1-0.1c0-0.1,0-0.1,0-0.1       C104.8,255.1,104.7,255.1,104.7,255.1z"/>
					<path fill="#FFFFFF" d="M111.3,257c0.1,0,0.1,0,0.1-0.1c0-0.1-0.2,0-0.3,0c-0.1,0-0.1,0.2-0.1,0.2C111,257,111.1,257,111.3,257       z"/>
					<path fill="#FFFFFF" d="M111.4,242.1C111.4,242.1,111.3,242.1,111.4,242.1c-0.1-0.1-0.3,0-0.2,0.1c0,0.1,0,0.1,0.1,0.1       C111.4,242.2,111.4,242.2,111.4,242.1z"/>
					<path fill="#FFFFFF" d="M115.5,256.8C115.5,256.8,115.5,256.8,115.5,256.8C115.5,256.8,115.5,256.8,115.5,256.8z"/>
				</g>
			</g>
		</g>
	</g>
</g>
</svg>