<?xml version="1.0" encoding="UTF-8" standalone="no"?>
<!-- Created with Inkscape (http://www.inkscape.org/) -->

<svg
   id="svg2985"
   sodipodi:docname="NTV_(Bangladesh)_logo.svg"
   height="103.45"
   width="181.45"
   version="1.1"
   inkscape:version="1.4.3 (0d15f75, 2025-12-25)"
   xmlns:inkscape="http://www.inkscape.org/namespaces/inkscape"
   xmlns:sodipodi="http://sodipodi.sourceforge.net/DTD/sodipodi-0.dtd"
   xmlns="http://www.w3.org/2000/svg"
   xmlns:svg="http://www.w3.org/2000/svg"
   xmlns:rdf="http://www.w3.org/1999/02/22-rdf-syntax-ns#"
   xmlns:cc="http://creativecommons.org/ns#"
   xmlns:dc="http://purl.org/dc/elements/1.1/">
  <defs
     id="defs1" />
  <metadata
     id="metadata2991">
    <rdf:RDF>
      <cc:Work
         rdf:about="">
        <dc:format>image/svg+xml</dc:format>
        <dc:type
           rdf:resource="http://purl.org/dc/dcmitype/StillImage" />
        <dc:title />
      </cc:Work>
    </rdf:RDF>
  </metadata>
  <sodipodi:namedview
     id="namedview2987"
     inkscape:showpageshadow="false"
     inkscape:zoom="2.8284271"
     borderopacity="1"
     inkscape:current-layer="layer1"
     inkscape:cx="111.54609"
     inkscape:cy="-3.0052038"
     borderlayer="true"
     inkscape:window-maximized="1"
     showgrid="false"
     bordercolor="#666666"
     inkscape:window-x="-9"
     guidetolerance="10"
     objecttolerance="10"
     inkscape:window-y="-9"
     inkscape:window-width="1920"
     inkscape:pageopacity="0"
     inkscape:pageshadow="2"
     pagecolor="#ffffff"
     gridtolerance="10"
     inkscape:window-height="991"
     showborder="true"
     inkscape:pagecheckerboard="0"
     inkscape:deskcolor="#d1d1d1" />
  <g
     inkscape:groupmode="layer"
     id="layer1"
     inkscape:label="Layer 1"
     style="opacity:1">
    <rect
       style="fill:#008440;fill-opacity:1;stroke-width:2.7613"
       id="rect1"
       width="181.45068"
       height="103.45065"
       x="0"
       y="0" />
    <path
       style="display:inline;fill:#ffffff;fill-opacity:1"
       d="M 7.0009478,40.996371 C 6.8439728,41.217317 9.8305702,31.654475 12.59532,26.735485 16.294161,20.154579 19.338939,16.057411 24.5,12 29.451498,8.107339 36.083085,5.5887348 42.375,5.875 c 8.64649,0.3933921 11.57153,3.0827906 14.8125,7.5 2.516931,3.430396 3.864815,8.127288 4,12.5 0.139397,4.508939 -0.486802,11.557465 -0.486802,11.557465 l -1.414214,9.081903 c 0,0 2.596899,-4.911194 3.911184,-7.35833 2.045998,-3.809551 3.802645,-7.794777 6.187185,-11.402097 2.717517,-4.111045 5.589601,-8.216506 9.192388,-11.578873 3.841668,-3.585308 7.979233,-7.3542918 12.993087,-8.9272235 4.694767,-1.4728286 10.179962,-1.8843693 14.760852,-0.088388 4.80478,1.88376 9.01656,5.9592885 11.29382,10.5905435 2.29048,4.658129 1.84539,10.3207 1.5,15.5 -0.0249,0.373385 -0.21467,2.022508 -0.44155,3.01132 C 116.77908,44.561151 111,60.625 111,60.625 c 0,0 -4.8286,13.411564 -6.5625,20.3125 -0.37432,1.489809 -0.88597,2.999157 -0.82426,4.534032 0.0472,1.172882 -0.12349,2.838972 0.90598,3.402951 1.51179,0.828215 3.44518,-0.689264 4.92765,-1.568893 1.09919,-0.652208 1.90029,-1.714506 2.77188,-2.64934 2.05697,-2.206218 3.99372,-4.532081 5.77969,-6.962893 2.32742,-3.167764 4.44214,-6.495618 6.40816,-9.899494 2.6185,-4.533539 7.1559,-13.981363 7.1559,-13.981363 l 1.05469,-2.1875 c 0,0 -0.394,2.204542 -0.71875,3.273437 -1.29623,4.266464 -3.0146,8.405416 -4.88438,12.453484 -2.17221,4.702826 -4.47905,9.379137 -7.33624,13.700194 -2.4389,3.688455 -4.84625,7.590844 -8.3085,10.341436 -4.14778,3.295213 -9.04657,6.37967 -14.318915,6.894291 -4.665651,0.455402 -9.91444,-0.653662 -13.611805,-3.535534 -3.920581,-3.055855 -5.985214,-8.251324 -7.159456,-13.081475 -0.584796,-2.405512 -0.137876,-4.969124 0.176777,-7.424621 0.261601,-2.041489 0.84515,-4.03246 1.414213,-6.010408 0.346485,-1.204313 1.21534,-3.557631 1.21534,-3.557631 L 91.5,28.375 c 0,0 1.421242,-4.864842 1.31093,-6.541434 -0.3696,-5.617395 -2.898656,-5.828443 -3.90468,-6.208566 -1.960756,-0.740866 -4.284782,0.337294 -6.15625,1.28125 -1.870682,0.94356 -3.240005,2.672735 -4.6875,4.1875 -0.501287,0.524583 -0.946971,1.10161 -1.375,1.6875 -2.428715,3.324451 -4.662491,6.795098 -6.75,10.34375 -2.400351,4.080466 -4.622571,8.272725 -6.625,12.5625 C 60.960988,50.72511 57,61.125 57,61.125 L 52.9375,73.5 48.436814,89.449008 46.304687,98.226562 H 13.788582 L 26.428116,59.308581 33.14563,36.681164 33.919028,33.477087 c 0,0 3.626683,-11.581195 1.237222,-15.586462 -0.640614,-1.073811 -2.008215,-3.269449 -4.571328,-3.463848 -4.247876,-0.32218 -5.944261,1.198093 -8.209922,2.948223 -2.490899,1.924117 -5.109587,5.388115 -6.5625,7.4375 -1.396866,1.970329 -2.67298,4.017376 -3.864448,6.118289 -1.846016,3.255075 -4.3786579,9.265481 -4.9471042,10.065582 z"
       id="path1"
       sodipodi:nodetypes="ssssssccsssssssscsssssssccsssssssssccsssssssccccccccssssss" />
    <path
       style="fill:#ffffff;fill-opacity:1"
       d="m 131.54396,66.887882 8.57367,-4.684582 0.37565,9.811106 h 5.19281 V 78.375 h -5.24859 v 12.59375 c 0,0 -0.007,0.07357 0.008,0.105469 0.14628,0.310779 0.40504,0.551748 0.68695,0.747989 0.40818,0.284141 0.90956,0.526915 1.39899,0.615292 0.96287,0.173867 2.92282,-0.270551 2.92282,-0.270551 l 0.51468,5.708051 c 0,0 -0.25932,0.0857 -0.39063,0.105474 -2.08629,0.314025 -4.19536,0.800016 -6.29687,0.613281 -1.80972,-0.160807 -3.77845,-0.420317 -5.24032,-1.49915 -0.97643,-0.720587 -1.58543,-1.904848 -1.98874,-3.049398 -0.0492,-0.139633 -0.0442,-0.441942 -0.0442,-0.441942 l -0.258,-3.57201 -0.28125,-11.652344 h -3.42166 v -6.367187 h 3.51541 z"
       id="path2"
       sodipodi:nodetypes="cccccccsssccssssccccccc" />
    <path
       style="fill:#ffffff;fill-opacity:1"
       d="m 149.01562,72.328125 h 9.08904 L 163.25,89.6875 168.74219,72.324219 h 8.63281 l -10,25.425781 h -8.25388 z"
       id="path3" />
  </g>
</svg>
