<?xml version="1.0" encoding="utf-8"?>
<!-- Generator: Adobe Illustrator 23.1.0, SVG Export Plug-In . SVG Version: 6.00 Build 0)  -->
<svg version="1.1" id="Layer_2" xmlns="http://www.w3.org/2000/svg" xmlns:xlink="http://www.w3.org/1999/xlink" x="0px" y="0px"
	 width="1000px" height="211.7577515px" viewBox="0 0 1000 211.7577515" enable-background="new 0 0 1000 211.7577515"
	 xml:space="preserve">
<path fill-rule="evenodd" clip-rule="evenodd" fill="#DA233D" d="M136.0865631,71.2143784V52.2738457h-41.231308v115.8398743
	h41.231308v-51.6067352c0-5.7373352,0.5487061-9.7443161,1.7016754-12.6264114
	c0.5761719-2.8552399,2.3059082-6.2860489,5.7373352-10.3217163c3.4308014-4.0075912,9.1406708-5.7367249,17.1558533-5.7367249
	c3.4314117,0,7.4390106,0.5761795,12.0233765,1.1529617l6.8622284-38.9790955l-9.7168579-0.5761757
	c-17.7607117,0-28.631134,7.4390068-33.7636108,21.7963829V71.2143784z"/>
<path fill-rule="evenodd" clip-rule="evenodd" fill="#DA233D" d="M74.3027725,139.9568176
	c-4.0075836,0-7.996254-1.1535645-10.2826462-2.8820953c-2.8576813-1.7028809-4.5733871-4.0075836-5.1440697-6.2866516
	c0-2.3059235-0.5712929-6.3135071-0.5712929-10.8972778V85.4680023h26.8690414V51.07267H58.3047638V22.4146748H17.1479206V51.07267
	H0v34.3953323h17.1479206v42.437973c0,8.6194305,0.5712929,14.3286896,2.2870007,18.3631439
	c1.1419735,4.5849762,5.1440716,9.7449188,10.8588238,15.482254c5.7184162,5.7373352,15.4352665,8.5913544,29.1523838,8.5913544
	c5.1440735,0,10.2991257-0.5761719,14.2798615-1.1523438c5.160553-1.152359,10.2936325-2.8552399,15.4541855-5.1611633
	l-5.160553-26.9544983c-4.0075836,2.3059235-6.8628235,2.8820953-9.7174606,2.8820953H74.3027725z"/>
<path fill-rule="evenodd" clip-rule="evenodd" fill="#DA233D" d="M263.9974365,66.520752
	c-1.7297668-2.8552399-2.8827209-5.1611633-4.0082092-6.8628311c-4.5843811-4.6112328-10.321106-8.0426483-16.0584412-9.7723923
	c-4.0075989-0.5487099-8.0151825-1.1254959-12.0227814-1.1254959c-14.3292999,0-26.352066,5.7373352-36.0963898,17.1839294
	c-9.7449188,11.4740677-14.3018341,25.8027573-14.3018341,43.590332c0,17.7881851,5.1330872,33.2692184,14.3018341,44.1664963
	c9.1681519,11.4746704,21.190918,17.1839447,35.5196075,17.1839447c4.5843811,0,9.1681519-0.5493317,12.5995636-1.7016754
	c9.1681366-2.8820953,15.4822693-8.0432587,20.06604-16.634613v14.3286896h41.8074646V52.1896172h-41.8074646L263.9974365,66.520752
	z M259.9892273,129.6015472c-4.0075989,5.1599426-9.7443237,8.042038-16.0584412,8.042038
	c-7.4384003,0-12.5995636-2.8820953-16.6071472-8.042038c-4.5843811-4.5849915-6.2860413-11.474678-6.2860413-19.4898605
	c0-8.0157852,1.7016602-14.3292999,6.2860413-19.4898529c4.0075836-5.1611557,9.7443085-7.4664688,16.0309753-7.4664688h0.5761719
	c6.3141174,0,11.4740601,2.8820953,16.0584412,7.4664688c4.5843811,5.160553,6.2860413,11.4740677,6.2860413,19.4898529
	C265.6984863,118.7030411,263.9968262,125.5927277,259.9892273,129.6015472z"/>
<path fill-rule="evenodd" clip-rule="evenodd" fill="#DA233D" d="M435.7390747,52.2738457h-43.5365906l-15.4548035,45.8138542
	l-2.8546448,10.2942429l-2.3059082,14.3286896c0-2.8820953,0-5.1611557-0.5767822-6.8909073
	c0-1.7016678-0.5761719-4.555687-1.1523438-7.439003c-0.5493469-3.4308014-1.1255188-5.1324768-1.1255188-6.2854309
	c-0.5767822-1.1529617-1.1529541-2.3059235-1.7297363-4.5843811l-15.4541931-45.8138504h-43.5366211l47.5429993,115.6756821
	h33.2136841l46.4193115-113.3697586L435.7390747,52.2738457z"/>
<path fill-rule="evenodd" clip-rule="evenodd" fill="#DA233D" d="M752.0054932,52.3562431h-49.8220825l-11.4465942,18.336895
	c-1.7297363,2.2784576-2.8552246,4.5843735-3.4313965,6.2860413c-0.5761719,2.3059235-1.1523438,5.160553-1.7285156,9.1681442
	c-1.1535645-6.8622208-2.8552856-11.4465942-5.7105103-14.8780136l-11.4734497-18.3368912h-49.8220215l41.8068237,54.9832153
	l-46.3894043,60.6656189h49.8220825l14.9048462-22.3170166c2.277832-3.431427,4.0075684-6.2854462,4.5837402-8.0151825
	c0.5774536-1.7297516,1.1255493-4.5837708,2.2791138-8.0151825c1.1523438,6.8628235,3.4313965,11.4465942,5.7373047,15.4541779
	l15.4542236,22.3438721h49.8220215l-46.390625-61.2686386L752.0054932,52.3562431z"/>
<rect x="571.4942017" fill-rule="evenodd" clip-rule="evenodd" fill="#DA233D" width="41.2075005" height="167.9354858"/>
<path fill-rule="evenodd" clip-rule="evenodd" fill="#DA233D" d="M496.4309387,48.7740707h-1.1529541
	c-17.2107849,0.5761757-32.116272,6.3135109-43.5897217,17.7875748
	c-9.7449036,10.3491745-14.9054565,21.8500977-16.6077576,35.6313019c-0.5761719,2.8546295-0.5761719,6.3135071-0.5761719,9.7449265
	c0,3.4582672,0,6.3135071,0.5761719,9.7717819c1.702301,13.2032013,7.4390259,24.7059479,16.6077576,34.449646
	c11.4740601,10.925354,25.8314514,16.0852966,43.5897217,16.0852966h1.1529541
	c11.4740601,0,21.7964172-2.3059235,31.5401306-6.889679c9.1687012-4.5849915,14.9060669-9.1956177,18.3374634-13.2032013
	c2.8820801-5.1611633,4.6106567-8.0432587,5.736145-9.1968384c0.5773926-1.1523438,1.1535645-2.3046875,1.7297363-3.430191
	l-33.2692261-11.5027466c-2.8552246,4.5849915-5.7373657,8.6194305-10.321106,11.5027466
	c-4.5837708,2.8540192-9.1681519,4.0075989-13.1763611,4.0075989h-1.729126c-5.7373352,0-10.321106-2.3059235-13.7525024-5.7373352
	c-4.5843811-4.6118469-6.8903198-9.7730103-8.0432739-16.6626968h83.1468201v-8.0432587
	c0-18.9399185-5.7092285-34.4484253-16.6065063-45.9511795c-10.8984985-11.4740601-25.2553101-18.3637466-43.5903625-18.3637466
	H496.4309387z M495.2779846,98.1578903h-21.7957764c1.1529541-7.4670868,3.4588928-12.0508499,7.4664917-16.085907
	c4.0081787-4.0075912,9.1681213-5.7373352,14.3292847-6.3135071h1.1529541c6.3128967,0,11.4740601,2.3053055,14.9054871,6.3135071
	c4.0075684,4.0350571,5.7373657,9.7723923,5.7373657,16.085907H495.2779846z"/>
<path fill-rule="evenodd" clip-rule="evenodd" fill="#DA233D" d="M868.3671875,66.0678711
	c-9.7449341-11.4740639-21.7677002-16.6352272-36.0963745-16.6352272c-4.5838013,0-8.5913696,0-12.0227661,1.1529617
	c-9.7449341,2.2784538-16.0584717,8.5919647-20.06604,17.1839333V52.2878838h-41.2319336v159.4698639h41.2319336v-59.0847931
	c4.5837402,9.1687469,11.4734497,14.9048615,20.06604,17.2107849c4.0075684,1.1535797,8.0151978,1.7297516,11.4465942,1.7297516
	c14.9048462,0,27.5050049-5.7373352,36.6725464-17.2107849c9.7168579-11.4746857,13.7244263-26.3795471,13.7244263-44.7439041
	c0.5773926-18.3637466-4.0075684-32.6924438-13.7244263-43.5897141V66.0678711z M837.4295044,130.877182
	c-4.5837402,4.5849915-10.321106,7.4670868-16.6345825,7.4670868h-0.5480957
	c-6.8909302-0.5761719-12.0508423-2.8820953-16.6358643-7.4670868c-4.0075684-5.159935-6.2854004-11.4734497-6.2854004-20.0660248
	c0-8.6194305,2.277832-14.356163,6.862793-19.5167084c4.0076294-5.1611633,9.7437134-7.4390106,16.0584717-8.0157928h0.5480957
	c6.8908691,0,12.0508423,2.8552399,16.0584106,8.0157928c4.585022,5.1605453,6.862854,11.4740601,6.862854,20.0928802
	C843.1400146,119.4037323,840.8609619,126.2934189,837.4295044,130.877182z"/>
<polygon fill="#DA233D" points="884.18396,0.9783989 900.7379761,0.9783989 900.7379761,23.7684402 921.4290161,23.7684402 
	921.4290161,0.9783989 937.9830322,0.9783989 937.9830322,65.9091721 921.4290161,65.9091721 921.4290161,38.5146141 
	900.7379761,38.5146141 900.7379761,65.9091721 884.18396,65.9091721 "/>
<path fill="#DA233D" d="M945.2108765,0.9783989h21.3319092c3.963623,0,8.4522095,0.5242949,13.4644165,1.632089
	c5.0134888,1.1071839,9.617981,4.4293456,13.7561646,10.0250797C997.9016113,18.2313023,1000,24.9342194,1000,32.7443199
	c0,9.8505173-2.9724121,17.8357925-8.9185181,23.955822c-5.9448242,6.1200256-13.6389771,9.2090302-23.1397705,9.2090302
	h-22.6734619V0.9783989H945.2108765z M961.8223267,51.163002h6.1193848c4.6057739,0,8.3936157-1.6320915,11.250061-4.9542503
	c2.8564453-3.322773,4.3128052-7.5775566,4.3128052-12.8815422c0-5.0708294-1.5735474-9.2090359-4.663147-12.5897903
	c-3.0883789-3.3221626-6.9934692-5.012845-11.6565552-5.012845h-5.4211426v35.438427H961.8223267z"/>
</svg>
